<?xml version="1.0" encoding="utf-8"?>
<!-- Generator: Adobe Illustrator 26.0.2, SVG Export Plug-In . SVG Version: 6.00 Build 0)  -->
<svg version="1.1" id="图层_1" xmlns="http://www.w3.org/2000/svg" xmlns:xlink="http://www.w3.org/1999/xlink" x="0px" y="0px"
	 viewBox="0 0 100 100" style="enable-background:new 0 0 100 100;" xml:space="preserve">
<path d="M61.6,49.8c4.3-3.7,7.4-8.7,7.4-14.9c0-10.5-8.1-18.6-18.6-18.6s-18.6,8.1-18.6,18.6c0,6.2,3.1,11.2,7.4,14.9
	C29.3,54.1,22.5,64,22.5,75.2c0,1.9,1.2,3.1,3.1,3.1c1.9,0,3.1-1.2,3.1-3.1c0-11.8,9.9-21.7,21.7-21.7s21.7,9.9,21.7,21.7
	c0,1.9,1.2,3.1,3.1,3.1s3.1-1.2,3.1-3.1C78.3,64,71.5,54.1,61.6,49.8z M50.4,47.3c-6.8,0-12.4-5.6-12.4-12.4s5.6-12.4,12.4-12.4
	s12.4,5.6,12.4,12.4S57.2,47.3,50.4,47.3z"/>
</svg>
