<?xml version="1.0" encoding="utf-8"?>
<!-- Generator: Adobe Illustrator 26.0.3, SVG Export Plug-In . SVG Version: 6.00 Build 0)  -->
<svg version="1.1" id="图层_1" xmlns="http://www.w3.org/2000/svg" xmlns:xlink="http://www.w3.org/1999/xlink" x="0px" y="0px"
	 viewBox="0 0 32 32" style="enable-background:new 0 0 32 32;" xml:space="preserve">
<path d="M24.5,18.4l-1.1,2c3.7,2,5.7,5.9,5.7,9.9h2.3C31.3,25.5,28.8,21,24.5,18.4z M14.3,0.6c-5.1,0-9.1,4.2-9.1,9.3
	c0,3.4,1.7,6.2,4.2,7.9c-5.1,1.7-9.1,6.8-9.1,12.7h2.3C2.7,24.4,8.1,19,14.6,19c5.1,0,9.3-4.2,9.3-9.3S19.4,0.6,14.3,0.6z
	 M14.3,16.7c-3.7,0-6.8-3.1-6.8-6.8s3.1-6.8,6.8-6.8s6.8,3.1,6.8,6.8C21.4,13.6,18.3,16.7,14.3,16.7z"/>
</svg>
