<svg xmlns="http://www.w3.org/2000/svg" width="1373.285" height="1374.595" viewBox="0 0 1373.285 1374.595">
  <path id="defaultAvatar1" d="M1437.632,1378.8c-23.368-278.748-214.24-509.287-472.272-593.138,108.1-70.006,179.875-190.971,179.875-329.019C1145.334,239.85,968.993,64,751.611,64,534.13,64,357.789,239.85,357.789,456.643c0,138.049,71.773,259.013,179.876,329.117C279.634,869.513,88.86,1100.052,65.393,1378.8c-.295,5.3-.982,8.346,0,15.611,1.964,24.546,23.663,44.183,48.307,44.183a49.257,49.257,0,0,0,49.191-49.093c25.626-303.393,279.632-539.921,588.719-539.921,308.989,0,562.995,236.529,588.621,539.921a49.257,49.257,0,0,0,49.191,49.093c24.645,0,46.344-19.637,48.209-44.183C1438.614,1387.146,1438.025,1384,1437.632,1378.8ZM456.269,456.643c0-162.595,132.256-294.458,295.342-294.458s295.243,131.863,295.243,294.458c0,162.693-132.157,294.556-295.243,294.556S456.269,619.336,456.269,456.643Z" transform="translate(-64.884 -64)"/>
</svg>
