<svg xmlns="http://www.w3.org/2000/svg" xmlns:xlink="http://www.w3.org/1999/xlink" width="120" height="120" viewBox="0 0 120 120">
  <defs>
    <style>
      .cls-1, .cls-8 {
        fill: #fff;
      }

      .cls-1 {
        stroke: #707070;
      }

      .cls-2 {
        clip-path: url(#clip-path);
      }

      .cls-3 {
        fill: #b4def6;
      }

      .cls-4 {
        fill: #fdcc9b;
      }

      .cls-5 {
        fill: #fcbc85;
      }

      .cls-12, .cls-6 {
        fill: #d96e27;
      }

      .cls-7 {
        fill: #3b2519;
      }

      .cls-9 {
        fill: #f7945e;
      }

      .cls-10 {
        fill: #665853;
      }

      .cls-10, .cls-11, .cls-12 {
        fill-rule: evenodd;
      }

      .cls-11 {
        fill: #80cef3;
      }
    </style>
    <clipPath id="clip-path">
      <rect id="矩形_9" data-name="矩形 9" class="cls-1" width="120" height="120" transform="translate(617 75)"/>
    </clipPath>
  </defs>
  <g id="男17" transform="translate(-617 -75)">
    <g id="蒙版组_5" data-name="蒙版组 5" class="cls-2">
      <g id="图层_2" data-name="图层 2" transform="translate(635.031 74.974)">
        <g id="图层_1" data-name="图层 1">
          <path id="路径_55" data-name="路径 55" class="cls-3" d="M80.561,120.026h0a5.041,5.041,0,0,0-.319-2.483c-3.72-9.551-17.971-17.629-38.682-17.629S5.952,107.984,2.8,117.528a5.55,5.55,0,0,0-.243,2.49h78Z"/>
          <path id="路径_56" data-name="路径 56" class="cls-4" d="M31.887,73.986H49.2V99.458a7.714,7.714,0,0,1-7.714,7.714H39.631a7.714,7.714,0,0,1-7.744-7.714Z"/>
          <rect id="矩形_32" data-name="矩形 32" class="cls-5" width="75.573" height="22.374" rx="11.187" transform="translate(2.354 49.851)"/>
          <path id="路径_57" data-name="路径 57" class="cls-5" d="M31.341,89.588l17.857-.3v3.978A29.769,29.769,0,0,1,31.341,89.588Z"/>
          <path id="路径_58" data-name="路径 58" class="cls-4" d="M72.885,55.051c0,19.383-4.085,35.858-32.3,35.858S8.26,74.4,8.26,55.051s-6.286-35.1,32.3-35.1C77.858,19.952,72.885,35.683,72.885,55.051Z"/>
          <path id="路径_59" data-name="路径 59" class="cls-6" d="M24.523,47.489c3.037,0,7.4,1.518,7.4.873,0-2.369-3.31-4.29-7.4-4.29s-7.395,1.921-7.395,4.29C17.128,48.97,21.486,47.489,24.523,47.489Z"/>
          <path id="路径_60" data-name="路径 60" class="cls-6" d="M56.714,47.489c3.037,0,7.395,1.518,7.395.873,0-2.369-3.31-4.29-7.395-4.29s-7.364,1.921-7.364,4.29C49.349,48.97,53.677,47.489,56.714,47.489Z"/>
          <ellipse id="椭圆_22" data-name="椭圆 22" class="cls-7" cx="4.487" cy="5.201" rx="4.487" ry="5.201" transform="translate(20.097 51.369)"/>
          <circle id="椭圆_23" data-name="椭圆 23" class="cls-8" cx="1.799" cy="1.799" r="1.799" transform="translate(20.993 52.538)"/>
          <ellipse id="椭圆_24" data-name="椭圆 24" class="cls-7" cx="4.487" cy="5.201" rx="4.487" ry="5.201" transform="translate(52.105 51.369)"/>
          <circle id="椭圆_25" data-name="椭圆 25" class="cls-8" cx="1.799" cy="1.799" r="1.799" transform="translate(52.994 52.538)"/>
          <path id="路径_61" data-name="路径 61" class="cls-5" d="M40.558,69.932c-2.756,0-5.8-2.414-5.8-2.118,0,2.133,2.6,3.864,5.8,3.864s5.808-1.731,5.808-3.864C46.366,67.518,43.314,69.932,40.558,69.932Z"/>
          <path id="路径_62" data-name="路径 62" class="cls-5" d="M40.558,80.235a20.335,20.335,0,0,1-4.267-.843c0,.843,1.913,1.518,4.267,1.518s4.274-.691,4.274-1.518A20.464,20.464,0,0,1,40.558,80.235Z"/>
          <path id="路径_63" data-name="路径 63" class="cls-9" d="M40.558,77.646c-4.943,0-10.409-1.959-10.409-1.716,0,1.723,4.662,3.128,10.409,3.128s10.417-1.4,10.417-3.128C50.974,75.687,45.5,77.646,40.558,77.646Z"/>
          <path id="路径_64" data-name="路径 64" class="cls-10" d="M48.7,109.685l-8.351-5.155v-.1l-.076.046-.076-.046v.1l-8.351,5.155,3.546,3.166-1.2,7.175H46.351l-1.2-7.175Z"/>
          <path id="路径_65" data-name="路径 65" class="cls-11" d="M31.7,98.987l8.928,5.444-9.414,9.376-6.985-11.639S28.8,98.426,31.7,98.987Z"/>
          <path id="路径_66" data-name="路径 66" class="cls-11" d="M49.069,98.987l-8.928,5.444,9.407,9.376,6.992-11.639S51.969,98.426,49.069,98.987Z"/>
          <path id="路径_67" data-name="路径 67" class="cls-12" d="M8.739,60.616c2.209-2.915,2.209-8.078,2.437-15.063.213-5.922,1.154-10.2,8.412-13.415,0,0,20.788,5.892,35.327,5.892,19.064,0,14.008,22.4,17.462,22.587s7.22-25.533,3.2-40.239c0,0,6.157-3.212,8.033-7.235s-4.836-.266-10.857,0c0,0,10.69-6.962,11.176-11.776S64.3,6.431,41.894,4.016.979,14.114.068,33.208C-.759,50.04,5.93,60.616,8.739,60.616Z"/>
        </g>
      </g>
    </g>
  </g>
</svg>
