<svg xmlns="http://www.w3.org/2000/svg" xmlns:xlink="http://www.w3.org/1999/xlink" width="120" height="120" viewBox="0 0 120 120">
  <defs>
    <style>
      .cls-1, .cls-8 {
        fill: #fff;
      }

      .cls-1 {
        stroke: #707070;
      }

      .cls-2 {
        clip-path: url(#clip-path);
      }

      .cls-3 {
        fill: #f6a4b7;
      }

      .cls-4 {
        fill: #fdcc9b;
      }

      .cls-5 {
        fill: #fcbc85;
      }

      .cls-6 {
        fill: #684b37;
      }

      .cls-7 {
        fill: #3b2519;
      }

      .cls-9 {
        fill: #f7945e;
      }

      .cls-10 {
        fill: #4c2d19;
      }

      .cls-10, .cls-11, .cls-12 {
        fill-rule: evenodd;
      }

      .cls-11 {
        fill: #665853;
      }

      .cls-12 {
        fill: #f2788f;
      }
    </style>
    <clipPath id="clip-path">
      <rect id="矩形_15" data-name="矩形 15" class="cls-1" width="120" height="120" transform="translate(1022 75)"/>
    </clipPath>
  </defs>
  <g id="男20" transform="translate(-1022 -75)">
    <g id="蒙版组_8" data-name="蒙版组 8" class="cls-2">
      <g id="图层_2" data-name="图层 2" transform="translate(1043.283 75)">
        <g id="图层_1" data-name="图层 1">
          <path id="路径_92" data-name="路径 92" class="cls-3" d="M77.369,120h0a4.89,4.89,0,0,0-.311-2.412c-3.625-9.306-17.51-17.177-37.69-17.177S4.675,108.275,1.642,117.581A5.37,5.37,0,0,0,1.405,120H77.369Z"/>
          <path id="路径_93" data-name="路径 93" class="cls-4" d="M29.982,75.142H46.81V99.953a7.516,7.516,0,0,1-7.516,7.516H37.5a7.516,7.516,0,0,1-7.516-7.516Z"/>
          <rect id="矩形_35" data-name="矩形 35" class="cls-5" width="73.633" height="21.8" rx="10.9" transform="translate(1.169 51.626)"/>
          <path id="路径_94" data-name="路径 94" class="cls-5" d="M29.412,90.337l17.4-.3v3.906a29.005,29.005,0,0,1-17.4-3.61Z"/>
          <path id="路径_95" data-name="路径 95" class="cls-4" d="M69.868,56.693c0,18.885-3.98,34.938-31.476,34.938S6.924,75.579,6.924,56.693.8,22.5,38.392,22.5C74.713,22.5,69.868,37.808,69.868,56.693Z"/>
          <path id="路径_96" data-name="路径 96" class="cls-6" d="M22.776,49.326c2.959,0,7.205,1.442,7.205.851,0-2.308-3.225-4.18-7.205-4.18s-7.242,1.872-7.242,4.18C15.534,50.768,19.818,49.326,22.776,49.326Z"/>
          <path id="路径_97" data-name="路径 97" class="cls-6" d="M54.134,49.326c2.959,0,7.212,1.442,7.212.851,0-2.308-3.233-4.18-7.212-4.18s-7.205,1.872-7.205,4.18C46.929,50.768,51.175,49.326,54.134,49.326Z"/>
          <ellipse id="椭圆_34" data-name="椭圆 34" class="cls-7" cx="4.372" cy="5.067" rx="4.372" ry="5.067" transform="translate(18.464 53.098)"/>
          <circle id="椭圆_35" data-name="椭圆 35" class="cls-8" cx="1.753" cy="1.753" r="1.753" transform="translate(19.329 54.237)"/>
          <ellipse id="椭圆_36" data-name="椭圆 36" class="cls-7" cx="4.372" cy="5.067" rx="4.372" ry="5.067" transform="translate(49.644 53.098)"/>
          <circle id="椭圆_37" data-name="椭圆 37" class="cls-8" cx="1.753" cy="1.753" r="1.753" transform="translate(50.509 54.237)"/>
          <path id="路径_98" data-name="路径 98" class="cls-5" d="M38.392,71.192c-2.685,0-5.652-2.36-5.652-2.064,0,2.079,2.53,3.758,5.652,3.758s5.659-1.679,5.659-3.758C44.051,68.832,41.078,71.192,38.392,71.192Z"/>
          <path id="路径_99" data-name="路径 99" class="cls-5" d="M38.392,81.223a19.3,19.3,0,0,1-4.157-.821c0,.829,1.864,1.479,4.157,1.479s4.165-.673,4.165-1.479A19.417,19.417,0,0,1,38.392,81.223Z"/>
          <path id="路径_100" data-name="路径 100" class="cls-9" d="M38.392,78.708c-4.816,0-10.142-1.916-10.142-1.679,0,1.687,4.542,3.048,10.142,3.048s10.149-1.361,10.149-3.048C48.541,76.792,43.208,78.708,38.392,78.708Z"/>
          <path id="路径_101" data-name="路径 101" class="cls-10" d="M75.453,16.962c-.814-1.613-3.129-1.827-4.35-2.523s-1.213-3.654-3.477-4.875-2.611.74-4.194.348S60.325,6.436,58.254,5.74s-3.995.7-5.563.348S50.08,2.434,47.336,2.611,44.458,4.7,43.9,4.52,41.507,0,38.111,0,32.9,4.35,32.334,4.52s-.644-1.738-3.388-1.909S25.151,5.74,23.59,6.088s-3.477-1.043-5.563-.348S14.4,9.565,12.849,9.92s-1.931-1.568-4.194-.355-2.286,4.18-3.477,4.875-3.529.91-4.35,2.523C-2.13,22.784,3.906,63.891,6.184,63.891s.215-20.92,3.7-28.924,16.873-1.05,28.265-1.05,24.729-6.954,28.236,1.05,1.406,28.924,3.7,28.924S78.412,22.784,75.453,16.962Z"/>
          <path id="路径_102" data-name="路径 102" class="cls-11" d="M46.322,109.925l-8.137-5.03v-.089l-.074.044-.074-.044v.089l-8.137,5.03,3.455,3.085L32.186,120H44.044l-1.176-6.991Z"/>
          <path id="路径_103" data-name="路径 103" class="cls-12" d="M29.76,99.5l8.707,5.3-9.18,9.114-6.806-11.348S26.934,98.954,29.76,99.5Z"/>
          <path id="路径_104" data-name="路径 104" class="cls-12" d="M46.685,99.5l-8.7,5.3,9.165,9.114L54,102.594S49.511,98.954,46.685,99.5Z"/>
          <path id="路径_105" data-name="路径 105" class="cls-11" d="M53.646,120l1.835-17.805a13.789,13.789,0,0,1,8.411,2.5L67.708,120Z"/>
          <path id="路径_106" data-name="路径 106" class="cls-11" d="M23.575,120l-1.8-17.805a13.789,13.789,0,0,0-8.411,2.5L9.55,120Z"/>
        </g>
      </g>
    </g>
  </g>
</svg>
