<svg xmlns="http://www.w3.org/2000/svg" xmlns:xlink="http://www.w3.org/1999/xlink" width="120" height="120" viewBox="0 0 120 120">
  <defs>
    <style>
      .cls-1, .cls-10 {
        fill: #fff;
      }

      .cls-1 {
        stroke: #707070;
      }

      .cls-2 {
        fill: none;
      }

      .cls-3 {
        clip-path: url(#clip-path);
      }

      .cls-4 {
        fill: #81665d;
      }

      .cls-5 {
        fill: #524039;
      }

      .cls-6 {
        fill: #fdcc9b;
      }

      .cls-7 {
        fill: #fcbc85;
      }

      .cls-8 {
        fill: #401900;
      }

      .cls-9 {
        fill: #3b2519;
      }

      .cls-11 {
        fill: #f7945e;
      }

      .cls-12 {
        clip-path: url(#clip-path-2);
      }

      .cls-13 {
        fill: #935125;
      }

      .cls-14 {
        fill: #5d2f06;
      }

      .cls-15 {
        fill: #614c45;
      }
    </style>
    <clipPath id="clip-path">
      <rect id="矩形_23" data-name="矩形 23" class="cls-1" width="120" height="120" transform="translate(1562 75)"/>
    </clipPath>
    <clipPath id="clip-path-2">
      <path id="路径_162" data-name="路径 162" class="cls-2" d="M84.376,120h0a4.559,4.559,0,0,0-.288-2.245c-3.365-8.638-16.253-15.944-34.985-15.944s-32.2,7.306-35.061,15.937a5.122,5.122,0,0,0-.22,2.252H84.376Z"/>
    </clipPath>
  </defs>
  <g id="女_24" data-name="女 24" transform="translate(-1562 -75)">
    <g id="蒙版组_12" data-name="蒙版组 12" class="cls-3">
      <g id="图层_2" data-name="图层 2" transform="translate(1573.984 75)">
        <g id="图层_1" data-name="图层 1">
          <path id="路径_151" data-name="路径 151" class="cls-4" d="M84.376,120h0a4.559,4.559,0,0,0-.288-2.245c-3.365-8.638-16.253-15.944-34.985-15.944s-32.2,7.306-35.061,15.937a5.122,5.122,0,0,0-.22,2.252H84.376Z"/>
          <ellipse id="椭圆_52" data-name="椭圆 52" class="cls-5" cx="18.869" cy="10.039" rx="18.869" ry="10.039" transform="translate(29.052 92.19)"/>
          <path id="路径_152" data-name="路径 152" class="cls-6" d="M40.389,78.361H56.017v23.03a6.976,6.976,0,0,1-6.976,6.976H47.379a6.976,6.976,0,0,1-6.976-6.976V78.361Z"/>
          <path id="路径_153" data-name="路径 153" class="cls-7" d="M39.867,92.472l16.15-.275v3.6a26.924,26.924,0,0,1-16.15-3.323Z"/>
          <path id="路径_154" data-name="路径 154" class="cls-6" d="M77.414,61.236c0,17.53-3.687,32.431-29.21,32.431s-29.21-14.9-29.21-32.431,13.074-31.71,29.21-31.71S77.414,43.706,77.414,61.236Z"/>
          <path id="路径_155" data-name="路径 155" class="cls-8" d="M33.7,54.4c1.888,0,4.587,1.373,4.587.79,0-2.142-2.06-3.88-4.587-3.88s-4.587,1.737-4.587,3.88C29.114,55.736,31.82,54.4,33.7,54.4Z"/>
          <ellipse id="椭圆_53" data-name="椭圆 53" class="cls-9" cx="3.715" cy="3.632" rx="3.715" ry="3.632" transform="translate(30.041 59.396)"/>
          <ellipse id="椭圆_54" data-name="椭圆 54" class="cls-10" cx="1.49" cy="1.257" rx="1.49" ry="1.257" transform="translate(30.776 60.213)"/>
          <path id="路径_156" data-name="路径 156" class="cls-8" d="M62.211,54.4c1.881,0,4.58,1.373,4.58.79,0-2.142-2.06-3.88-4.58-3.88s-4.587,1.737-4.587,3.88C57.624,55.736,60.323,54.4,62.211,54.4Z"/>
          <ellipse id="椭圆_55" data-name="椭圆 55" class="cls-9" cx="3.715" cy="3.632" rx="3.715" ry="3.632" transform="translate(58.544 59.396)"/>
          <ellipse id="椭圆_56" data-name="椭圆 56" class="cls-10" cx="1.49" cy="1.257" rx="1.49" ry="1.257" transform="translate(59.286 60.213)"/>
          <path id="路径_157" data-name="路径 157" class="cls-7" d="M47.942,75.381c-2.06,0-4.312-1.5-4.312-1.229,0,1.93,1.93,2.808,4.312,2.808s4.312-.879,4.312-2.8C52.255,73.884,49.989,75.381,47.942,75.381Z"/>
          <path id="路径_158" data-name="路径 158" class="cls-7" d="M47.942,86.306a20.182,20.182,0,0,1-4.058-.762c0,.769,1.813,1.373,4.058,1.373S52,86.3,52,85.544A20.3,20.3,0,0,1,47.942,86.306Z"/>
          <path id="路径_159" data-name="路径 159" class="cls-11" d="M47.942,83.278c-4.079,0-8.59-1.772-8.59-1.552,0,1.566,3.845,2.829,8.59,2.829s8.583-1.263,8.583-2.829C56.526,81.506,52.014,83.278,47.942,83.278Z"/>
          <g id="组_8" data-name="组 8" class="cls-12">
            <path id="路径_160" data-name="路径 160" class="cls-13" d="M58.62,99.435v.35c0,5.074-4.7,9.187-10.506,9.187S37.6,104.852,37.6,99.785V99.5h-3.09l-.1,9.558,13.733,9.428,11.673-8.6,4.731-10.471Z"/>
            <path id="路径_161" data-name="路径 161" class="cls-14" d="M48.135,90.6c-5.8,0-10.513,4.12-10.513,9.187s4.71,9.187,10.513,9.187,10.506-4.12,10.506-9.187S53.937,90.6,48.135,90.6Zm0,16.48c-4.6,0-8.329-3.255-8.329-7.279s3.729-7.279,8.329-7.279,8.329,3.262,8.329,7.279-3.729,7.265-8.329,7.265Z"/>
          </g>
          <path id="路径_163" data-name="路径 163" class="cls-15" d="M35.995,100.877s-7.6-2.884-9.256,4.573c0,0,1.641,3.88,10.794,7.649,6.091,2.513,8.83,4.607,9.984,5.727a4.663,4.663,0,0,1,.755.879c3.715-2.877,7.553-5.8,12.065-7.361,2.122-.742,4.038-1.119,5.871-2.52a8.462,8.462,0,0,0,3.371-4.484,2.932,2.932,0,0,0,0-1.559c-.954-2.939-7.553-4.12-8.927-3.571A16.857,16.857,0,0,1,54.218,111.2c-5.837,4.395-5.8,6.139-5.8,6.18,0-.323-.481-.879-.645-1.14a15.223,15.223,0,0,0-1.765-2.293c-1.1-1.188-2.747-1.758-3.921-2.822a17.853,17.853,0,0,1-3.056-3.529,23.443,23.443,0,0,1-2.911-6.18C36.091,101.227,36.036,101.055,35.995,100.877Z"/>
          <path id="路径_164" data-name="路径 164" class="cls-8" d="M41.337,4.374c2.925-5.6,10.3-6.056,13.486,0,0,0,4.807-3.749,8.515.769,0,0,5.974-2.019,8.24,3.577A7.448,7.448,0,0,1,79.46,14.1s5.658-.117,6.1,5.624c0,0,5.054.8,5.081,7.423,0,0,4.237,2.211,2.911,8.927,0,0,3.66,4.7,0,8.439,0,0,5.15,5.335.481,9.462,0,0,3.969,7.127-2.417,11.591,0,0,2.238,8.542-5.576,10.259,0,0,.137,6.07-6.585,6.3,0,0-5.871,6.867-6.722-3.124a10.517,10.517,0,0,1,2.9-6.345s-3.832-4.978,0-10.025a6.481,6.481,0,0,1,0-8.652s-5.267-.817-4.058-7.155c0,0-5.061,1.415-7.752-4.408a7.364,7.364,0,0,1-8.981-1.476s-3.433,3.3-6.743,0c0,0-1.9,3.3-6.743,0,0,0-2.994,4.443-8.981,1.476,0,0-2.788,5.3-7.752,4.408,0,0,1.263,6.139-4.058,7.155,0,0,3.344,5.37,0,8.652,0,0,3.832,7.114,0,10.025,0,0,5.823,8.576,1.682,11.138s-5.493-1.669-5.493-1.669-5.933-.584-6.585-6.3c0,0-7.945-2.026-5.576-10.259,0,0-6.441-4.051-2.417-11.591,0,0-5.122-3.873.481-9.462,0,0-3.79-3.255,0-8.439,0,0-2.644-5.2,2.911-8.927a6.513,6.513,0,0,1,5.081-7.423s-.179-5.074,6.1-5.624c0,0,2.218-6.31,7.883-5.377,0,0,1.5-5.425,8.24-3.577C36.214.282,41.337,4.374,41.337,4.374Z"/>
        </g>
      </g>
    </g>
  </g>
</svg>
