<svg xmlns="http://www.w3.org/2000/svg" xmlns:xlink="http://www.w3.org/1999/xlink" width="120" height="120" viewBox="0 0 120 120">
  <defs>
    <style>
      .cls-1, .cls-10 {
        fill: #fff;
      }

      .cls-1 {
        stroke: #707070;
      }

      .cls-2 {
        fill: none;
      }

      .cls-3 {
        clip-path: url(#clip-path);
      }

      .cls-4 {
        fill: #543c2a;
      }

      .cls-5 {
        fill: #f5a860;
      }

      .cls-6 {
        fill: #fdcc9b;
      }

      .cls-7 {
        fill: #fcbc85;
      }

      .cls-8 {
        fill: #684b37;
      }

      .cls-9 {
        fill: #3b2519;
      }

      .cls-11 {
        fill: #f7945e;
      }

      .cls-12 {
        fill: #f9aa8d;
      }

      .cls-13 {
        clip-path: url(#clip-path-2);
      }

      .cls-14 {
        fill: #f18b45;
      }
    </style>
    <clipPath id="clip-path">
      <rect id="矩形_4" data-name="矩形 4" class="cls-1" width="120" height="120" transform="translate(212 219)"/>
    </clipPath>
    <clipPath id="clip-path-2">
      <path id="路径_192" data-name="路径 192" class="cls-2" d="M89.172,119.985h0a4.83,4.83,0,0,0-.308-2.393c-3.6-9.248-17.374-17.036-37.4-17.036S17.043,108.366,14,117.6a5.329,5.329,0,0,0-.235,2.4h75.41Z"/>
    </clipPath>
  </defs>
  <g id="女_26" data-name="女 26" transform="translate(-212 -219)">
    <g id="蒙版组_14" data-name="蒙版组 14" class="cls-3">
      <g id="图层_2" data-name="图层 2" transform="translate(221.505 219)">
        <g id="图层_1" data-name="图层 1">
          <path id="路径_181" data-name="路径 181" class="cls-4" d="M9.329,46.344H91.536s.932,27.319-.426,34.938-4.639,15.3,9.784,15.3c0,0,4.837,21.807-49.434,21.807C-4.609,118.385.081,96.578.081,96.578s12.647,1.152,11.01-8.617C7.582,74.089,9.329,46.344,9.329,46.344Z"/>
          <path id="路径_182" data-name="路径 182" class="cls-5" d="M89.172,119.985h0a4.83,4.83,0,0,0-.308-2.393c-3.6-9.248-17.374-17.036-37.4-17.036S17.043,108.366,14,117.6a5.329,5.329,0,0,0-.235,2.4h75.41Z"/>
          <path id="路径_183" data-name="路径 183" class="cls-6" d="M42.153,75.476h16.7v30.013a8.133,8.133,0,0,1-8.133,8.133h-.44a8.133,8.133,0,0,1-8.133-8.133V75.476Z"/>
          <path id="路径_184" data-name="路径 184" class="cls-7" d="M41.588,90.56l17.263-.294v3.846A28.78,28.78,0,0,1,41.588,90.56Z"/>
          <path id="路径_185" data-name="路径 185" class="cls-6" d="M81.73,57.17c0,18.746-12.309,34.666-31.231,34.666S19.275,75.917,19.275,57.17,33.257,23.238,50.5,23.238,81.73,38.432,81.73,57.17Z"/>
          <path id="路径_186" data-name="路径 186" class="cls-8" d="M35,48.1c2.576,0,6.283.917,6.283.543,0-1.468-2.811-2.657-6.283-2.657s-6.29,1.189-6.29,2.657C28.714,49.016,32.42,48.1,35,48.1Z"/>
          <path id="路径_187" data-name="路径 187" class="cls-8" d="M66,48.1c2.584,0,6.29.917,6.29.543,0-1.468-2.819-2.657-6.29-2.657s-6.283,1.189-6.283,2.657C59.717,49.016,63.424,48.1,66,48.1Z"/>
          <ellipse id="椭圆_63" data-name="椭圆 63" class="cls-9" cx="4.338" cy="5.028" rx="4.338" ry="5.028" transform="translate(30.725 53.611)"/>
          <circle id="椭圆_64" data-name="椭圆 64" class="cls-10" cx="1.74" cy="1.74" r="1.74" transform="translate(31.584 54.741)"/>
          <ellipse id="椭圆_65" data-name="椭圆 65" class="cls-9" cx="4.338" cy="5.028" rx="4.338" ry="5.028" transform="translate(61.662 53.611)"/>
          <circle id="椭圆_66" data-name="椭圆 66" class="cls-10" cx="1.74" cy="1.74" r="1.74" transform="translate(62.521 54.741)"/>
          <path id="路径_188" data-name="路径 188" class="cls-7" d="M50.5,71.564c-2.2,0-4.58-2.341-4.58-2.055,0,2.063,2.048,3.736,4.58,3.736s4.587-1.674,4.587-3.736C55.086,69.223,52.678,71.564,50.5,71.564Z"/>
          <path id="路径_189" data-name="路径 189" class="cls-7" d="M50.5,83.719a9.012,9.012,0,0,1-2.657-.815c0,.822,1.189,1.468,2.657,1.468s2.664-.661,2.664-1.468A9.009,9.009,0,0,1,50.5,83.719Z"/>
          <path id="路径_190" data-name="路径 190" class="cls-11" d="M50.5,81.216c-3.721,0-7.854-1.894-7.854-1.659,0,1.666,3.523,3.024,7.854,3.024s7.854-1.358,7.854-3.024C58.352,79.322,54.227,81.216,50.5,81.216Z"/>
          <circle id="椭圆_67" data-name="椭圆 67" class="cls-12" cx="4.22" cy="4.22" r="4.22" transform="translate(26.614 67.857)"/>
          <circle id="椭圆_68" data-name="椭圆 68" class="cls-12" cx="4.22" cy="4.22" r="4.22" transform="translate(66.125 67.857)"/>
          <g id="组_10" data-name="组 10" class="cls-13">
            <path id="路径_191" data-name="路径 191" class="cls-14" d="M34.938,75.476,33.47,97.232l17.021,22.754L67.586,97.232,66.118,75.476Zm26.717,21.9L50.5,113.622,39.4,97.378V81.847H61.655Z"/>
          </g>
          <path id="路径_193" data-name="路径 193" class="cls-8" d="M50.058,0C69,0,91.242,9.461,92.277,45.647S78.684,95.786,64.386,107.706c0,0,15.8-29.4,13.806-47.563S76.6,40.905,69,27.209c0,0,4.4,8.412,3.56,12.713,0,0-33.874-4.822-44.928.984A23.833,23.833,0,0,1,31.466,27.1a66.235,66.235,0,0,0-7.259,15.164c-3.853,11.223-3.156,23.488-.132,34.791a118.778,118.778,0,0,0,5.652,16.089c1.409,3.288,4.543,13.88,7.678,15.612,0,0-29.272-16.148-29.249-52.671S15.054,0,50.058,0Z"/>
        </g>
      </g>
    </g>
  </g>
</svg>
