<svg xmlns="http://www.w3.org/2000/svg" xmlns:xlink="http://www.w3.org/1999/xlink" width="120" height="120" viewBox="0 0 120 120">
  <defs>
    <style>
      .cls-1, .cls-9 {
        fill: #fff;
      }

      .cls-1 {
        stroke: #707070;
      }

      .cls-2 {
        clip-path: url(#clip-path);
      }

      .cls-3 {
        fill: #a87b3f;
      }

      .cls-4 {
        fill: #8fd6e7;
      }

      .cls-5 {
        fill: #fcbc85;
      }

      .cls-6 {
        fill: #fdcc9b;
      }

      .cls-7 {
        fill: #bf904b;
      }

      .cls-8 {
        fill: #3b2519;
      }

      .cls-10 {
        fill: #f7945e;
      }

      .cls-11 {
        fill: #f9aa8d;
      }

      .cls-12 {
        fill: #3abdaa;
      }
    </style>
    <clipPath id="clip-path">
      <rect id="矩形_3" data-name="矩形 3" class="cls-1" width="120" height="120" transform="translate(212 75)"/>
    </clipPath>
  </defs>
  <g id="女14" transform="translate(-212 -75)">
    <g id="蒙版组_2" data-name="蒙版组 2" class="cls-2">
      <g id="图层_2" data-name="图层 2" transform="translate(218.297 74.999)">
        <g id="图层_1" data-name="图层 1">
          <path id="路径_17" data-name="路径 17" class="cls-3" d="M8.865,46.061H99.191s-.864,27.5-2.3,35.157-4.935,15.4,10.394,15.4c0,0,5.171,21.955-52.569,21.955C-4.905,118.568.1,96.613.1,96.613s13.445,1.167,11.724-8.665C8.067,73.978,8.865,46.061,8.865,46.061Z"/>
          <path id="路径_18" data-name="路径 18" class="cls-4" d="M92.9,120h0a4.794,4.794,0,0,0-.318-2.408c-3.62-9.293-17.479-17.161-37.639-17.161s-34.64,7.86-37.676,17.154A5.467,5.467,0,0,0,17.035,120H92.9Z"/>
          <rect id="矩形_26" data-name="矩形 26" class="cls-5" width="73.534" height="21.771" rx="10.885" transform="translate(16.962 50.013)"/>
          <path id="路径_19" data-name="路径 19" class="cls-6" d="M55.679,109.378l4.8-6.612,1.426.9a18.934,18.934,0,0,0,.48-3.694V75.2H45.58V99.981a23.078,23.078,0,0,0,.916,5.452H49.9l3.184,10.025H54.1Z"/>
          <path id="路径_20" data-name="路径 20" class="cls-5" d="M45.019,90.385l17.368-.3v3.871a28.959,28.959,0,0,1-17.368-3.576Z"/>
          <path id="路径_21" data-name="路径 21" class="cls-6" d="M85.413,56.78c0,18.867-12.389,34.891-31.426,34.891S22.561,75.647,22.561,56.78,36.6,22.628,53.987,22.628,85.413,37.92,85.413,56.78Z"/>
          <path id="路径_22" data-name="路径 22" class="cls-7" d="M38.415,49.932c3.206,0,7.8,1.359,7.8.805,0-2.216-3.494-3.938-7.8-3.938s-7.8,1.758-7.8,3.938C30.643,51.291,35.238,49.932,38.415,49.932Z"/>
          <path id="路径_23" data-name="路径 23" class="cls-7" d="M69.708,49.932c3.206,0,7.8,1.359,7.8.805,0-2.216-3.494-3.938-7.8-3.938s-7.8,1.758-7.8,3.938C61.907,51.291,66.487,49.932,69.708,49.932Z"/>
          <ellipse id="椭圆_5" data-name="椭圆 5" class="cls-8" cx="4.366" cy="4.492" rx="4.366" ry="4.492" transform="translate(34.078 54.335)"/>
          <ellipse id="椭圆_6" data-name="椭圆 6" class="cls-9" cx="1.751" cy="1.551" rx="1.751" ry="1.551" transform="translate(34.943 55.347)"/>
          <ellipse id="椭圆_7" data-name="椭圆 7" class="cls-8" cx="4.366" cy="4.492" rx="4.366" ry="4.492" transform="translate(65.342 54.335)"/>
          <ellipse id="椭圆_8" data-name="椭圆 8" class="cls-9" cx="1.751" cy="1.551" rx="1.751" ry="1.551" transform="translate(66.206 55.347)"/>
          <path id="路径_24" data-name="路径 24" class="cls-5" d="M53.987,73.342c-1.574,0-3.31-1.477-3.31-1.293,0,1.3,1.477,2.357,3.31,2.357S57.3,73.35,57.3,72.05C57.3,71.865,55.561,73.342,53.987,73.342Z"/>
          <path id="路径_25" data-name="路径 25" class="cls-5" d="M53.987,84.593c-.805,0-1.692-.879-1.692-.739a1.721,1.721,0,0,0,3.383,0C55.679,83.714,54.793,84.593,53.987,84.593Z"/>
          <path id="路径_26" data-name="路径 26" class="cls-10" d="M53.987,81.557c-3.088,0-6.5-2.046-6.5-1.788,0,1.8,2.911,3.258,6.5,3.258s6.494-1.477,6.494-3.258C60.481,79.511,57.068,81.557,53.987,81.557Z"/>
          <circle id="椭圆_9" data-name="椭圆 9" class="cls-11" cx="4.248" cy="4.248" r="4.248" transform="translate(29.949 67.536)"/>
          <circle id="椭圆_10" data-name="椭圆 10" class="cls-11" cx="4.248" cy="4.248" r="4.248" transform="translate(69.708 67.536)"/>
          <path id="路径_27" data-name="路径 27" class="cls-12" d="M37.092,102.56s4.713-4.152,7.469-4.285l5.784,3.051L53.987,114.1l3.635-12.773,5.792-3.812s3.317.2,7.469,4.285l-5.821,7.639L59.2,106.276l-2.578,3.509-2.637,9.892-2.866-9.87L48.757,106.3l-5.866,3.162Z"/>
          <path id="路径_28" data-name="路径 28" class="cls-7" d="M81.491,12.027c2.216,3.612,17.058.857,18.151,26.7S97.167,75.234,78.957,85.7c0,0,11.82-27.718,4.817-38.415,0,0-8.3.31-7.21-13.763,0,0-18.469,19.806-19.717,4.041,0,0-11.635,11.561-16.334,3.775,0,0-4.078,7.062-11.724,4.558,0,0-11.62,10.143,3.45,41.37,0,0-33.628-18.587-22.022-56.58C28.767-13.918,73.874-.207,81.491,12.027Z"/>
        </g>
      </g>
    </g>
  </g>
</svg>
