<svg xmlns="http://www.w3.org/2000/svg" xmlns:xlink="http://www.w3.org/1999/xlink" width="120" height="120" viewBox="0 0 120 120">
  <defs>
    <style>
      .cls-1, .cls-8 {
        fill: #fff;
      }

      .cls-1 {
        stroke: #707070;
      }

      .cls-2 {
        clip-path: url(#clip-path);
      }

      .cls-3 {
        fill: #557ebf;
      }

      .cls-4 {
        fill: #fdcc9b;
      }

      .cls-5 {
        fill: #fcbc85;
      }

      .cls-6 {
        fill: #684b37;
      }

      .cls-7 {
        fill: #3b2519;
      }

      .cls-9 {
        fill: #f7945e;
      }

      .cls-10 {
        fill: #f9aa8d;
      }

      .cls-11 {
        fill: #1c0d06;
      }

      .cls-12 {
        fill: #342620;
      }

      .cls-13 {
        fill: #232323;
      }

      .cls-14 {
        fill: #71a0e2;
      }
    </style>
    <clipPath id="clip-path">
      <rect id="矩形_5" data-name="矩形 5" class="cls-1" width="120" height="120" transform="translate(347 75)"/>
    </clipPath>
  </defs>
  <g id="女15" transform="translate(-347 -75)">
    <g id="蒙版组_3" data-name="蒙版组 3" class="cls-2">
      <g id="图层_2" data-name="图层 2" transform="translate(368.627 75)">
        <g id="图层_1" data-name="图层 1">
          <path id="路径_29" data-name="路径 29" class="cls-3" d="M72.519,120h0a4.273,4.273,0,0,0-.272-2.111c-3.173-8.145-15.326-15.041-32.99-15.041S8.89,109.737,6.235,117.883A4.7,4.7,0,0,0,6.028,120H72.519Z"/>
          <path id="路径_30" data-name="路径 30" class="cls-4" d="M39.219,113.227l3.963-8.379,2.473,3.335a7.329,7.329,0,0,0,.285-2.156V84.31H31.209v21.717c0,1.14.531-2.59,1.042-.712L36.027,110l2.1,7.2.246,1.094Z"/>
          <path id="路径_31" data-name="路径 31" class="cls-5" d="M30.51,94.035l15.229-.259v3.393A25.388,25.388,0,0,1,30.51,94.035Z"/>
          <path id="路径_32" data-name="路径 32" class="cls-4" d="M65.921,64.587c0,16.531-10.884,30.594-27.551,30.594S10.826,81.131,10.826,64.6,23.161,34.654,38.37,34.654,65.921,48.05,65.921,64.587Z"/>
          <path id="路径_33" data-name="路径 33" class="cls-6" d="M24.7,56.578c2.279,0,5.549.809,5.549.479,0-1.295-2.486-2.337-5.549-2.337s-5.543,1.042-5.543,2.337C19.153,57.387,22.423,56.578,24.7,56.578Z"/>
          <path id="路径_34" data-name="路径 34" class="cls-6" d="M52.046,56.578c2.279,0,5.543.809,5.543.479,0-1.295-2.48-2.337-5.543-2.337S46.5,55.762,46.5,57.057C46.5,57.387,49.766,56.578,52.046,56.578Z"/>
          <ellipse id="椭圆_11" data-name="椭圆 11" class="cls-7" cx="3.827" cy="4.435" rx="3.827" ry="4.435" transform="translate(20.921 61.441)"/>
          <circle id="椭圆_12" data-name="椭圆 12" class="cls-8" cx="1.535" cy="1.535" r="1.535" transform="translate(21.685 62.438)"/>
          <ellipse id="椭圆_13" data-name="椭圆 13" class="cls-7" cx="3.827" cy="4.435" rx="3.827" ry="4.435" transform="translate(48.219 61.441)"/>
          <circle id="椭圆_14" data-name="椭圆 14" class="cls-8" cx="1.535" cy="1.535" r="1.535" transform="translate(48.976 62.438)"/>
          <path id="路径_35" data-name="路径 35" class="cls-5" d="M38.37,77.278c-1.942,0-4.04-2.066-4.04-1.807,0,1.813,1.807,3.289,4.04,3.289s4.047-1.476,4.047-3.289C42.417,75.213,40.294,77.278,38.37,77.278Z"/>
          <path id="路径_36" data-name="路径 36" class="cls-5" d="M38.37,88a7.874,7.874,0,0,1-2.344-.719c0,.725,1.049,1.295,2.344,1.295s2.344-.583,2.344-1.295A7.725,7.725,0,0,1,38.37,88Z"/>
          <path id="路径_37" data-name="路径 37" class="cls-9" d="M38.37,85.793c-3.289,0-6.928-1.671-6.928-1.463,0,1.476,3.1,2.668,6.928,2.668s6.954-1.191,6.954-2.668C45.325,84.122,41.66,85.793,38.37,85.793Z"/>
          <circle id="椭圆_15" data-name="椭圆 15" class="cls-10" cx="3.723" cy="3.723" r="3.723" transform="translate(17.301 74.009)"/>
          <circle id="椭圆_16" data-name="椭圆 16" class="cls-10" cx="3.723" cy="3.723" r="3.723" transform="translate(52.149 74.009)"/>
          <ellipse id="椭圆_17" data-name="椭圆 17" class="cls-11" cx="15.223" cy="12.607" rx="15.223" ry="12.607" transform="translate(22.682 0)"/>
          <path id="路径_38" data-name="路径 38" class="cls-12" d="M38.72,40.319s-9.952,8.508-19.7,9.583c0,0-13.112,15.43,4.034,33.022A12.95,12.95,0,0,1,13.1,76.171s-2.739,21.84,7.233,33.255c0,0-23.31-10.153-20.008-60.942S65.4,2.791,72.875,32.375s4.947,64.186-15.009,76.216c0,0,8.935-8.78,6.475-32.375,0,0-4.131,6.41-9.952,6.753,0,0,12.807-8.935,6.546-29.558,0,0-1.153-4.027-6.358-4.176S38.72,40.319,38.72,40.319Z"/>
          <path id="路径_39" data-name="路径 39" class="cls-13" d="M52.149,57.99a7.77,7.77,0,0,0-7.77,7.122H32.847a7.77,7.77,0,1,0,0,1.295H44.392a7.77,7.77,0,1,0,7.77-8.417ZM25.09,72.234a2.685,2.685,0,1,1,0,.032Zm27.059,0a2.685,2.685,0,1,1,0,.032Z"/>
          <path id="路径_40" data-name="路径 40" class="cls-14" d="M23.562,104.687s4.131-3.639,6.553-3.749l5.063,2.661,3.192,11.189L41.563,103.6l5.057-3.309s2.914.168,6.546,3.749l-5.083,6.682-5.141-2.771-2.26,3.082-2.312,8.657-2.512-8.644-2.053-3.082-5.141,2.758Z"/>
        </g>
      </g>
    </g>
  </g>
</svg>
