<svg xmlns="http://www.w3.org/2000/svg" xmlns:xlink="http://www.w3.org/1999/xlink" width="120" height="120" viewBox="0 0 120 120">
  <defs>
    <style>
      .cls-1, .cls-10 {
        fill: #fff;
      }

      .cls-1 {
        stroke: #707070;
      }

      .cls-2 {
        fill: none;
      }

      .cls-3 {
        clip-path: url(#clip-path);
      }

      .cls-4 {
        fill: #1c0d06;
      }

      .cls-5 {
        fill: #c05371;
      }

      .cls-6 {
        fill: #fdcc9b;
      }

      .cls-7 {
        fill: #fcbc85;
      }

      .cls-8 {
        fill: #684b37;
      }

      .cls-9 {
        fill: #3b2519;
      }

      .cls-11 {
        fill: #f7945e;
      }

      .cls-12 {
        fill: #f9aa8d;
      }

      .cls-13 {
        clip-path: url(#clip-path-2);
      }

      .cls-14 {
        fill: #98375e;
      }

      .cls-15 {
        fill: #342620;
      }
    </style>
    <clipPath id="clip-path">
      <rect id="矩形_17" data-name="矩形 17" class="cls-1" width="120" height="120" transform="translate(1157 75)"/>
    </clipPath>
    <clipPath id="clip-path-2">
      <path id="路径_119" data-name="路径 119" class="cls-2" d="M88.694,120h0a4.6,4.6,0,0,0-.3-2.306c-3.466-8.9-16.737-16.426-36.042-16.426s-33.17,7.506-36.084,16.4a5.136,5.136,0,0,0-.226,2.313h0Z"/>
    </clipPath>
  </defs>
  <g id="女21" transform="translate(-1157 -75)">
    <g id="蒙版组_9" data-name="蒙版组 9" class="cls-3">
      <g id="图层_2" data-name="图层 2" transform="translate(1165.575 74.997)">
        <g id="图层_1" data-name="图层 1">
          <path id="路径_107" data-name="路径 107" class="cls-4" d="M10.208,49.03h82.3s1.648,26.329.276,33.665-4.725,14.742,9.953,14.742c0,0,4.952,21.024-50.339,21.024C-4.7,118.461.1,97.437.1,97.437s12.875,1.118,11.219-8.3C7.725,75.763,10.208,49.03,10.208,49.03Z"/>
          <path id="路径_108" data-name="路径 108" class="cls-5" d="M88.694,120h0a4.6,4.6,0,0,0-.3-2.306c-3.466-8.9-16.737-16.426-36.042-16.426s-33.17,7.506-36.084,16.4a5.136,5.136,0,0,0-.226,2.313h0Z"/>
          <path id="路径_109" data-name="路径 109" class="cls-6" d="M43.378,77.107H59.471v23.726a7.187,7.187,0,0,1-7.187,7.187H50.565a7.187,7.187,0,0,1-7.187-7.187V77.107Z"/>
          <path id="路径_110" data-name="路径 110" class="cls-7" d="M42.84,91.644l16.631-.283v3.707A27.73,27.73,0,0,1,42.84,91.644Z"/>
          <path id="路径_111" data-name="路径 111" class="cls-6" d="M81.521,59.464c0,18.06-11.863,33.41-30.093,33.41s-30.1-15.351-30.1-33.41,13.476-32.7,30.1-32.7S81.521,41.4,81.521,59.464Z"/>
          <path id="路径_112" data-name="路径 112" class="cls-8" d="M36.488,50.721c2.49,0,6.055.877,6.055.516,0-1.415-2.709-2.554-6.055-2.554s-6.069,1.146-6.069,2.554C30.418,51.6,34,50.721,36.488,50.721Z"/>
          <path id="路径_113" data-name="路径 113" class="cls-8" d="M66.361,50.721c2.49,0,6.062.877,6.062.516,0-1.415-2.716-2.554-6.062-2.554s-6.055,1.146-6.055,2.554C60.306,51.6,63.878,50.721,66.361,50.721Z"/>
          <ellipse id="椭圆_38" data-name="椭圆 38" class="cls-9" cx="4.181" cy="4.846" rx="4.181" ry="4.846" transform="translate(32.364 56.026)"/>
          <circle id="椭圆_39" data-name="椭圆 39" class="cls-10" cx="1.677" cy="1.677" r="1.677" transform="translate(33.191 57.123)"/>
          <ellipse id="椭圆_40" data-name="椭圆 40" class="cls-9" cx="4.181" cy="4.846" rx="4.181" ry="4.846" transform="translate(62.18 56.026)"/>
          <circle id="椭圆_41" data-name="椭圆 41" class="cls-10" cx="1.677" cy="1.677" r="1.677" transform="translate(63.015 57.123)"/>
          <path id="路径_114" data-name="路径 114" class="cls-7" d="M51.428,73.329c-2.122,0-4.421-2.257-4.421-1.974,0,1.988,1.981,3.594,4.421,3.594s4.414-1.606,4.414-3.594C55.842,71.072,53.522,73.329,51.428,73.329Z"/>
          <path id="路径_115" data-name="路径 115" class="cls-7" d="M51.428,85.044a8.381,8.381,0,0,1-2.561-.785c0,.792,1.146,1.415,2.561,1.415s2.561-.644,2.561-1.415A7.6,7.6,0,0,1,51.428,85.044Z"/>
          <path id="路径_116" data-name="路径 116" class="cls-11" d="M51.428,82.638c-3.594,0-7.569-1.832-7.569-1.606,0,1.613,3.388,2.914,7.569,2.914S59,82.646,59,81.033C59,80.806,55.022,82.638,51.428,82.638Z"/>
          <circle id="椭圆_42" data-name="椭圆 42" class="cls-12" cx="4.068" cy="4.068" r="4.068" transform="translate(28.409 69.764)"/>
          <circle id="椭圆_43" data-name="椭圆 43" class="cls-12" cx="4.068" cy="4.068" r="4.068" transform="translate(66.481 69.764)"/>
          <g id="组_5" data-name="组 5" class="cls-13">
            <path id="路径_117" data-name="路径 117" class="cls-14" d="M51.357,86.055c-8.291,0-15.011,5.871-15.011,13.122S43.066,112.3,51.357,112.3s15-5.878,15-13.122S59.641,86.055,51.357,86.055Zm0,23.521c-6.572,0-11.9-4.655-11.9-10.4s5.327-10.4,11.9-10.4,11.891,4.655,11.891,10.4S57.922,109.576,51.357,109.576Z"/>
            <path id="路径_118" data-name="路径 118" class="cls-14" d="M51.357,79.894c-12.181,0-22.057,8.63-22.057,19.284s9.9,19.284,22.057,19.284,22.057-8.637,22.057-19.284S63.539,79.894,51.357,79.894Zm0,34.564c-9.656,0-17.48-6.841-17.48-15.28S41.737,83.9,51.357,83.9,68.83,90.738,68.83,99.177,61.006,114.457,51.357,114.457Z"/>
          </g>
          <path id="路径_120" data-name="路径 120" class="cls-15" d="M51.8,32.958S40.937,42.246,30.277,43.42c0,0-14.318,16.857,4.407,36.077a14.148,14.148,0,0,1-10.873-7.343S20.84,95.994,31.72,108.487c0,0-25.466-11.092-21.866-66.58S80.941-8.05,89.132,24.278s5.4,70.117-16.4,83.261c0,0,9.769-9.592,7.074-35.37,0,0-4.513,7-10.873,7.385,0,0,13.992-9.769,7.145-32.3,0,0-1.259-4.4-6.947-4.556S51.8,32.958,51.8,32.958Z"/>
        </g>
      </g>
    </g>
  </g>
</svg>
