<svg xmlns="http://www.w3.org/2000/svg" width="20" height="20" viewBox="0 0 20 20">
  <g id="add" transform="translate(-64 -66.018)">
    <path id="路径_128" data-name="路径 128" d="M74,86.018A10,10,0,1,1,81.07,83.09,9.936,9.936,0,0,1,74,86.018Zm0-18.566a8.568,8.568,0,1,0,6.062,2.51A8.517,8.517,0,0,0,74,67.452Z" transform="translate(0)" fill="#515151"/>
    <path id="路径_129" data-name="路径 129" d="M266.868,261.11h-4.347v-4.38a.725.725,0,1,0-1.449,0v4.38h-4.347a.73.73,0,0,0,0,1.46h4.347v4.38a.725.725,0,1,0,1.449,0v-4.38h4.347a.73.73,0,0,0,0-1.46Z" transform="translate(-187.796 -185.822)" fill="#515151"/>
  </g>
</svg>
