<?xml version="1.0" encoding="utf-8"?>
<!-- Generator: Adobe Illustrator 26.0.3, SVG Export Plug-In . SVG Version: 6.00 Build 0)  -->
<svg version="1.1" id="图层_1" xmlns="http://www.w3.org/2000/svg" xmlns:xlink="http://www.w3.org/1999/xlink" x="0px" y="0px"
	 viewBox="0 0 128 128" style="enable-background:new 0 0 128 128;" xml:space="preserve">
<style type="text/css">
	.st0{fill:#515151;}
</style>
<path class="st0" d="M100.3,72.6c2.7,0,4.9,2.2,4.9,4.9v17.9h17.9c2.7,0,4.9,2.2,4.9,4.9c0,2.7-2.2,4.9-4.9,4.9h-17.9v17.9
	c0,2.7-2.2,4.9-4.9,4.9c-2.7,0-4.9-2.2-4.9-4.9v-17.9H77.5c-2.7,0-4.9-2.2-4.9-4.9c0-2.7,2.2-4.9,4.9-4.9h17.9V77.5
	C95.4,74.8,97.6,72.6,100.3,72.6z M53.1-0.7c20.7,0,37.5,16.8,37.5,37.5c0,13.3-6.9,24.9-17.3,31.6c5.8,2.3,11.1,5.7,15.8,9.9
	c2,1.8,2.3,4.9,0.5,6.9c-1.8,2-4.9,2.3-6.9,0.5c0,0-0.1-0.1-0.1-0.1c-8.1-7.3-18.5-11.3-29.4-11.3c-24.3,0-44,19.7-44,44
	c0,1,0,2,0.1,3c0.3,2.7-1.7,5.1-4.4,5.3c-2.7,0.3-5.1-1.7-5.3-4.4c0-0.1,0-0.2,0-0.3c-0.1-1.2-0.1-2.4-0.1-3.7
	c0-22.6,13.9-41.9,33.6-49.8c-10.8-6.9-17.3-18.8-17.3-31.6C15.6,16.1,32.4-0.7,53.1-0.7z M53.1,9.1c-15.3,0-27.7,12.4-27.7,27.7
	c0,15.3,12.4,27.7,27.7,27.7c0,0,0,0,0,0c15.3,0,27.7-12.4,27.7-27.7C80.8,21.5,68.4,9.1,53.1,9.1z"/>
</svg>
