<svg xmlns="http://www.w3.org/2000/svg" width="20" height="20" viewBox="0 0 20 20">
  <path id="administer" d="M17.671,18.083a1.969,1.969,0,1,0,1.97,1.969A1.972,1.972,0,0,0,17.671,18.083Zm0,2.923a.954.954,0,1,1,.955-.954A.956.956,0,0,1,17.671,21.006Zm5.21-1.983a.694.694,0,0,0-.646-.642H22.19a1.116,1.116,0,0,1-1.116-1.114,1.266,1.266,0,0,1,.1-.422.817.817,0,0,0-.3-1l-1.3-.722a.824.824,0,0,0-.328-.067.881.881,0,0,0-.624.256,1.7,1.7,0,0,1-.891.513,1.7,1.7,0,0,1-.9-.522.88.88,0,0,0-.63-.262.807.807,0,0,0-.321.064l-.024.01-1.327.728-.032.02a.807.807,0,0,0-.275.975,1.286,1.286,0,0,1,.1.425A1.116,1.116,0,0,1,13.2,18.381h-.052a.694.694,0,0,0-.638.642,6.585,6.585,0,0,0-.11,1.035,6.6,6.6,0,0,0,.11,1.036.694.694,0,0,0,.646.642H13.2a1.117,1.117,0,0,1,1.116,1.114,1.268,1.268,0,0,1-.1.422.818.818,0,0,0,.3,1l1.28.713a.82.82,0,0,0,.328.067.867.867,0,0,0,.631-.269,1.727,1.727,0,0,1,.911-.545,1.714,1.714,0,0,1,.917.557.868.868,0,0,0,.635.273.838.838,0,0,0,.355-.08l1.294-.714.031-.02a.806.806,0,0,0,.275-.974,1.286,1.286,0,0,1-.1-.425,1.116,1.116,0,0,1,1.116-1.114h.051a.693.693,0,0,0,.639-.641,6.634,6.634,0,0,0,.11-1.036A6.634,6.634,0,0,0,22.88,19.023Zm-.97,1.716a2.09,2.09,0,0,0-1.738,2.755l-.934.516a3.74,3.74,0,0,0-.384-.328,2.03,2.03,0,0,0-1.188-.462,2.03,2.03,0,0,0-1.179.453,3.756,3.756,0,0,0-.382.322l-.893-.5a2.09,2.09,0,0,0-1.738-2.757,4.939,4.939,0,0,1-.065-.681,4.882,4.882,0,0,1,.065-.681,2.09,2.09,0,0,0,1.738-2.755l.964-.528a3.708,3.708,0,0,0,.383.314,2.032,2.032,0,0,0,1.159.435,2.031,2.031,0,0,0,1.15-.426,3.663,3.663,0,0,0,.38-.308l.923.512a2.09,2.09,0,0,0,1.738,2.756,4.92,4.92,0,0,1,.065.681A4.9,4.9,0,0,1,21.911,20.739Zm-17.6,2.883V22.507a7.332,7.332,0,0,1,6.654-7.267h.008c.229-.021.46-.033.694-.033l.105,0a5.067,5.067,0,0,0,2.724-.839l.319-.248a5.032,5.032,0,0,0,1.961-3.986,5.11,5.11,0,0,0-10.22,0,5.032,5.032,0,0,0,1.961,3.986l.319.248-.376.149A8.57,8.57,0,0,0,2.99,22.507v1.767a.656.656,0,0,0,.658.652h9.622a6.652,6.652,0,0,1-.8-1.3ZM7.869,10.135A3.793,3.793,0,1,1,11.662,13.9,3.784,3.784,0,0,1,7.869,10.135Z" transform="translate(-2.99 -5.064)" fill="#515151"/>
</svg>
