<svg id="contacts-checked" xmlns="http://www.w3.org/2000/svg" xmlns:xlink="http://www.w3.org/1999/xlink" width="60" height="39" viewBox="0 0 60 39">
  <defs>
    <clipPath id="clip-path">
      <rect id="矩形_43" data-name="矩形 43" width="20" height="20" fill="#007bff"/>
    </clipPath>
  </defs>
  <rect id="矩形-联系人" width="60" height="39" fill="none"/>
  <g id="组-联系人" transform="translate(20)">
    <g id="组_22" data-name="组 22" clip-path="url(#clip-path)">
      <path id="路径_18" data-name="路径 18" d="M7.587,1.141a6.138,6.138,0,0,1,5.854,6.388,6.517,6.517,0,0,1-2.88,5.5,8.3,8.3,0,0,1,4.6,6.114.811.811,0,0,1-.215.744.659.659,0,0,1-.7.153.752.752,0,0,1-.461-.6,6.508,6.508,0,0,0-6.048-5.529l-.139,0H7.568A6.491,6.491,0,0,0,1.39,19.446a.706.706,0,0,1-.825.592.766.766,0,0,1-.552-.894,8.3,8.3,0,0,1,4.6-6.112,6.517,6.517,0,0,1-2.881-5.5A6.138,6.138,0,0,1,7.587,1.141M13.207.119A5.648,5.648,0,0,1,18.592,6a6.068,6.068,0,0,1-2.183,4.727l-.052.041A7.364,7.364,0,0,1,20,17.239a.705.705,0,1,1-1.4,0,5.7,5.7,0,0,0-4.144-5.623.786.786,0,0,1-.015-1.487l-.027.01A4.323,4.323,0,0,0,17.187,6a4.509,4.509,0,0,0-1.456-3.36,3.738,3.738,0,0,0-3.3-.9.707.707,0,0,1-.826-.6.767.767,0,0,1,.553-.9A4.962,4.962,0,0,1,13.207.119M7.587,2.674A4.665,4.665,0,0,0,3.139,7.529a4.665,4.665,0,0,0,4.449,4.855H7.6a4.667,4.667,0,0,0,4.44-4.865A4.663,4.663,0,0,0,7.587,2.674" transform="translate(0 -0.115)" fill="#007bff"/>
    </g>
  </g>
  <text id="联系人" transform="translate(30 36)" fill="#007bff" font-size="12" font-family="MicrosoftYaHei, Microsoft YaHei" letter-spacing="0.2em"><tspan x="-20.4" y="0">联系人</tspan></text>
</svg>
