<?xml version="1.0" encoding="utf-8"?>
<!-- Generator: Adobe Illustrator 26.0.3, SVG Export Plug-In . SVG Version: 6.00 Build 0)  -->
<svg version="1.1" id="图层_1" xmlns="http://www.w3.org/2000/svg" xmlns:xlink="http://www.w3.org/1999/xlink" x="0px" y="0px"
	 viewBox="0 0 128 128" style="enable-background:new 0 0 128 128;" xml:space="preserve">
<style type="text/css">
	.st0{fill:#4E4E4E;}
</style>
<path class="st0" d="M49.1,11.9c20.6,0,37.2,16.7,37.2,37.2c0,13.7-7.4,25.6-18.3,32.1c14.8,6.2,26,19.3,29.3,35.6
	c0.6,2.4-0.9,4.8-3.3,5.4c-2.4,0.6-4.8-0.9-5.4-3.3c0-0.1,0-0.2-0.1-0.3C84.8,100.3,68.8,86.8,50,86.3l-0.9,0l-0.1,0h-0.1
	C29.8,86.4,13.4,100,9.6,118.6c-0.5,2.4-2.9,4-5.3,3.4c-2.4-0.5-3.9-2.8-3.5-5.2c3.3-16.3,14.5-29.5,29.3-35.6
	c-11.4-6.7-18.3-18.9-18.3-32.1C11.8,28.5,28.5,11.9,49.1,11.9z M84.8,5.9c18.9,0,34.3,15.3,34.3,34.3c0,11.1-5.4,21.2-13.9,27.6
	l-0.3,0.2c14,7.2,23.2,21.4,23.2,37.7c0,2.5-2,4.5-4.5,4.5s-4.5-2-4.5-4.5c0-15.8-10.9-29.1-26.4-32.8c-2.4-0.6-3.9-3-3.3-5.4
	c0.4-1.6,1.6-2.9,3.2-3.3l-0.2,0.1c10.5-3.3,17.7-13.1,17.7-24.2c0-14-11.3-25.3-25.3-25.3c-1.7,0-3.3,0.2-5,0.5
	c-2.4,0.5-4.8-1.1-5.3-3.5s1.1-4.8,3.5-5.3C80.3,6.1,82.5,5.9,84.8,5.9z M49.1,20.8c-15.6,0-28.3,12.7-28.3,28.3
	c0,15.6,12.7,28.3,28.3,28.3l-0.1,0l0.1,0h0.1c15.6,0,28.3-12.7,28.2-28.4C77.4,33.4,64.7,20.8,49.1,20.8z"/>
</svg>
