<svg xmlns="http://www.w3.org/2000/svg" width="127.364" height="116.432" viewBox="0 0 127.364 116.432">
  <path id="contact-select" d="M49.1,11.9A37.238,37.238,0,0,1,68,81.2a49.188,49.188,0,0,1,29.3,35.6,4.475,4.475,0,1,1-8.7,2.1.367.367,0,0,0-.1-.3A40.443,40.443,0,0,0,50,86.3H48.9A40.432,40.432,0,0,0,9.6,118.6,4.388,4.388,0,0,1,4.3,122a4.5,4.5,0,0,1-3.5-5.2A49.007,49.007,0,0,1,30.1,81.2a37.238,37.238,0,0,1,19-69.3Zm35.7-6a34.317,34.317,0,0,1,20.4,61.9l-.3.2a42.258,42.258,0,0,1,23.2,37.7,4.5,4.5,0,1,1-9,0c0-15.8-10.9-29.1-26.4-32.8a4.492,4.492,0,0,1-.1-8.7l-.2.1a25.34,25.34,0,0,0-7.6-49.5,28.251,28.251,0,0,0-5,.5A4.491,4.491,0,1,1,78,6.5,39.06,39.06,0,0,1,84.8,5.9ZM49.1,20.8a28.3,28.3,0,1,0,0,56.6h.1a28.3,28.3,0,0,0-.1-56.6Z" transform="translate(-0.736 -5.9)" fill="#007bff"/>
</svg>
