<svg xmlns="http://www.w3.org/2000/svg" width="34" height="22" viewBox="0 0 34 22">
  <path id="group-head" d="M24.438,141.075l-.85,1.453a8.156,8.156,0,0,1,4.25,7.264h1.7A10.143,10.143,0,0,0,24.438,141.075ZM16.788,128a6.864,6.864,0,0,0-3.612,12.66,9.955,9.955,0,0,0-6.8,9.34h1.7A8.84,8.84,0,0,1,17,141.491a6.994,6.994,0,0,0,7.013-6.849C24.013,130.906,20.613,128,16.788,128Zm0,11.83a4.983,4.983,0,1,1,5.1-4.981A4.85,4.85,0,0,1,16.788,139.83Zm12.538-4.151a5.423,5.423,0,0,0-5.525-5.4c.212.415.637,1.038.85,1.453a4.02,4.02,0,0,1,3.188,3.943,4.214,4.214,0,0,1-4.25,4.151,9.09,9.09,0,0,1-1.275,1.453c.425,0,.85-.208,1.275-.208A5.612,5.612,0,0,0,29.325,135.679Zm.637,4.981-.637,1.245a6.848,6.848,0,0,1,3.4,5.811H34A8.057,8.057,0,0,0,29.963,140.66ZM0,147.717H1.488a6.364,6.364,0,0,1,3.4-5.811l-.85-1.245A8.057,8.057,0,0,0,0,147.717Zm11.475-6.641a9.09,9.09,0,0,1-1.275-1.453,4.1,4.1,0,0,1-1.063-8.094,3.327,3.327,0,0,0,.85-1.453,5.4,5.4,0,1,0,0,10.792A4.241,4.241,0,0,0,11.475,141.075Z" transform="translate(0 -128)" fill="#515151"/>
</svg>
