<?xml version="1.0" encoding="utf-8"?>
<!-- Generator: Adobe Illustrator 26.0.2, SVG Export Plug-In . SVG Version: 6.00 Build 0)  -->
<svg version="1.1" id="logo" xmlns="http://www.w3.org/2000/svg" xmlns:xlink="http://www.w3.org/1999/xlink" x="0px"
  y="0px" viewBox="0 0 60 60" style="enable-background:new 0 0 60 60;" xml:space="preserve">
  <style type="text/css">
    .st0 {
      fill: #6E6E96;
    }

    .st1 {
      fill: #E5C0A8;
    }

    .st2 {
      clip-path: url(#SVGID_00000080927693326367543550000013843456999808215683_);
    }

    .st3 {
      clip-path: url(#SVGID_00000014636634766675186540000017140694217113555118_);
    }

    .st4 {
      fill: #FFDAC1;
    }

    .st5 {
      clip-path: url(#SVGID_00000166643744627801655710000013570231365417749941_);
    }
  </style>
  <g id="组_189" transform="translate(0 7)">
    <path id="路径_94" class="st0" d="M23.6,47.7h14.1L52.9,0.5L23.6,47.7z" />
    <path id="路径_95" class="st1" d="M18.4,31.2L24,46.8L53.6-0.9L18.4,31.2z" />
    <g id="组_184">
      <g>
        <defs>
          <rect id="SVGID_1_" x="5" y="-2" width="50" height="50" />
        </defs>
        <clipPath id="SVGID_00000054961225550777751910000016785257013007112593_">
          <use xlink:href="#SVGID_1_" style="overflow:visible;" />
        </clipPath>
        <g id="组_183" style="clip-path:url(#SVGID_00000054961225550777751910000016785257013007112593_);">
          <path id="路径_96" class="st0" d="M25,47.8c-0.4,0-0.7-0.2-0.9-0.6l-5.5-15.6c-0.1-0.3,0-0.7,0.2-1L53-1.6
					c0.3-0.3,0.9-0.3,1.2-0.1c0.4,0.3,0.5,0.8,0.2,1.2L25.8,47.3C25.7,47.6,25.4,47.8,25,47.8 M20.7,31.5l4.6,13.2L49.4,4.3
					L20.7,31.5z" />
        </g>
      </g>
    </g>
    <g id="组_186" transform="translate(0)">
      <g>
        <defs>
          <rect id="SVGID_00000168114117098189575660000005602199952110493084_" x="5" y="-2" width="50" height="50" />
        </defs>
        <clipPath id="SVGID_00000049180483787512728250000000844640705432217483_">
          <use xlink:href="#SVGID_00000168114117098189575660000005602199952110493084_" style="overflow:visible;" />
        </clipPath>
        <g id="组_185" style="clip-path:url(#SVGID_00000049180483787512728250000000844640705432217483_);">
          <path id="路径_97" class="st4" d="M5.9,25.2L53.7-0.9L19.6,31.2L5.9,25.2z" />
          <path id="路径_98" class="st0" d="M19.6,32.1c-0.1,0-0.3,0-0.4-0.1L5.6,26c-0.5-0.2-0.7-0.7-0.5-1.2c0.1-0.2,0.2-0.3,0.4-0.4
					L53.2-1.7c0.3-0.2,0.6-0.3,1-0.2c0.5,0.2,0.7,0.7,0.5,1.2c-0.1,0.2-0.2,0.4-0.4,0.5L20.2,31.9C20,32.1,19.8,32.1,19.6,32.1
					 M8,25.1l11.4,5L47.8,3.3L8,25.1z" />
        </g>
      </g>
    </g>
    <g id="组_188">
      <g>
        <defs>
          <rect id="SVGID_00000166670678437902705210000005282487301743187078_" x="5" y="-2" width="50" height="50" />
        </defs>
        <clipPath id="SVGID_00000014634645917728198590000001099255996596818561_">
          <use xlink:href="#SVGID_00000166670678437902705210000005282487301743187078_" style="overflow:visible;" />
        </clipPath>
        <g id="组_187" style="clip-path:url(#SVGID_00000014634645917728198590000001099255996596818561_);">
          <path id="路径_99" class="st4" d="M53.7-0.9L25.1,33.5l22,8.5L53.7-0.9z" />
          <path id="路径_100" class="st0" d="M47,42.9c-0.1,0-0.2,0-0.3-0.1l-22-8.5c-0.5-0.2-0.7-0.7-0.5-1.2c0-0.1,0.1-0.2,0.2-0.3
					L53-1.5c0.3-0.3,0.7-0.4,1.1-0.3c0.4,0.2,0.6,0.6,0.5,1l-6.7,42.9c0,0.3-0.2,0.5-0.5,0.7C47.3,42.8,47.2,42.9,47,42.9
					 M26.6,33.1l19.7,7.6l6-38.4L26.6,33.1z" />
          <path id="路径_101" class="st0" d="M25.1,47.8c-0.5,0-0.9-0.4-0.9-0.9V33.5c0-0.5,0.4-0.9,0.9-0.9c0.5,0,0.9,0.4,0.9,0.9v13.4
					C26,47.4,25.6,47.8,25.1,47.8L25.1,47.8" />
          <path id="路径_102" class="st0"
            d="M53.7-0.9L29.8,34.3l-3.2-1.2L53.7-0.9z M24.6,33.5l4,5.5l1.7-2.8L24.6,33.5z" />
        </g>
      </g>
    </g>
  </g>
</svg>