<svg id="logo" xmlns="http://www.w3.org/2000/svg" xmlns:xlink="http://www.w3.org/1999/xlink" width="60" height="60" viewBox="0 0 60 60">
  <defs>
    <clipPath id="clip-path">
      <rect id="矩形_121" data-name="矩形 121" width="50" height="50" fill="none"/>
    </clipPath>
  </defs>
  <g id="椭圆_10" data-name="椭圆 10" fill="#fff" stroke="#707070" stroke-width="1">
    <circle cx="30" cy="30" r="30" stroke="none"/>
    <circle cx="30" cy="30" r="29.5" fill="none"/>
  </g>
  <g id="组_189" data-name="组 189" transform="translate(0 7)">
    <path id="路径_94" data-name="路径 94" d="M307.13,85.13h14.1L336.4,37.958Z" transform="translate(-288.506 -35.45)" fill="#6e6e96"/>
    <path id="路径_95" data-name="路径 95" d="M228.052,48.968,233.7,64.585l29.6-47.709Z" transform="translate(-214.652 -15.761)" fill="#e5c0a8"/>
    <g id="组_184" data-name="组 184">
      <g id="组_183" data-name="组 183" clip-path="url(#clip-path)">
        <path id="路径_96" data-name="路径 96" d="M219.9,51.962a.93.93,0,0,1-.879-.621l-5.467-15.646a.92.92,0,0,1,.239-.973L247.9,2.57a.935.935,0,0,1,1.222-.052.92.92,0,0,1,.218,1.2L220.7,51.511a.931.931,0,0,1-.8.452m-4.391-16.31,4.614,13.207L244.3,8.514Z" transform="translate(-199.856 -2.168)" fill="#6e6e96"/>
      </g>
    </g>
    <g id="组_186" data-name="组 186" transform="translate(0)">
      <g id="组_185" data-name="组 185" clip-path="url(#clip-path)">
        <path id="路径_97" data-name="路径 97" d="M14.548,43,62.306,16.876,28.2,49.027Z" transform="translate(-13.618 -15.804)" fill="#ffdac1"/>
        <path id="路径_98" data-name="路径 98" d="M14.581,34.277a.934.934,0,0,1-.378-.08L.553,28.168a.922.922,0,0,1-.071-1.655L48.24.391A.935.935,0,0,1,49.22.2a.922.922,0,0,1,.11,1.67L15.221,34.023a.933.933,0,0,1-.641.254M3.021,27.235l11.37,5.022L42.8,5.476Z" transform="translate(0 -0.129)" fill="#6e6e96"/>
      </g>
    </g>
    <g id="组_188" data-name="组 188">
      <g id="组_187" data-name="组 187" clip-path="url(#clip-path)">
        <path id="路径_99" data-name="路径 99" d="M342.372,16.876,313.743,51.265l21.968,8.475Z" transform="translate(-293.683 -15.804)" fill="#ffdac1"/>
        <path id="路径_100" data-name="路径 100" d="M322.084,47.044a.936.936,0,0,1-.337-.063L299.78,38.507a.921.921,0,0,1-.38-1.451l28.63-34.389a.935.935,0,0,1,1.1-.253.924.924,0,0,1,.539.984L323,46.261a.927.927,0,0,1-.454.66.942.942,0,0,1-.466.123m-20.429-9.8,19.686,7.595,5.97-38.413Z" transform="translate(-280.057 -2.184)" fill="#6e6e96"/>
        <path id="路径_101" data-name="路径 101" d="M300.122,558.926a.928.928,0,0,1-.93-.924V544.593a.93.93,0,0,1,1.861,0V558a.927.927,0,0,1-.93.924" transform="translate(-280.063 -509.132)" fill="#6e6e96"/>
        <path id="路径_102" data-name="路径 102" d="M336.182,16.876,312.3,52.106l-3.211-1.239ZM307.13,51.265l4.038,5.549,1.663-2.775Z" transform="translate(-287.493 -15.804)" fill="#6e6e96"/>
      </g>
    </g>
  </g>
</svg>
