<svg id="message-select" xmlns="http://www.w3.org/2000/svg" width="128" height="127.957" viewBox="0 0 128 127.957">
  <path id="路径_168" data-name="路径 168" d="M64,0C28.8,0,0,24.5,0,55.1v1c.4,20.7,14.1,39,34.8,48.1l.7.3v18.9a4.986,4.986,0,0,0,7.9,3.6l22.3-16.8h.4c34.2-1,61.9-25.1,61.9-55.1C128,24.5,99.2,0,64,0Zm0,9.9c30.1,0,54.1,20.5,54.1,45.3s-24,45.2-54.1,45.2h-.5a4.589,4.589,0,0,0-2.5,1L45.3,113.2v-12a4.879,4.879,0,0,0-3.2-4.6C22.6,89.3,9.9,73.1,9.9,55.1,9.9,30.3,33.9,9.9,64,9.9Z" fill="#007bff"/>
  <path id="路径_169" data-name="路径 169" d="M32,59.1a4.986,4.986,0,0,1,4.4,2.7l-.2-.3A28.635,28.635,0,0,0,60,75.1h.9v9.8c-13.5,0-25-6.4-32.5-17.4l-.5-.8h0a4.866,4.866,0,0,1,1.4-6.8A5.029,5.029,0,0,1,32,59.1Z" fill="#007bff"/>
</svg>
