<?xml version="1.0" encoding="utf-8"?>
<!-- Generator: Adobe Illustrator 26.0.3, SVG Export Plug-In . SVG Version: 6.00 Build 0)  -->
<svg version="1.1" id="图层_1" xmlns="http://www.w3.org/2000/svg" xmlns:xlink="http://www.w3.org/1999/xlink" x="0px" y="0px"
	 viewBox="0 0 128 128" style="enable-background:new 0 0 128 128;" xml:space="preserve">
<style type="text/css">
	.st0{fill:#515151;}
</style>
<path class="st0" d="M64,0C28.8,0,0,24.5,0,55.1l0,1c0.4,20.7,14.1,39,34.8,48.1l0.7,0.3v18.5l0,0.4c0.3,3.8,4.7,5.9,7.9,3.6
	l22.3-16.8l0.4,0c34.2-1,61.9-25.1,61.9-55.1C128,24.5,99.2,0,64,0z M64,9.9c30.1,0,54.1,20.5,54.1,45.3S94.1,100.4,64,100.4l-0.5,0
	c-0.9,0.1-1.8,0.4-2.5,1l-15.7,11.8v-12c0-2.1-1.3-3.9-3.2-4.6C22.6,89.3,9.9,73.1,9.9,55.1C9.9,30.3,33.9,9.9,64,9.9z"/>
<path class="st0" d="M32,59.1c1.8,0,3.5,1,4.4,2.7l-0.2-0.3C41.6,69.9,50,74.8,60,75.1l0.9,0v9.8c-13.5,0-25-6.4-32.5-17.4l-0.5-0.8
	l0,0c-1.5-2.3-0.9-5.3,1.4-6.8C30.1,59.4,31,59.1,32,59.1z"/>
</svg>
