<?xml version="1.0" encoding="utf-8"?>
<!-- Generator: Adobe Illustrator 26.0.3, SVG Export Plug-In . SVG Version: 6.00 Build 0)  -->
<svg version="1.1" id="图层_1" xmlns="http://www.w3.org/2000/svg" xmlns:xlink="http://www.w3.org/1999/xlink" x="0px" y="0px"
	 viewBox="0 0 128 128" style="enable-background:new 0 0 128 128;" xml:space="preserve">
<style type="text/css">
	.st0{fill:#515151;}
</style>
<path class="st0" d="M64,0c23.8,0,43.2,19.3,43.2,43.2c0,15.8-8.5,29.7-21.2,37.2c17.1,7.1,30.1,22.4,33.9,41.3
	c0.6,2.8-1.1,5.6-3.9,6.2c-2.8,0.6-5.6-1.1-6.2-3.9c0-0.1,0-0.2-0.1-0.3c-4.3-21.2-22.8-36.8-44.6-37.4l-1,0l-0.1,0h-0.1
	c-22.2,0.1-41.2,15.8-45.6,37.4c-0.6,2.8-3.3,4.6-6.1,4c-2.8-0.6-4.5-3.3-4-6c3.8-18.9,16.8-34.2,33.9-41.3
	c-13.2-7.8-21.2-21.9-21.2-37.2C20.8,19.3,40.1,0,64,0z M64,10.4c-18.1,0-32.8,14.7-32.8,32.8C31.2,61.3,45.9,76,64,76l-0.1,0l0.1,0
	h0.1c18.1,0,32.8-14.8,32.7-32.9S82.1,10.3,64,10.4z"/>
</svg>
