<svg id="nan" xmlns="http://www.w3.org/2000/svg" xmlns:xlink="http://www.w3.org/1999/xlink" width="34" height="34" viewBox="0 0 34 34">
  <defs>
    <clipPath id="clip-path">
      <rect id="矩形_128" data-name="矩形 128" width="34" height="34" fill="rgba(0,0,0,0)"/>
    </clipPath>
    <clipPath id="clip-path-2">
      <path id="路径_107" data-name="路径 107" d="M23.259,105.264a1.523,1.523,0,0,0-.067.686l21.549,0a1.362,1.362,0,0,0-.09-.684c-1.028-2.638-4.963-4.87-10.686-4.87s-9.832,2.225-10.7,4.864" transform="translate(-23.179 -100.4)" fill="rgba(0,0,0,0)"/>
    </clipPath>
  </defs>
  <g id="组_193" data-name="组 193">
    <g id="组_192" data-name="组 192" clip-path="url(#clip-path)">
      <path id="路径_106" data-name="路径 106" d="M44.741,105.953h0a1.365,1.365,0,0,0-.09-.684c-1.028-2.638-4.963-4.87-10.686-4.87s-9.832,2.225-10.7,4.864a1.523,1.523,0,0,0-.067.686Z" transform="translate(-16.612 -71.953)" fill="#98375e"/>
    </g>
  </g>
  <g id="组_195" data-name="组 195" transform="translate(6.567 28.447)">
    <g id="组_194" data-name="组 194" clip-path="url(#clip-path-2)">
      <rect id="矩形_129" data-name="矩形 129" width="2.259" height="14.874" transform="translate(2.861 -2.939)" fill="#c05371"/>
      <rect id="矩形_130" data-name="矩形 130" width="1.128" height="14.874" transform="translate(5.475 -2.939)" fill="#c05371"/>
      <rect id="矩形_131" data-name="矩形 131" width="2.259" height="14.874" transform="translate(16.291 -2.941)" fill="#c05371"/>
      <rect id="矩形_132" data-name="矩形 132" width="1.128" height="14.874" transform="translate(14.808 -2.941)" fill="#c05371"/>
    </g>
  </g>
  <g id="组_197" data-name="组 197">
    <g id="组_196" data-name="组 196" clip-path="url(#clip-path)">
      <path id="路径_108" data-name="路径 108" d="M51.858,75.112h4.771v7.032A2.131,2.131,0,0,1,54.5,84.275h-.509a2.131,2.131,0,0,1-2.131-2.131Z" transform="translate(-37.165 -53.83)" fill="#fdcc9b"/>
      <path id="路径_109" data-name="路径 109" d="M51.295,90.094l4.93-.085v1.1a8.222,8.222,0,0,1-4.93-1.015Z" transform="translate(-36.761 -64.506)" fill="#fcbc85"/>
      <path id="路径_110" data-name="路径 110" d="M23.769,50.41h16.1a3.09,3.09,0,0,1,3.09,3.09h0a3.09,3.09,0,0,1-3.09,3.09h-16.1a3.09,3.09,0,0,1-3.09-3.09h0a3.09,3.09,0,0,1,3.09-3.09" transform="translate(-14.82 -36.127)" fill="#fcbc85"/>
      <path id="路径_111" data-name="路径 111" d="M46.649,32.125c0,5.355-1.128,9.906-8.922,9.906s-8.905-4.551-8.905-9.906,3.985-9.7,8.913-9.7,8.915,4.342,8.915,9.7" transform="translate(-20.656 -16.074)" fill="#fdcc9b"/>
      <path id="路径_112" data-name="路径 112" d="M41.1,46.891c.575,0,1.4.419,1.4.241a1.421,1.421,0,0,0-2.8,0c0,.168.826-.241,1.4-.241" transform="translate(-28.454 -32.929)" fill="#401900"/>
      <path id="路径_113" data-name="路径 113" d="M41.837,54.659a1.11,1.11,0,1,1-1.135,1.11,1.122,1.122,0,0,1,1.135-1.11" transform="translate(-29.17 -39.172)" fill="#3b2519"/>
      <path id="路径_114" data-name="路径 114" d="M41.949,55.54a.389.389,0,1,1-.455.384.424.424,0,0,1,.455-.384" transform="translate(-29.737 -39.804)" fill="#fff"/>
      <path id="路径_115" data-name="路径 115" d="M71.835,46.891c.577,0,1.4.419,1.4.241a1.421,1.421,0,0,0-2.8,0c0,.168.825-.241,1.4-.241" transform="translate(-50.478 -32.929)" fill="#401900"/>
      <path id="路径_116" data-name="路径 116" d="M72.565,54.659a1.11,1.11,0,1,1-1.135,1.11,1.122,1.122,0,0,1,1.135-1.11" transform="translate(-51.192 -39.172)" fill="#3b2519"/>
      <path id="路径_117" data-name="路径 117" d="M72.684,55.54a.389.389,0,1,1-.455.384.424.424,0,0,1,.455-.384" transform="translate(-51.764 -39.804)" fill="#fff"/>
      <path id="路径_118" data-name="路径 118" d="M56.663,70.924c-.629,0-1.319-.459-1.319-.375,0,.589.591.856,1.319.856s1.317-.266,1.317-.856c0-.084-.692.375-1.317.375" transform="translate(-39.663 -50.553)" fill="#fcbc85"/>
      <path id="路径_119" data-name="路径 119" d="M56.86,83.058a6.208,6.208,0,0,1-1.242-.233c0,.233.556.419,1.242.419s1.24-.191,1.24-.419a5.694,5.694,0,0,1-1.24.233" transform="translate(-39.86 -59.358)" fill="#fcbc85"/>
      <path id="路径_120" data-name="路径 120" d="M53.364,79.2a13.419,13.419,0,0,1-2.624-.474c0,.476,1.174.864,2.624.864s2.622-.388,2.622-.864a13.481,13.481,0,0,1-2.622.474" transform="translate(-36.364 -56.415)" fill="#f7945e"/>
    </g>
  </g>
  <g id="组_199" data-name="组 199" transform="translate(6.567 28.447)">
    <g id="组_198" data-name="组 198" clip-path="url(#clip-path-2)">
      <path id="路径_121" data-name="路径 121" d="M52.086,88.3A2.83,2.83,0,1,0,55.3,91.1a3.03,3.03,0,0,0-3.209-2.8m0,5.034a2.243,2.243,0,1,1,2.542-2.222,2.4,2.4,0,0,1-2.542,2.222Z" transform="translate(-41.595 -91.728)" fill="#c05371"/>
    </g>
  </g>
  <g id="组_201" data-name="组 201">
    <g id="组_200" data-name="组 200" clip-path="url(#clip-path)">
      <path id="路径_123" data-name="路径 123" d="M21.975,9.042C22.517,2.727,27.647,0,32.751,0S42.985,2.727,43.528,9.042s-1.084,11.309-1.963,10.7.466-8.832-2.269-8.32c-4.314.814-11.575-2.775-11.575-2.775a4.033,4.033,0,0,1-1.678,3.223c-3.312,2.081-1.225,7.271-2.1,7.877s-2.514-4.4-1.971-10.7" transform="translate(-15.672)" fill="#342620" fill-rule="evenodd"/>
      <path id="路径_124" data-name="路径 124" d="M50.759,86.839a6.048,6.048,0,0,0-2.412-.646h-.054a5.963,5.963,0,0,0-2.412.646c-.7.248-2.565-.449-2.4,0s2.108,1.441,4.811,1.455h.046c2.7-.015,4.647-1.011,4.811-1.455s-1.665.252-2.391,0" transform="translate(-31.154 -61.772)" fill="#342620" fill-rule="evenodd"/>
    </g>
  </g>
</svg>
