<svg xmlns="http://www.w3.org/2000/svg" width="20" height="20" viewBox="0 0 20 20">
  <g id="notice" transform="translate(-28.187 0.001)">
    <path id="路径_147" data-name="路径 147" d="M106.688,14.434,105.3,13.422a.89.89,0,0,1-.376-.722V8.036a5.687,5.687,0,0,0-.507-2.354,6.018,6.018,0,0,0-1.381-1.922,6.452,6.452,0,0,0-2.049-1.3,6.773,6.773,0,0,0-.834-.269V1.57a1.679,1.679,0,0,0-3.352,0v.624a6.828,6.828,0,0,0-.834.269,6.464,6.464,0,0,0-2.049,1.3,6.015,6.015,0,0,0-1.381,1.922,5.694,5.694,0,0,0-.507,2.354V12.7a.89.89,0,0,1-.376.722l-1.387,1.012a1.455,1.455,0,0,0-.554.781,1.384,1.384,0,0,0,.033.859,1.477,1.477,0,0,0,.536.7,1.625,1.625,0,0,0,.948.3h14.494a1.627,1.627,0,0,0,.948-.3,1.479,1.479,0,0,0,.536-.7,1.385,1.385,0,0,0,.033-.859A1.456,1.456,0,0,0,106.688,14.434Zm-2.142-.1,1.387,1.011a.3.3,0,0,1,.113.355.329.329,0,0,1-.321.215H91.23a.329.329,0,0,1-.321-.215.3.3,0,0,1,.112-.355l1.387-1.011A2.012,2.012,0,0,0,93.26,12.7V8.036a5.228,5.228,0,0,1,10.434,0V12.7A2.014,2.014,0,0,0,104.546,14.333ZM98.477,1.153a.432.432,0,0,1,.445.417v.355h-.89V1.571A.433.433,0,0,1,98.477,1.153Z" transform="translate(-60.29)" fill="#515151"/>
    <path id="路径_148" data-name="路径 148" d="M406.366,914.346a2.033,2.033,0,0,0,4.065,0v-.078h-4.065Z" transform="translate(-370.211 -896.379)" fill="#515151"/>
    <path id="路径_149" data-name="路径 149" d="M32.323,77.212a.567.567,0,0,0-.713-.881,9.345,9.345,0,0,0-3.42,6.241.567.567,0,0,0,.5.626.541.541,0,0,0,.063,0,.566.566,0,0,0,.563-.5A8.177,8.177,0,0,1,32.323,77.212Z" transform="translate(0 -74.74)" fill="#515151"/>
    <path id="路径_150" data-name="路径 150" d="M774.231,82.543a9.263,9.263,0,0,0-1.114-3.5,9.362,9.362,0,0,0-2.305-2.743.567.567,0,0,0-.92.5.562.562,0,0,0,.207.381,8.173,8.173,0,0,1,3.006,5.485.566.566,0,0,0,.563.5.538.538,0,0,0,.063,0,.567.567,0,0,0,.5-.626Z" transform="translate(-726.047 -74.711)" fill="#515151"/>
  </g>
</svg>
