<svg xmlns="http://www.w3.org/2000/svg" xmlns:xlink="http://www.w3.org/1999/xlink" width="70" height="70" viewBox="0 0 70 70">
  <defs>
    <clipPath id="clip-path">
      <rect id="矩形_2" data-name="矩形 2" width="70" height="70" fill="#fff" stroke="#707070" stroke-width="1"/>
    </clipPath>
    <clipPath id="clip-path-2">
      <path id="路径_177" data-name="路径 177" d="M61.056,111.908h0a2.781,2.781,0,0,0-.18-1.395c-2.1-5.382-10.122-9.934-21.8-9.934s-20.067,4.55-21.817,9.93a3.106,3.106,0,0,0-.137,1.4H61.056Z" transform="translate(-17.099 -100.579)" fill="none"/>
    </clipPath>
  </defs>
  <g id="nv" transform="translate(-77 -219)">
    <g id="蒙版组_13" data-name="蒙版组 13" transform="translate(77 219)" clip-path="url(#clip-path)">
      <g id="图层_2" data-name="图层 2" transform="translate(2.916 0)">
        <g id="图层_1" data-name="图层 1" transform="translate(0 0)">
          <path id="路径_165" data-name="路径 165" d="M21.408,64.283H57.685l-.308,7.273a9.6,9.6,0,0,0,.552,3.572c.676,1.908,1.326,5.181-1.129,7.051,0,0,2.969,3.4.915,6.845,0,0,5.308,2.1,2.952,7.594H18.073s-2.5-5.133,2.952-7.594c0,0-2.52-3.2.915-6.845,0,0-3.483-2.635-.338-8.983a5.823,5.823,0,0,0,.573-3.422Z" transform="translate(-7.291 -26.785)" fill="#703910"/>
          <path id="路径_166" data-name="路径 166" d="M61.056,111.908h0a2.781,2.781,0,0,0-.18-1.395c-2.1-5.382-10.122-9.934-21.8-9.934s-20.067,4.55-21.817,9.93a3.106,3.106,0,0,0-.137,1.4H61.056Z" transform="translate(-7.124 -41.908)" fill="#d85b72"/>
          <rect id="矩形_38" data-name="矩形 38" width="42.586" height="12.608" rx="6.304" transform="translate(9.952 29.464)" fill="#fcbc85"/>
          <path id="路径_167" data-name="路径 167" d="M45.471,75.541H55.2v14.35a4.346,4.346,0,0,1-4.346,4.346h-1.04a4.346,4.346,0,0,1-4.346-4.355Z" transform="translate(-18.945 -31.476)" fill="#fdcc9b"/>
          <path id="路径_168" data-name="路径 168" d="M44.914,90.475,54.972,90.3v2.242a16.758,16.758,0,0,1-10.058-2.067Z" transform="translate(-18.713 -37.625)" fill="#fcbc85"/>
          <path id="路径_169" data-name="路径 169" d="M59.014,43.091c0,10.922-7.175,20.206-18.2,20.206s-18.2-9.267-18.2-20.206,8.15-19.761,18.2-19.761S59.014,32.186,59.014,43.091Z" transform="translate(-9.42 -9.721)" fill="#fdcc9b"/>
          <path id="路径_170" data-name="路径 170" d="M35.157,49.134c1.857,0,4.518.792,4.518.467,0-1.258-2.024-2.28-4.518-2.28s-4.522,1.023-4.522,2.28C30.635,49.925,33.3,49.134,35.157,49.134Z" transform="translate(-12.764 -19.717)" fill="#86461b"/>
          <path id="路径_171" data-name="路径 171" d="M66.195,49.134c1.853,0,4.518.792,4.518.467,0-1.258-2.024-2.28-4.518-2.28s-4.522,1.023-4.522,2.28C61.672,49.925,64.338,49.134,66.195,49.134Z" transform="translate(-25.696 -19.717)" fill="#86461b"/>
          <ellipse id="椭圆_57" data-name="椭圆 57" cx="2.528" cy="2.601" rx="2.528" ry="2.601" transform="translate(19.865 31.966)" fill="#3b2519"/>
          <ellipse id="椭圆_58" data-name="椭圆 58" cx="1.014" cy="0.898" rx="1.014" ry="0.898" transform="translate(20.365 32.557)" fill="#fff"/>
          <ellipse id="椭圆_59" data-name="椭圆 59" cx="2.528" cy="2.601" rx="2.528" ry="2.601" transform="translate(37.97 31.966)" fill="#3b2519"/>
          <ellipse id="椭圆_60" data-name="椭圆 60" cx="1.014" cy="0.898" rx="1.014" ry="0.898" transform="translate(38.471 32.557)" fill="#fff"/>
          <path id="路径_172" data-name="路径 172" d="M52.446,73.129c-.911,0-1.921-.856-1.921-.748,0,.753.856,1.365,1.921,1.365s1.917-.612,1.917-1.365C54.36,72.271,53.352,73.129,52.446,73.129Z" transform="translate(-21.051 -30.155)" fill="#fcbc85"/>
          <path id="路径_173" data-name="路径 173" d="M53.115,84.536c-.467,0-.984-.509-.984-.428a1,1,0,0,0,1.963,0C54.1,84.027,53.577,84.536,53.115,84.536Z" transform="translate(-21.72 -35.042)" fill="#fcbc85"/>
          <path id="路径_174" data-name="路径 174" d="M51.129,81.082c-1.789,0-3.765-1.185-3.765-1.039,0,1.044,1.686,1.891,3.765,1.891s3.761-.856,3.761-1.891C54.889,79.9,52.913,81.082,51.129,81.082Z" transform="translate(-19.734 -33.346)" fill="#f7945e"/>
          <circle id="椭圆_61" data-name="椭圆 61" cx="2.46" cy="2.46" r="2.46" transform="translate(17.473 39.616)" fill="#f9aa8d"/>
          <circle id="椭圆_62" data-name="椭圆 62" cx="2.46" cy="2.46" r="2.46" transform="translate(40.499 39.616)" fill="#f9aa8d"/>
          <g id="组_9" data-name="组 9" transform="translate(9.975 58.671)" clip-path="url(#clip-path-2)">
            <path id="路径_175" data-name="路径 175" d="M49.065,88.6c-3.617,0-6.55,2.567-6.55,5.724s2.931,5.724,6.55,5.724,6.546-2.567,6.546-5.724S52.681,88.6,49.065,88.6Zm0,10.267c-2.867,0-5.192-2.032-5.192-4.535S46.2,89.8,49.065,89.8s5.185,2.028,5.185,4.535-2.31,4.526-5.185,4.526Z" transform="translate(-27.689 -95.588)" fill="#f5919d"/>
            <path id="路径_176" data-name="路径 176" d="M52.1,97.433c0,.175.03.355.03.535,0,3.162-2.931,5.724-6.546,5.724s-6.537-2.563-6.537-5.724v-.317l-4.886.081,3.743,12.833H52.2L57.19,97.35Z" transform="translate(-24.208 -99.234)" fill="#f7acba"/>
          </g>
          <path id="路径_178" data-name="路径 178" d="M62.585,54.967c3.551-5.99-1.16-8.908-1.16-8.908,2.1-5.232-1.215-7.128-1.215-7.128.83-2.37,0-3.641,0-3.641,4.454-6.969-1.173-9.562-1.173-9.562,3.7-5.934-1.711-7.859-1.711-7.859,1.536-6.76-5.133-7.547-5.133-7.547A6.3,6.3,0,0,0,46.7,4.49c-2.985-4.8-6.87-2.264-6.87-2.264-4.761-4.625-10.7-.6-10.7-.6A8.211,8.211,0,0,0,19.025,4.489C12.663,4.08,10.7,10.222,10.7,10.222,5.078,12.258,5.562,19.73,5.562,19.73,1.878,23.1,4.369,29.238,4.369,29.238c-3.2,3.388.072,9.029.072,9.029-4.586,3-1.626,7.793-1.626,7.793a6.224,6.224,0,0,0-1.164,8.908c-3.718,5.006,0,8.676,0,8.676-.308,4.423,3.974,4.278,3.974,4.278.885,2.139,3.774,2.1,4.33,2.066a3.114,3.114,0,0,1,.158-.967,11.443,11.443,0,0,1,4.993-5.754c-.475-.83-.561-1.983.783-3.422,1.283-.693-1.5-1.639-.167-3.908.394-.676,3.363-2.721.924-4.813,0,0,1.983-3.068.856-4.083a2.85,2.85,0,0,0-.5-3.4A8.291,8.291,0,0,0,14.93,41.6c2.251-2.5-.453-7.7-.453-7.7,2.772-2.4.6-7.376.6-7.376a4.806,4.806,0,0,0,4.984-4.381c3.239,3.607,6.942.3,6.942.3,3.607,3.174,7.547-.907,7.547-.907,5.788,1.283,6.036-2.867,6.036-2.867.933,3.307,2.508,5.156,4.83,5.279a5.374,5.374,0,0,0,3.166,3.928c-2.186,4.375.3,6.789.3,6.789a3.422,3.422,0,0,0-.15,4.526,5.476,5.476,0,0,0,.257,5.737c-1.93.517-1.822,2.28-1.655,4.083-2.511,1.283.761,4.971,1.108,5.942.569,1.617.317,3.422-1.767,5a1.99,1.99,0,0,1,1.283,2.888,12.96,12.96,0,0,1,5.8,6.178,2.858,2.858,0,0,1,.2.958h.24c4.163,0,4.423-2.062,4.423-2.062,4.835-.372,3.974-4.278,3.974-4.278C66.137,60.452,62.585,54.967,62.585,54.967Z" transform="translate(0.001 -0.001)" fill="#86461b"/>
          <path id="路径_179" data-name="路径 179" d="M36.181,101.46A81.35,81.35,0,0,0,39.3,112.275H36.532s-3.14-6.323-3.624-9.357C33.084,101.584,36.181,101.46,36.181,101.46Z" transform="translate(-13.711 -42.275)" fill="#ba396a"/>
          <path id="路径_180" data-name="路径 180" d="M65.8,101.46a81.022,81.022,0,0,1-3.118,10.815h2.768s3.153-6.323,3.624-9.357C68.9,101.584,65.8,101.46,65.8,101.46Z" transform="translate(-26.118 -42.275)" fill="#ba396a"/>
        </g>
      </g>
    </g>
  </g>
</svg>
