<svg xmlns="http://www.w3.org/2000/svg" width="24" height="24" viewBox="0 0 24 24">
  <g id="set" transform="translate(-74.405 -105.032)">
    <path id="路径_154" data-name="路径 154" d="M338.5,337.8a5.8,5.8,0,1,0,0,11.608,6.075,6.075,0,0,0,1.05-.1,1.091,1.091,0,0,0-.191-2.167,1.112,1.112,0,0,0-.2.019,3.766,3.766,0,0,1-.654.068,3.622,3.622,0,1,1,3.655-3.622,3.37,3.37,0,0,1-.069.645,1.094,1.094,0,0,0,.89,1.27,1.136,1.136,0,0,0,.2.018,1.1,1.1,0,0,0,1.084-.9,5.541,5.541,0,0,0,.1-1.038,5.726,5.726,0,0,0-1.718-4.1A5.862,5.862,0,0,0,338.5,337.8Z" transform="translate(-252.094 -226.577)" fill="#515151"/>
    <path id="路径_155" data-name="路径 155" d="M98.189,114.659a.843.843,0,0,0-.621-.679,4.189,4.189,0,0,1-2.7-2.1,4.617,4.617,0,0,1-.377-3.516.886.886,0,0,0-.246-.906,11.827,11.827,0,0,0-3.9-2.376.776.776,0,0,0-.269-.048.8.8,0,0,0-.6.275,4.039,4.039,0,0,1-6.141,0,.8.8,0,0,0-.869-.227,11.824,11.824,0,0,0-3.9,2.379.894.894,0,0,0-.246.9,4.608,4.608,0,0,1-.374,3.518,4.181,4.181,0,0,1-2.7,2.1.85.85,0,0,0-.621.68,13.091,13.091,0,0,0,0,4.745.843.843,0,0,0,.621.679,4.189,4.189,0,0,1,2.7,2.1,4.609,4.609,0,0,1,.374,3.519.9.9,0,0,0,.247.9,11.844,11.844,0,0,0,3.9,2.376.79.79,0,0,0,.866-.226,4.039,4.039,0,0,1,6.142,0,.8.8,0,0,0,.6.276.813.813,0,0,0,.271-.047,11.845,11.845,0,0,0,3.9-2.377.9.9,0,0,0,.246-.9,4.6,4.6,0,0,1,.376-3.518,4.178,4.178,0,0,1,2.7-2.1.85.85,0,0,0,.621-.679,13.115,13.115,0,0,0,0-4.747Zm-5.778,10.489a9.579,9.579,0,0,1-2.353,1.434,5.3,5.3,0,0,0-7.31,0,9.583,9.583,0,0,1-2.353-1.434,6.053,6.053,0,0,0-.627-4.072,5.576,5.576,0,0,0-3.033-2.61,10.487,10.487,0,0,1,0-2.87,5.577,5.577,0,0,0,3.033-2.61,6.085,6.085,0,0,0,.626-4.072,9.587,9.587,0,0,1,2.353-1.434,5.3,5.3,0,0,0,7.31,0,9.585,9.585,0,0,1,2.353,1.434,6.079,6.079,0,0,0,.624,4.072,5.576,5.576,0,0,0,3.033,2.61,10.675,10.675,0,0,1,.1,1.438,9.956,9.956,0,0,1-.1,1.431,5.577,5.577,0,0,0-3.033,2.609A6.1,6.1,0,0,0,92.411,125.148Z" transform="translate(0 0)" fill="#515151"/>
  </g>
</svg>
