<svg xmlns="http://www.w3.org/2000/svg" xmlns:xlink="http://www.w3.org/1999/xlink" width="170" height="35" viewBox="0 0 170 35">
  <defs>
    <clipPath id="clip-path">
      <rect id="矩形_138" data-name="矩形 138" width="170" height="35" fill="#fff"/>
    </clipPath>
  </defs>
  <g id="talk_left" transform="translate(0 0)">
    <g id="组_205" data-name="组 205" transform="translate(0 0)" clip-path="url(#clip-path)">
      <path id="路径_125" data-name="路径 125" d="M165.413.5H8.488C6.329.5,4.577,2.549,4.577,5.077V29.713c0,2.527,1.752,4.577,3.911,4.577H165.413c2.16,0,3.911-2.049,3.911-4.577V5.077c0-2.527-1.751-4.577-3.911-4.577" transform="translate(0.159 0.106)" fill="#fff"/>
      <path id="矩形_137" data-name="矩形 137" d="M3.781,0H160.966a3.78,3.78,0,0,1,3.78,3.78V30.01a3.78,3.78,0,0,1-3.78,3.78H3.781A3.781,3.781,0,0,1,0,30.009V3.781A3.781,3.781,0,0,1,3.781,0Z" transform="translate(4.736 0.606)" fill="#fff"/>
      <path id="路径_126" data-name="路径 126" d="M9.6.5H.809c1.035,2.421,3.1,3.631,4.139,10.894.12.842-.311,1.54,0,2.421" transform="translate(0.028 0.106)" fill="#fff"/>
      <path id="路径_127" data-name="路径 127" d="M9.6.5H.809c1.035,2.421,3.1,3.631,4.139,10.894.12.842-.311,1.54,0,2.421" transform="translate(0.028 0.106)" fill="#fff"/>
    </g>
  </g>
</svg>
