<svg xmlns="http://www.w3.org/2000/svg" xmlns:xlink="http://www.w3.org/1999/xlink" width="170" height="35" viewBox="0 0 170 35">
  <defs>
    <clipPath id="clip-path">
      <rect id="矩形_126" data-name="矩形 126" width="170" height="35" fill="#007bff"/>
    </clipPath>
  </defs>
  <g id="talk_right" transform="translate(0 0)">
    <g id="组_190" data-name="组 190" transform="translate(0 0)" clip-path="url(#clip-path)">
      <path id="路径_103" data-name="路径 103" d="M4.411.5H161.335c2.16,0,3.911,2.049,3.911,4.577V29.713c0,2.527-1.751,4.577-3.911,4.577H4.411C2.251,34.29.5,32.24.5,29.713V5.077C.5,2.549,2.251.5,4.411.5" transform="translate(0.017 0.106)" fill="#007bff"/>
      <path id="矩形_125" data-name="矩形 125" d="M3.78,0H160.966a3.78,3.78,0,0,1,3.78,3.78V30.009a3.781,3.781,0,0,1-3.781,3.781H3.78A3.78,3.78,0,0,1,0,30.01V3.78A3.78,3.78,0,0,1,3.78,0Z" transform="translate(0.518 0.606)" fill="#007bff"/>
      <path id="路径_104" data-name="路径 104" d="M155,.5h8.794c-1.035,2.421-3.1,3.631-4.139,10.894-.12.842.311,1.54,0,2.421" transform="translate(5.369 0.106)" fill="#007bff"/>
      <path id="路径_105" data-name="路径 105" d="M155,.5h8.794c-1.035,2.421-3.1,3.631-4.139,10.894-.12.842.311,1.54,0,2.421" transform="translate(5.369 0.106)" fill="#007bff"/>
    </g>
  </g>
</svg>
