<svg xmlns="http://www.w3.org/2000/svg" width="24" height="24" viewBox="0 0 24 24">
  <g id="about" transform="translate(-74.672 -64)">
    <path id="路径_156" data-name="路径 156" d="M460.354,292.625a1.226,1.226,0,0,1,1.261,1.118v5.962a1.271,1.271,0,0,1-2.523,0v-5.962A1.226,1.226,0,0,1,460.354,292.625Zm0-4.625a1.682,1.682,0,1,1-1.682,1.682A1.682,1.682,0,0,1,460.354,288Z" transform="translate(-373.682 -217.864)" fill="#515151"/>
    <path id="路径_157" data-name="路径 157" d="M86.672,64a12,12,0,1,1-12,12A11.984,11.984,0,0,1,86.672,64Zm0,2.357A9.623,9.623,0,1,0,93.5,69.176,9.623,9.623,0,0,0,86.672,66.357Z" fill="#515151"/>
  </g>
</svg>
