<?xml version="1.0" encoding="utf-8"?>
<!-- Generator: Adobe Illustrator 26.0.3, SVG Export Plug-In . SVG Version: 6.00 Build 0)  -->
<svg version="1.1" id="图层_1" xmlns="http://www.w3.org/2000/svg" xmlns:xlink="http://www.w3.org/1999/xlink" x="0px" y="0px"
	 viewBox="0 0 32 32" style="enable-background:new 0 0 32 32;" xml:space="preserve">
<style type="text/css">
	.st0{fill:#515151;}
</style>
<path class="st0" d="M1.8,32c-0.7,0-1.1-0.6-1.2-1.1l0-2.8c0-5.7,3.4-10.8,8.8-12.9l0.4-0.1l-0.4-0.3c-2-1.6-3.1-3.9-3.1-6.5
	C6.4,3.7,10.2,0,14.7,0C19.3,0,23,3.7,23,8.2c-0.1,2.6-1.3,4.9-3.2,6.5l-0.5,0.4c-1,0.9-3,1.2-4.5,1.3l-0.2,0c-0.4,0-0.7,0-1.1,0.1
	C7.5,17.1,3,22,3,28v1.7H16l0,0.1c0.3,0.7,0.8,1.4,1.3,2.1l0.1,0.2l-0.2,0H1.8z M14.7,2.3c-3.3,0-6,2.7-6,5.9c0,3.3,2.7,5.9,6,5.9
	c3.3,0,6-2.7,6-5.9C20.6,4.9,17.9,2.3,14.7,2.3z"/>
<path class="st0" d="M21.4,16.2L21.4,16.2 M19.7,14.6L19.2,15c-1,0.9-3,1.2-4.4,1.3h-0.2c-0.4,0-0.7,0-1.1,0.1l0,0l0,0
	C7.5,17,2.9,22,2.9,28v1.8H16c0.3,0.7,0.8,1.4,1.3,2.1H1.8c-0.6,0-1-0.5-1.1-1v-2.8c0-5.7,3.4-10.7,8.7-12.8l0.6-0.2l-0.5-0.4
	c-2-1.6-3.1-3.9-3.1-6.4c0.1-4.5,3.8-8.2,8.3-8.2s8.2,3.6,8.2,8.1C22.8,10.7,21.7,13,19.7,14.6z M14.7,2.2c-3.3,0-6.1,2.7-6.1,6
	s2.7,6,6.1,6c3.3,0,6.1-2.7,6.1-6C20.7,4.9,18,2.2,14.7,2.2z"/>
<g id="set" transform="translate(-74.405 -105.032)">
	<path class="st0" d="M97.7,132.8c-2.2,0-4-1.8-4-4c0-2.2,1.8-4,4-4c0.9,0,2,0.4,3,1c0.8,0.8,1.2,1.8,1.2,2.9c0,0.1,0,0.2-0.1,0.4
		c0,0.1,0,0.2,0,0.3c0,0.3-0.3,0.7-0.8,0.7l-0.1,0c-0.5-0.1-0.8-0.6-0.7-1l0-0.4c0-1.2-1.1-2.3-2.3-2.3c-1.3,0-2.4,1-2.4,2.3
		c0,1.3,1,2.4,2.3,2.4h0.5c0.4,0,0.7,0.3,0.8,0.7c0,0.2,0,0.4-0.1,0.5c-0.1,0.2-0.3,0.3-0.6,0.4C98.2,132.8,97.9,132.8,97.7,132.8z"
		/>
	<path id="路径_154" class="st0" d="M97.7,124.9c-2.2,0-3.9,1.8-3.9,3.9c0,2.2,1.8,3.9,3.9,3.9c0.2,0,0.5,0,0.7-0.1
		c0.4-0.1,0.7-0.4,0.6-0.8c-0.1-0.4-0.4-0.6-0.7-0.6h-0.1c-0.1,0-0.3,0-0.4,0c-1.3,0-2.4-1.1-2.4-2.5c0-1.3,1.1-2.4,2.5-2.4
		c1.3,0,2.4,1.1,2.4,2.4c0,0.1,0,0.3,0,0.4c-0.1,0.4,0.2,0.8,0.6,0.9l0,0h0.1c0.4,0,0.7-0.3,0.7-0.6c0-0.2,0.1-0.5,0.1-0.7
		c0-1-0.4-2-1.2-2.8C99.7,125.3,98.7,124.9,97.7,124.9z"/>
	<path class="st0" d="M95.1,137c-0.1,0-0.1,0-0.2-0.1c-1.1-0.5-1.9-1-2.6-1.6c-0.1,0-0.2-0.2-0.2-0.3c0-0.1,0-0.3,0-0.4
		c0.2-0.8,0.1-1.6-0.3-2.3c-0.4-0.7-1-1.2-1.7-1.4c-0.2-0.1-0.5-0.3-0.5-0.6c-0.2-1.1-0.2-2.1,0-3.2c0-0.3,0.3-0.5,0.5-0.6
		c0.8-0.2,1.4-0.6,1.8-1.4c0.4-0.8,0.5-1.6,0.3-2.3c0-0.2,0-0.5,0.2-0.7c0.6-0.6,1.5-1.2,2.6-1.6c0,0,0.1,0,0.1,0
		c0.2,0,0.5,0,0.6,0.2l0.3,0.3c0.4,0.4,1,0.6,1.6,0.6c0.8,0,1.5-0.3,2-0.9c0.1-0.1,0.2-0.2,0.5-0.2h0.2c1.1,0.5,2,1,2.7,1.6
		c0.1,0,0.2,0.2,0.2,0.3c0,0.1,0,0.3,0,0.4c-0.2,0.8-0.1,1.6,0.3,2.3c0.4,0.7,1,1.2,1.7,1.4c0.2,0.1,0.5,0.3,0.5,0.6
		c0.2,1.1,0.2,2.2,0,3.2c0,0.3-0.2,0.5-0.5,0.6c-0.8,0.2-1.4,0.6-1.8,1.4c-0.4,0.8-0.5,1.6-0.3,2.3c0,0.2,0,0.5-0.2,0.7
		c-0.6,0.6-1.5,1.2-2.6,1.6l-0.2,0c-0.2,0-0.4-0.1-0.5-0.2l-0.3-0.3c-0.4-0.4-1-0.6-1.6-0.6c-0.8,0-1.5,0.3-2,0.9
		C95.5,136.9,95.3,137,95.1,137z M93.7,134.3c0.5,0.4,0.9,0.7,1.5,0.9c0.7-0.6,1.6-1,2.5-1c0.9,0,1.8,0.3,2.5,1
		c0.6-0.3,1-0.6,1.5-0.9c-0.2-0.9,0-1.8,0.4-2.6c0.4-0.9,1.1-1.5,2.1-1.8c0-0.3,0-0.6,0-0.9c0-0.2,0-0.4-0.1-0.6c0-0.1,0-0.3,0-0.4
		c-0.7-0.3-1.5-0.9-2-1.8c-0.4-0.9-0.6-1.9-0.4-2.7c-0.5-0.4-0.9-0.7-1.5-0.9c-0.7,0.6-1.6,1-2.5,1c-0.9,0-1.8-0.3-2.5-1
		c-0.6,0.3-1,0.6-1.5,0.9c0.2,1,0,2-0.4,2.7c-0.4,0.9-1.1,1.5-2,1.8c-0.1,0.6-0.1,1.2,0,1.8c0.6,0.3,1.5,0.9,2,1.8
		C93.7,132.4,93.9,133.4,93.7,134.3z"/>
	<path id="路径_155" class="st0" d="M105.6,127.2c0-0.2-0.2-0.4-0.4-0.5c-0.8-0.2-1.4-0.7-1.8-1.4c-0.4-0.7-0.5-1.6-0.3-2.4
		c0.1-0.2,0-0.5-0.2-0.6c-0.8-0.7-1.7-1.2-2.6-1.6c-0.1,0-0.1,0-0.2,0c-0.2,0-0.3,0.1-0.4,0.2c-1,1.1-2.7,1.3-3.8,0.3
		c-0.1-0.1-0.2-0.2-0.3-0.3c-0.1-0.2-0.4-0.2-0.6-0.2c-1,0.4-1.9,0.9-2.6,1.6c-0.2,0.2-0.2,0.4-0.2,0.6c0.2,0.8,0.1,1.6-0.3,2.4
		c-0.4,0.7-1,1.2-1.8,1.4c-0.2,0.1-0.4,0.2-0.4,0.5c-0.2,1.1-0.2,2.1,0,3.2c0,0.2,0.2,0.4,0.4,0.5c0.8,0.2,1.4,0.7,1.8,1.4
		c0.4,0.7,0.5,1.6,0.3,2.4c-0.1,0.2,0,0.5,0.2,0.6c0.8,0.7,1.7,1.2,2.6,1.6c0.2,0.1,0.4,0,0.6-0.2c1-1.1,2.7-1.3,3.8-0.3
		c0.1,0.1,0.2,0.2,0.3,0.3c0.1,0.1,0.2,0.2,0.4,0.2c0.1,0,0.1,0,0.2,0c1-0.4,1.9-0.9,2.6-1.6c0.2-0.2,0.2-0.4,0.2-0.6
		c-0.2-0.8-0.1-1.6,0.3-2.4c0.4-0.7,1-1.2,1.8-1.4c0.2-0.1,0.4-0.2,0.4-0.5C105.8,129.4,105.8,128.3,105.6,127.2L105.6,127.2z
		 M101.7,134.3c-0.5,0.4-1,0.7-1.6,1c-1.4-1.3-3.5-1.3-4.9,0c-0.6-0.2-1.1-0.6-1.6-1c0.2-0.9,0-1.9-0.4-2.7c-0.4-0.8-1.2-1.4-2-1.8
		c-0.1-0.6-0.1-1.3,0-1.9c0.9-0.3,1.6-0.9,2-1.8c0.5-0.8,0.6-1.8,0.4-2.7c0.5-0.4,1-0.7,1.6-1c1.4,1.3,3.5,1.3,4.9,0
		c0.6,0.2,1.1,0.6,1.6,1c-0.2,0.9,0,1.9,0.4,2.7c0.4,0.8,1.2,1.4,2,1.8c0,0.3,0.1,0.6,0.1,1c0,0.3,0,0.6-0.1,1
		c-0.9,0.3-1.6,0.9-2,1.8C101.7,132.4,101.5,133.4,101.7,134.3z"/>
</g>
</svg>
