<svg id="group" xmlns="http://www.w3.org/2000/svg" xmlns:xlink="http://www.w3.org/1999/xlink" width="18" height="18" viewBox="0 0 18 18">
  <defs>
    <clipPath id="clip-path">
      <rect id="矩形_47" data-name="矩形 47" width="17.88" height="18" fill="#fff"/>
    </clipPath>
    <clipPath id="clip-path-2">
      <rect id="矩形_48" data-name="矩形 48" width="17.999" height="18" fill="#fff"/>
    </clipPath>
  </defs>
  <g id="组_32" data-name="组 32" transform="translate(0.12)">
    <g id="组_31" data-name="组 31" clip-path="url(#clip-path)">
      <path id="路径_22" data-name="路径 22" d="M5.486,13.769c-.059-.026-.119-.051-.166-.077a1.087,1.087,0,0,0-.974.038l-1.187.858.3-1.319.012-.038a1.318,1.318,0,0,0-.309-1.1A6.047,6.047,0,0,1,1.532,8.045,6.482,6.482,0,0,1,8.216,1.8a6.707,6.707,0,0,1,6.032,3.586,6.872,6.872,0,0,1,2.007,1.024A8.169,8.169,0,0,0,8.216.131,8.084,8.084,0,0,0,0,8.058a7.732,7.732,0,0,0,1.912,5.084l-.57,2.5a1.136,1.136,0,0,0,.4,1.165A.994.994,0,0,0,2.327,17,.959.959,0,0,0,2.9,16.8l2.03-1.485a8.189,8.189,0,0,0,1.555.487,6.815,6.815,0,0,1-1-2.036" transform="translate(-0.003 -0.127)" fill="#fff"/>
    </g>
  </g>
  <g id="组_34" data-name="组 34">
    <g id="组_33" data-name="组 33" clip-path="url(#clip-path-2)">
      <path id="路径_23" data-name="路径 23" d="M230.524,210.145a.844.844,0,0,1-.5-.166l-1.291-.935a5.813,5.813,0,0,1-2.2.423,5.549,5.549,0,1,1,5.772-5.545,5.431,5.431,0,0,1-1.279,3.483l.359,1.575a.958.958,0,0,1-.359,1,.8.8,0,0,1-.5.166m-3.98-10.231a4.02,4.02,0,1,0,0,8.016,4.557,4.557,0,0,0,1.888-.4.936.936,0,0,1,.825.038l.072.051.335.243-.1-.4a1.077,1.077,0,0,1,.263-.922,3.852,3.852,0,0,0,1.04-2.6,4.186,4.186,0,0,0-4.326-4.034" transform="translate(-214.332 -192.175)" fill="#fff"/>
    </g>
  </g>
</svg>
