<?xml version="1.0" encoding="utf-8"?>
<!-- Generator: Adobe Illustrator 26.0.3, SVG Export Plug-In . SVG Version: 6.00 Build 0)  -->
<svg version="1.1" id="图层_1" xmlns="http://www.w3.org/2000/svg" xmlns:xlink="http://www.w3.org/1999/xlink" x="0px" y="0px"
	 viewBox="0 0 128 128" style="enable-background:new 0 0 128 128;" xml:space="preserve">
<style type="text/css">
	.st0{fill:#515151;}
</style>
<path class="st0" d="M39.6,95.5c-0.4-0.2-0.8-0.3-1.2-0.5c-2.3-0.9-4.7-0.8-6.9,0.3l-8.5,5.7l2.1-8.7l0.1-0.3
	c0.5-2.6-0.3-5.3-2.2-7.3c-7.4-7.5-11.6-17.1-11.6-27c0-22.8,21.3-41.3,47.7-41.3c19,0,35.4,9.7,43,23.7c5.2,1.5,10,3.8,14.3,6.8
	C110.7,23.1,87.2,5.4,59.1,5.4C26.7,5.4,0.5,28.9,0.5,57.8c0,12.4,4.8,24.2,13.6,33.6l-4.1,16.5c-0.8,3,0.4,5.9,2.9,7.7
	c1.3,0.8,2.7,1.3,4.1,1.3s2.8-0.4,4.1-1.3l14.5-9.8c3.6,1.4,7.3,2.5,11.1,3.2C43.6,104.9,41.1,100.3,39.6,95.5L39.6,95.5z"/>
<path class="st0" d="M115.2,124.1c-1.2,0-2.5-0.3-3.6-1.1l-9.1-6.2c-4.9,1.9-10.2,2.8-15.6,2.8c-22.5,0-40.8-16.4-40.8-36.7
	s18.3-36.7,40.8-36.7s40.9,16.4,40.9,36.7c0,8.4-3.2,16.5-9.1,23l2.5,10.4c0.6,2.5-0.3,5.2-2.5,6.6
	C117.7,123.8,116.5,124.1,115.2,124.1z M87,56.5c-16.9,0-30.6,11.9-30.6,26.5s13.8,26.5,30.6,26.5c4.7,0,9.1-0.8,13.4-2.6
	c1.9-0.8,4-0.7,5.8,0.3l0.5,0.3l2.4,1.6l-0.7-2.6c-0.4-2.2,0.3-4.5,1.9-6.1c4.7-4.8,7.4-10.9,7.4-17.2
	C117.7,68.3,103.9,56.5,87,56.5z"/>
</svg>
