<svg xmlns="http://www.w3.org/2000/svg" xmlns:xlink="http://www.w3.org/1999/xlink" width="120" height="120" viewBox="0 0 120 120">
  <defs>
    <style>
      .cls-1, .cls-9 {
        fill: #fff;
      }

      .cls-1 {
        stroke: #707070;
      }

      .cls-2 {
        fill: none;
      }

      .cls-3 {
        clip-path: url(#clip-path);
      }

      .cls-4 {
        fill: #744a25;
      }

      .cls-5 {
        fill: #fcbc85;
      }

      .cls-6 {
        fill: #fdcc9b;
      }

      .cls-7 {
        fill: #401900;
      }

      .cls-8 {
        fill: #3b2519;
      }

      .cls-10 {
        fill: #f7945e;
      }

      .cls-11 {
        clip-path: url(#clip-path-2);
      }

      .cls-12 {
        fill: #d58e64;
      }

      .cls-13 {
        fill: #bf805a;
      }

      .cls-14 {
        fill: #86461b;
      }

      .cls-14, .cls-15 {
        fill-rule: evenodd;
      }

      .cls-15 {
        fill: #573514;
      }
    </style>
    <clipPath id="clip-path">
      <rect id="矩形_18" data-name="矩形 18" class="cls-1" width="120" height="120" transform="translate(1292 75)"/>
    </clipPath>
    <clipPath id="clip-path-2">
      <path id="路径_132" data-name="路径 132" class="cls-2" d="M79.354,120h0a5.108,5.108,0,0,0-.323-2.515c-3.769-9.677-18.2-17.862-39.192-17.862S3.762,107.808.608,117.477A5.623,5.623,0,0,0,.323,120Z"/>
    </clipPath>
  </defs>
  <g id="男_22" data-name="男 22" transform="translate(-1292 -75)">
    <g id="蒙版组_10" data-name="蒙版组 10" class="cls-3">
      <g id="图层_2" data-name="图层 2" transform="translate(1312.302 75)">
        <g id="图层_1" data-name="图层 1">
          <path id="路径_121" data-name="路径 121" class="cls-4" d="M79.354,120h0a5.108,5.108,0,0,0-.323-2.515c-3.769-9.677-18.2-17.862-39.192-17.862S3.762,107.808.608,117.477A5.623,5.623,0,0,0,.323,120Z"/>
          <rect id="矩形_36" data-name="矩形 36" class="cls-5" width="76.569" height="22.669" rx="11.335" transform="translate(0.062 48.915)"/>
          <path id="路径_122" data-name="路径 122" class="cls-6" d="M30.077,73.377h17.5v25.8a7.815,7.815,0,0,1-7.815,7.815H37.892a7.815,7.815,0,0,1-7.815-7.815Z"/>
          <path id="路径_123" data-name="路径 123" class="cls-5" d="M29.492,89.185l18.085-.308v4.031a30.131,30.131,0,0,1-18.085-3.723Z"/>
          <path id="路径_124" data-name="路径 124" class="cls-6" d="M71.538,54.192c0,19.646-4.138,36.331-32.723,36.331S6.1,73.846,6.1,54.192,4.5,18.631,38.831,18.631C68.638,18.631,71.538,34.554,71.538,54.192Z"/>
          <path id="路径_125" data-name="路径 125" class="cls-7" d="M22.585,46.531c2.108,0,5.138,1.5,5.138.885,0-2.4-2.308-4.338-5.138-4.338s-5.138,1.938-5.138,4.338C17.446,48.031,20.469,46.531,22.585,46.531Z"/>
          <ellipse id="椭圆_44" data-name="椭圆 44" class="cls-8" cx="4.162" cy="4.069" rx="4.162" ry="4.069" transform="translate(18.485 52.131)"/>
          <ellipse id="椭圆_45" data-name="椭圆 45" class="cls-9" cx="1.669" cy="1.408" rx="1.669" ry="1.408" transform="translate(19.308 53.046)"/>
          <path id="路径_126" data-name="路径 126" class="cls-7" d="M54.515,46.531c2.108,0,5.138,1.5,5.138.885,0-2.4-2.308-4.338-5.138-4.338s-5.138,1.938-5.138,4.338C49.377,48.031,52.408,46.531,54.515,46.531Z"/>
          <ellipse id="椭圆_46" data-name="椭圆 46" class="cls-8" cx="4.162" cy="4.069" rx="4.162" ry="4.069" transform="translate(50.415 52.131)"/>
          <ellipse id="椭圆_47" data-name="椭圆 47" class="cls-9" cx="1.669" cy="1.408" rx="1.669" ry="1.408" transform="translate(51.238 53.046)"/>
          <path id="路径_127" data-name="路径 127" class="cls-5" d="M38.531,70.038c-2.308,0-4.831-1.677-4.831-1.377,0,2.162,2.162,3.146,4.831,3.146s4.838-.985,4.838-3.146C43.369,68.362,40.831,70.038,38.531,70.038Z"/>
          <path id="路径_128" data-name="路径 128" class="cls-5" d="M38.531,81.538a22.747,22.747,0,0,1-4.546-.854c0,.862,2.038,1.538,4.546,1.538s4.554-.692,4.554-1.538C43.077,80.531,40.692,81.538,38.531,81.538Z"/>
          <path id="路径_129" data-name="路径 129" class="cls-10" d="M38.531,78.885c-4.562,0-9.615-1.985-9.615-1.738,0,1.754,4.308,3.169,9.615,3.169s9.623-1.415,9.623-3.169C48.154,76.923,43.077,78.885,38.531,78.885Z"/>
          <g id="组_6" data-name="组 6" class="cls-11">
            <path id="路径_130" data-name="路径 130" class="cls-12" d="M50.5,96.985v.392c0,5.685-5.269,10.292-11.769,10.292s-11.777-4.615-11.777-10.292v-.315H20.423l-.285,25.854,18.169,4.331,19.123-1.7,2.185-28.308Z"/>
            <path id="路径_131" data-name="路径 131" class="cls-13" d="M38.754,87.085c-6.508,0-11.777,4.615-11.777,10.292s5.269,10.315,11.777,10.315S50.523,103.077,50.523,97.4,45.254,87.085,38.754,87.085Zm0,18.462c-5.154,0-9.331-3.654-9.331-8.162s4.177-8.154,9.331-8.154,9.323,3.654,9.323,8.154-4.177,8.154-9.323,8.154Z"/>
          </g>
          <path id="路径_133" data-name="路径 133" class="cls-14" d="M76.808,33.285C75.385,11.577,69.577,0,38.585,0S1.808,11.577.362,33.285,2.177,62.462,4.346,62.438,5.385,37.546,8.315,32.2c5.431-9.769,15.131-2.531,30.269-2.531S63.423,22.431,68.846,32.2c2.977,5.385,1.815,30.208,3.977,30.238S78.254,54.992,76.808,33.285Z"/>
          <path id="路径_134" data-name="路径 134" class="cls-14" d="M47.777,85.423c-2.023,0-5.6-2.162-9.231-2.162-3.392,0-6.8,2.162-8.708,2.162-9.054,0-20.638-9.592-19.269-7.508,1.838,2.8,6.769,12.269,28.123,13.077h.192c21.3-.769,26.154-10.054,28.008-12.854C68.3,76.031,56.831,85.423,47.777,85.423Z"/>
          <path id="路径_135" data-name="路径 135" class="cls-15" d="M22.654,120V101.208s-3.523,1.231-4.746,1.8L14.308,120Z"/>
          <path id="路径_136" data-name="路径 136" class="cls-15" d="M56.446,120V101.208s3.523,1.231,4.746,1.8L64.792,120Z"/>
        </g>
      </g>
    </g>
  </g>
</svg>
