<svg xmlns="http://www.w3.org/2000/svg" xmlns:xlink="http://www.w3.org/1999/xlink" width="120" height="120" viewBox="0 0 120 120">
  <defs>
    <style>
      .cls-1, .cls-9 {
        fill: #fff;
      }

      .cls-1 {
        stroke: #707070;
      }

      .cls-2 {
        fill: none;
      }

      .cls-3 {
        clip-path: url(#clip-path);
      }

      .cls-4 {
        fill: #9d777b;
      }

      .cls-5 {
        fill: #fdcc9b;
      }

      .cls-6 {
        fill: #fcbc85;
      }

      .cls-15, .cls-7 {
        fill: #bf904b;
      }

      .cls-8 {
        fill: #3b2519;
      }

      .cls-10 {
        fill: #f7945e;
      }

      .cls-11 {
        clip-path: url(#clip-path-2);
      }

      .cls-12 {
        fill: #f2f2f2;
      }

      .cls-13 {
        fill: #c7c5c4;
      }

      .cls-14 {
        fill: #7b5c60;
      }

      .cls-15 {
        fill-rule: evenodd;
      }
    </style>
    <clipPath id="clip-path">
      <rect id="矩形_21" data-name="矩形 21" class="cls-1" width="120" height="120" transform="translate(1427 75)"/>
    </clipPath>
    <clipPath id="clip-path-2">
      <path id="路径_149" data-name="路径 149" class="cls-2" d="M83.789,120h0a5.12,5.12,0,0,0-.331-2.572C79.592,107.5,64.793,99.1,43.263,99.1S6.311,107.48,2.99,117.4a5.727,5.727,0,0,0-.252,2.58h0Z"/>
    </clipPath>
  </defs>
  <g id="男_23" data-name="男 23" transform="translate(-1427 -75)">
    <g id="蒙版组_11" data-name="蒙版组 11" class="cls-3">
      <g id="图层_2" data-name="图层 2" transform="translate(1444.858 75)">
        <g id="图层_1" data-name="图层 1">
          <path id="路径_137" data-name="路径 137" class="cls-4" d="M83.789,120h0a5.12,5.12,0,0,0-.331-2.572C79.592,107.5,64.793,99.1,43.263,99.1S6.311,107.48,2.99,117.4a5.727,5.727,0,0,0-.252,2.58h0Z"/>
          <path id="路径_138" data-name="路径 138" class="cls-5" d="M33.252,72.161H51.2V98.613a8.015,8.015,0,0,1-8.015,8.015H41.268a8.015,8.015,0,0,1-8.015-8.015Z"/>
          <path id="路径_139" data-name="路径 139" class="cls-6" d="M32.653,88.357,51.2,88.042v4.134a30.925,30.925,0,0,1-18.547-3.818Z"/>
          <rect id="矩形_37" data-name="矩形 37" class="cls-6" width="78.527" height="23.249" rx="11.624" transform="translate(2.958 45.535)"/>
          <path id="路径_140" data-name="路径 140" class="cls-5" d="M75.79,52.486c0,20.141-12.236,37.26-33.56,37.26-24.346,0-33.552-17.119-33.552-37.26S6.232,16.015,42.23,16.015,75.79,32.345,75.79,52.486Z"/>
          <path id="路径_141" data-name="路径 141" class="cls-7" d="M25.568,44.628c3.156,0,7.684,1.578,7.684.907,0-2.461-3.44-4.457-7.684-4.457s-7.684,2-7.684,4.457C17.884,46.167,22.413,44.628,25.568,44.628Z"/>
          <path id="路径_142" data-name="路径 142" class="cls-7" d="M59.018,44.628c3.156,0,7.684,1.578,7.684.907,0-2.461-3.44-4.457-7.684-4.457s-7.692,2-7.692,4.457C51.326,46.167,55.854,44.628,59.018,44.628Z"/>
          <ellipse id="椭圆_48" data-name="椭圆 48" class="cls-8" cx="4.662" cy="5.404" rx="4.662" ry="5.404" transform="translate(20.969 48.652)"/>
          <circle id="椭圆_49" data-name="椭圆 49" class="cls-9" cx="1.87" cy="1.87" r="1.87" transform="translate(21.892 49.867)"/>
          <ellipse id="椭圆_50" data-name="椭圆 50" class="cls-8" cx="4.662" cy="5.404" rx="4.662" ry="5.404" transform="translate(54.221 48.652)"/>
          <circle id="椭圆_51" data-name="椭圆 51" class="cls-9" cx="1.87" cy="1.87" r="1.87" transform="translate(55.152 49.867)"/>
          <path id="路径_143" data-name="路径 143" class="cls-6" d="M42.23,67.948c-2.864,0-6.035-2.517-6.035-2.2,0,2.209,2.7,4.008,6.035,4.008s6.027-1.8,6.027-4.008C48.257,65.432,45.094,67.948,42.23,67.948Z"/>
          <path id="路径_144" data-name="路径 144" class="cls-6" d="M42.23,78.646a21.264,21.264,0,0,1-4.442-.876c0,.884,1.988,1.578,4.442,1.578s4.434-.71,4.434-1.578A21.13,21.13,0,0,1,42.23,78.646Z"/>
          <path id="路径_145" data-name="路径 145" class="cls-10" d="M42.23,75.956c-5.152,0-10.824-2.035-10.824-1.8,0,1.8,4.844,3.25,10.824,3.25s10.816-1.436,10.816-3.25C53.046,73.92,47.334,75.956,42.23,75.956Z"/>
          <g id="组_7" data-name="组 7" class="cls-11">
            <path id="路径_146" data-name="路径 146" class="cls-12" d="M54.2,96.364v.41c0,5.83-5.4,10.556-12.07,10.556S30.049,102.6,30.049,96.775v-.323h-3.5l4.86,11.408L41.922,127.8l11.124-21.2,3.945-13.1Z"/>
            <path id="路径_147" data-name="路径 147" class="cls-13" d="M42.151,86.219c-6.674,0-12.078,4.733-12.078,10.556S35.5,107.33,42.151,107.33s12.07-4.733,12.07-10.556S48.817,86.219,42.151,86.219Zm0,18.934c-5.286,0-9.569-3.747-9.569-8.362s4.284-8.37,9.569-8.37,9.562,3.747,9.562,8.37-4.284,8.347-9.562,8.347Z"/>
            <path id="路径_148" data-name="路径 148" class="cls-14" d="M17.948,81.257l23.793,51.728L66.7,81.257Zm7.684,8.149H59.018l-17.1,35.414Z"/>
          </g>
          <path id="路径_150" data-name="路径 150" class="cls-15" d="M42.143,0C-11.187,0-2.209,60.872,6.966,60.872c2.367,0,.742-30.633,5.033-30.073a160.559,160.559,0,0,0,30.152,2.422A156.941,156.941,0,0,0,72.3,30.767c4.292-.584,2.69,30.1,5.017,30.1C86.5,60.872,95.457,0,42.143,0Z"/>
        </g>
      </g>
    </g>
  </g>
</svg>
