<svg xmlns="http://www.w3.org/2000/svg" width="279.979" height="246.925" viewBox="0 0 279.979 246.925">
  <g id="noNotice" transform="translate(-883.7 -370.9)" opacity="0.8">
    <path id="路径_2296" d="M1060.378,557.472l44.946,35.328V406.173A10.105,10.105,0,0,0,1095.336,396H913.888a9.947,9.947,0,0,0-9.988,9.988V547.114a9.947,9.947,0,0,0,9.988,9.988l146.49.37Z" transform="translate(17.162 21.326)" fill="#e2e5f1"/>
    <path id="路径_1871" d="M971.629,489.962l8.138-4.809,4.809,8.138-82.308,47.535-4.809-8.138,8.138-4.809-16.647-28.854a38.038,38.038,0,0,1,65.847-38.1h0l16.831,29.039Zm-35.7,42.726,24.6-14.242,4.809,8.138-24.785,14.242Z" transform="translate(0.113 60.351)" fill="#417aff"/>
    <g id="组_9185" transform="translate(1142.224 536.63)">
      <g id="组_9175" transform="translate(0 0)">
        <path id="路径_2292" d="M9.328,18.656A10.728,10.728,0,1,1,20.056,7.928,10.981,10.981,0,0,1,9.328,18.656Zm0-17.571A6.989,6.989,0,0,0,2.3,7.928a7.147,7.147,0,0,0,7.029,7.029,7.025,7.025,0,0,0,7.029-7.029h0A7.244,7.244,0,0,0,9.328,1.084Z" transform="translate(1.4 2.8)" fill="#a4bfff"/>
      </g>
    </g>
    <path id="路径_2297" d="M936.891,380.4,970,432.559a2.453,2.453,0,0,0,1.85,1.11,3.148,3.148,0,0,0,1.295-.185,2.553,2.553,0,0,0,.74-.555l12.577-12.577a1.989,1.989,0,0,1,2.59-.37l12.022,6.289a2.358,2.358,0,0,0,2.22,0,2.554,2.554,0,0,0,.74-.555,2.288,2.288,0,0,0,.555-2.774l-4.809-11.283a4.707,4.707,0,0,0-2.035-2.22l-46.611-24.6,52.714,17.017a1.135,1.135,0,0,0,1.11-.185l11.468-11.468a2.29,2.29,0,0,0,.555-2.589,2.355,2.355,0,0,0-2.035-1.665L939.3,376.7a3.147,3.147,0,0,0-1.295.185,1.894,1.894,0,0,0-1.11.925A2.2,2.2,0,0,0,936.891,380.4Z" transform="translate(44.839 4.928)" fill="#697391"/>
    <path id="路径_2298" d="M992.829,402s56.414,26.08,51.235,41.432-23.305,1.85-14.427-7.029c8.878-9.063,33.478-.555,33.293,30.7s-17.756,73.43-98.03,95.441" transform="translate(68.989 26.423)" fill="none" stroke="#c2c8d8" stroke-width="1" stroke-dasharray="2"/>
    <g id="组_9180" transform="translate(904.887 438.711)">
      <g id="组_9179" transform="translate(0 0)">
        <path id="路径_2294" d="M7.677,26.753-8.6,10.477,7.677-5.8,23.953,10.477ZM-2.866,10.662,7.862,21.389,18.4,10.662,7.677-.066Z" transform="translate(8.6 5.8)" fill="#c2c8d8"/>
      </g>
    </g>
    <path id="联合_11" d="M997.208,388.286a2.053,2.053,0,0,1-2.035-2.035v-4.439h-4.439a2.053,2.053,0,0,1-2.035-2.035v-.37a2.053,2.053,0,0,1,2.035-2.035h4.439v-4.439a2.053,2.053,0,0,1,2.035-2.035h.37a2.053,2.053,0,0,1,2.035,2.035v4.439h4.439a2.053,2.053,0,0,1,2.035,2.035h0v.37a2.053,2.053,0,0,1-2.035,2.035h-4.439v4.439a2.053,2.053,0,0,1-2.035,2.035h-.37Z" transform="translate(89.21)" fill="#417aff"/>
    <path id="联合_12" d="M948,515.53a2.053,2.053,0,0,1-2.034-2.035v-7.029h-7.029a2.053,2.053,0,0,1-2.035-2.035V502.4a2.053,2.053,0,0,1,2.035-2.035h7.029v-7.029A2.053,2.053,0,0,1,948,491.3h2.034a2.053,2.053,0,0,1,2.035,2.035v7.029H959.1a2.053,2.053,0,0,1,2.035,2.035v2.035a2.053,2.053,0,0,1-2.035,2.035h-7.029V513.5a2.053,2.053,0,0,1-2.035,2.035Z" transform="translate(45.2 102.295)" fill="#c2c8d8"/>
    <path id="联合_13" d="M892.763,403.466a2.053,2.053,0,0,1-2.035-2.035v-4.994h-4.994A2.053,2.053,0,0,1,883.7,394.4v-.74a2.053,2.053,0,0,1,2.034-2.035h4.994v-4.994a2.053,2.053,0,0,1,2.035-2.035h.74a2.053,2.053,0,0,1,2.035,2.035v4.994h4.994a2.053,2.053,0,0,1,2.035,2.035h0v.74a2.053,2.053,0,0,1-2.035,2.035h-5.179v4.994a2.053,2.053,0,0,1-2.035,2.035h-.555Z" transform="translate(0 11.64)" fill="#f1f3f8"/>
    <path id="联合_20" d="M992.374,457.3l16.647-16.647,8.323,8.323L1000.7,465.622ZM936.7,448.051l8.323-8.323,16.647,16.647-8.323,8.323Zm34.4,4.439V429h11.838v23.49Z" transform="translate(45.03 49.363)" fill="#fff"/>
  </g>
</svg>
