<svg xmlns="http://www.w3.org/2000/svg" xmlns:xlink="http://www.w3.org/1999/xlink" width="120" height="120" viewBox="0 0 120 120">
  <defs>
    <style>
      .cls-1, .cls-10 {
        fill: #fff;
      }

      .cls-1 {
        stroke: #707070;
      }

      .cls-2 {
        fill: none;
      }

      .cls-3 {
        clip-path: url(#clip-path);
      }

      .cls-4 {
        fill: #703910;
      }

      .cls-5 {
        fill: #d85b72;
      }

      .cls-6 {
        fill: #fcbc85;
      }

      .cls-7 {
        fill: #fdcc9b;
      }

      .cls-8 {
        fill: #86461b;
      }

      .cls-9 {
        fill: #3b2519;
      }

      .cls-11 {
        fill: #f7945e;
      }

      .cls-12 {
        fill: #f9aa8d;
      }

      .cls-13 {
        clip-path: url(#clip-path-2);
      }

      .cls-14 {
        fill: #f5919d;
      }

      .cls-15 {
        fill: #f7acba;
      }

      .cls-16 {
        fill: #ba396a;
      }
    </style>
    <clipPath id="clip-path">
      <rect id="矩形_2" data-name="矩形 2" class="cls-1" width="120" height="120" transform="translate(77 219)"/>
    </clipPath>
    <clipPath id="clip-path-2">
      <path id="路径_177" data-name="路径 177" class="cls-2" d="M92.454,120h0a4.767,4.767,0,0,0-.308-2.391c-3.594-9.226-17.352-17.03-37.367-17.03s-34.4,7.8-37.4,17.022a5.325,5.325,0,0,0-.235,2.4H92.454Z"/>
    </clipPath>
  </defs>
  <g id="女_25" data-name="女 25" transform="translate(-77 -219)">
    <g id="蒙版组_13" data-name="蒙版组 13" class="cls-3">
      <g id="图层_2" data-name="图层 2" transform="translate(82.001 219)">
        <g id="图层_1" data-name="图层 1">
          <path id="路径_165" data-name="路径 165" class="cls-4" d="M24.2,64.283H86.388L85.86,76.751a16.45,16.45,0,0,0,.946,6.124c1.159,3.271,2.274,8.882-1.936,12.087,0,0,5.09,5.831,1.569,11.735,0,0,9.1,3.6,5.061,13.018H18.482s-4.29-8.8,5.061-13.018c0,0-4.32-5.486,1.569-11.735,0,0-5.97-4.518-.579-15.4a9.982,9.982,0,0,0,.983-5.867Z"/>
          <path id="路径_166" data-name="路径 166" class="cls-5" d="M92.454,120h0a4.767,4.767,0,0,0-.308-2.391c-3.594-9.226-17.352-17.03-37.367-17.03s-34.4,7.8-37.4,17.022a5.325,5.325,0,0,0-.235,2.4H92.454Z"/>
          <rect id="矩形_38" data-name="矩形 38" class="cls-6" width="73.004" height="21.614" rx="10.807" transform="translate(17.059 50.51)"/>
          <path id="路径_167" data-name="路径 167" class="cls-7" d="M45.471,75.541H62.156v24.6a7.451,7.451,0,0,1-7.451,7.451H52.923a7.451,7.451,0,0,1-7.451-7.466Z"/>
          <path id="路径_168" data-name="路径 168" class="cls-6" d="M44.914,90.6,62.156,90.3v3.843A28.728,28.728,0,0,1,44.914,90.6Z"/>
          <path id="路径_169" data-name="路径 169" class="cls-7" d="M85.017,57.206c0,18.724-12.3,34.639-31.2,34.639S22.611,75.959,22.611,57.206,36.582,23.33,53.818,23.33,85.017,38.511,85.017,57.206Z"/>
          <path id="路径_170" data-name="路径 170" class="cls-8" d="M38.387,50.429c3.183,0,7.745,1.357,7.745.8,0-2.156-3.469-3.909-7.745-3.909s-7.752,1.753-7.752,3.909C30.635,51.786,35.2,50.429,38.387,50.429Z"/>
          <path id="路径_171" data-name="路径 171" class="cls-8" d="M69.425,50.429c3.176,0,7.745,1.357,7.745.8,0-2.156-3.469-3.909-7.745-3.909s-7.752,1.753-7.752,3.909C61.672,51.786,66.242,50.429,69.425,50.429Z"/>
          <ellipse id="椭圆_57" data-name="椭圆 57" class="cls-9" cx="4.334" cy="4.459" rx="4.334" ry="4.459" transform="translate(34.052 54.8)"/>
          <ellipse id="椭圆_58" data-name="椭圆 58" class="cls-10" cx="1.738" cy="1.54" rx="1.738" ry="1.54" transform="translate(34.91 55.812)"/>
          <ellipse id="椭圆_59" data-name="椭圆 59" class="cls-9" cx="4.334" cy="4.459" rx="4.334" ry="4.459" transform="translate(65.09 54.8)"/>
          <ellipse id="椭圆_60" data-name="椭圆 60" class="cls-10" cx="1.738" cy="1.54" rx="1.738" ry="1.54" transform="translate(65.948 55.812)"/>
          <path id="路径_172" data-name="路径 172" class="cls-6" d="M53.818,73.671c-1.562,0-3.293-1.467-3.293-1.283,0,1.291,1.467,2.34,3.293,2.34s3.286-1.049,3.286-2.34C57.1,72.2,55.372,73.671,53.818,73.671Z"/>
          <path id="路径_173" data-name="路径 173" class="cls-6" d="M53.818,84.848c-.8,0-1.687-.873-1.687-.733a1.716,1.716,0,0,0,3.366,0C55.5,83.975,54.61,84.848,53.818,84.848Z"/>
          <path id="路径_174" data-name="路径 174" class="cls-11" d="M53.818,81.834c-3.066,0-6.454-2.032-6.454-1.782,0,1.79,2.89,3.242,6.454,3.242s6.447-1.467,6.447-3.242C60.264,79.8,56.876,81.834,53.818,81.834Z"/>
          <circle id="椭圆_61" data-name="椭圆 61" class="cls-12" cx="4.217" cy="4.217" r="4.217" transform="translate(29.952 67.914)"/>
          <circle id="椭圆_62" data-name="椭圆 62" class="cls-12" cx="4.217" cy="4.217" r="4.217" transform="translate(69.425 67.914)"/>
          <g id="组_9" data-name="组 9" class="cls-13">
            <path id="路径_175" data-name="路径 175" class="cls-14" d="M53.744,88.6c-6.2,0-11.229,4.4-11.229,9.813s5.024,9.813,11.229,9.813,11.221-4.4,11.221-9.813S59.942,88.6,53.744,88.6Zm0,17.6c-4.914,0-8.9-3.484-8.9-7.774s3.982-7.774,8.9-7.774,8.889,3.476,8.889,7.774-3.96,7.759-8.889,7.759Z"/>
            <path id="路径_176" data-name="路径 176" class="cls-15" d="M64.914,97.492c0,.3.051.609.051.917,0,5.42-5.024,9.813-11.221,9.813s-11.206-4.393-11.206-9.813v-.543l-8.376.139,6.417,22h24.5l8.559-22.655Z"/>
          </g>
          <path id="路径_178" data-name="路径 178" class="cls-8" d="M107.29,94.228c6.087-10.268-1.988-15.27-1.988-15.27,3.608-8.97-2.083-12.219-2.083-12.219,1.423-4.063,0-6.241,0-6.241,7.635-11.947-2.01-16.392-2.01-16.392,6.344-10.172-2.934-13.473-2.934-13.473,2.633-11.588-8.8-12.937-8.8-12.937-.733-9.072-9.417-10-9.417-10C74.94-.528,68.28,3.814,68.28,3.814,60.118-4.114,49.945,2.78,49.945,2.78c-11.5-4.4-17.33,4.914-17.33,4.914-10.906-.7-14.279,9.828-14.279,9.828-9.63,3.491-8.8,16.3-8.8,16.3-6.315,5.779-2.046,16.3-2.046,16.3C2.01,55.93,7.613,65.6,7.613,65.6-.249,70.737,4.826,78.959,4.826,78.959c-8.559,7.085-1.995,15.27-1.995,15.27-6.373,8.581,0,14.874,0,14.874-.528,7.583,6.813,7.334,6.813,7.334,1.518,3.667,6.469,3.594,7.422,3.542a5.339,5.339,0,0,1,.271-1.658c1.2-3.667,4.18-7.055,8.559-9.864-.814-1.423-.961-3.4,1.342-5.867,2.2-1.188-2.574-2.809-.286-6.7.675-1.159,5.765-4.664,1.584-8.251,0,0,3.4-5.259,1.467-7a4.885,4.885,0,0,0-.858-5.831,14.213,14.213,0,0,0-3.55-3.491c3.858-4.29-.777-13.2-.777-13.2,4.752-4.107,1.034-12.644,1.034-12.644a8.239,8.239,0,0,0,8.544-7.51c5.552,6.183,11.9.521,11.9.521,6.183,5.442,12.937-1.555,12.937-1.555,9.923,2.2,10.348-4.914,10.348-4.914,1.6,5.669,4.3,8.838,8.28,9.05.689,4.855,5.427,6.733,5.427,6.733-3.748,7.5.521,11.639.521,11.639a5.867,5.867,0,0,0-.257,7.759,9.388,9.388,0,0,0,.44,9.835c-3.308.887-3.124,3.909-2.838,7-4.305,2.2,1.305,8.522,1.9,10.187.975,2.772.543,5.867-3.029,8.574,0,0,3.784.975,2.2,4.951,4.98,2.934,8.4,6.6,9.938,10.59a4.9,4.9,0,0,1,.337,1.643h.411c7.136,0,7.583-3.535,7.583-3.535,8.288-.638,6.813-7.334,6.813-7.334C113.378,103.631,107.29,94.228,107.29,94.228Z"/>
          <path id="路径_179" data-name="路径 179" class="cls-16" d="M38.519,101.46S41.276,114.052,43.858,120H39.12s-5.383-10.84-6.212-16.04C33.209,101.673,38.519,101.46,38.519,101.46Z"/>
          <path id="路径_180" data-name="路径 180" class="cls-16" d="M68.031,101.46S65.273,114.052,62.685,120H67.43s5.405-10.84,6.212-16.04C73.341,101.673,68.031,101.46,68.031,101.46Z"/>
        </g>
      </g>
    </g>
  </g>
</svg>
