<svg xmlns="http://www.w3.org/2000/svg" xmlns:xlink="http://www.w3.org/1999/xlink" width="120" height="120" viewBox="0 0 120 120">
  <defs>
    <style>
      .cls-1, .cls-10 {
        fill: #fff;
      }

      .cls-1 {
        stroke: #707070;
      }

      .cls-2 {
        fill: none;
      }

      .cls-3 {
        clip-path: url(#clip-path);
      }

      .cls-4 {
        fill: #432b1f;
      }

      .cls-5 {
        fill: #694b74;
      }

      .cls-6 {
        fill: #fcbc85;
      }

      .cls-7 {
        fill: #fdcc9b;
      }

      .cls-8 {
        fill: #684b37;
      }

      .cls-9 {
        fill: #3b2519;
      }

      .cls-11 {
        fill: #f7945e;
      }

      .cls-12 {
        fill: #f9aa8d;
      }

      .cls-13 {
        clip-path: url(#clip-path-2);
      }

      .cls-14 {
        fill: #563c60;
      }

      .cls-15 {
        fill: #51362a;
      }
    </style>
    <clipPath id="clip-path">
      <rect id="矩形_6" data-name="矩形 6" class="cls-1" width="120" height="120" transform="translate(347 219)"/>
    </clipPath>
    <clipPath id="clip-path-2">
      <path id="路径_205" data-name="路径 205" class="cls-2" d="M81.382,120h0a4.688,4.688,0,0,0-.31-2.348c-3.529-9.06-17.04-16.723-36.694-16.723s-33.77,7.663-36.766,16.716A5.236,5.236,0,0,0,7.382,120h74Z"/>
    </clipPath>
  </defs>
  <g id="女_27" data-name="女 27" transform="translate(-347 -219)">
    <g id="蒙版组_15" data-name="蒙版组 15" class="cls-3">
      <g id="图层_2" data-name="图层 2" transform="translate(361.316 219.001)">
        <g id="图层_1" data-name="图层 1">
          <path id="路径_194" data-name="路径 194" class="cls-4" d="M7.958,60.885l72.977-1.577s-.158,21.656-3.6,33.129,4.2,27.475,4.2,27.475H7.353s3.81-15.923,4.22-24.94S7.958,60.885,7.958,60.885Z"/>
          <path id="路径_195" data-name="路径 195" class="cls-5" d="M81.382,120h0a4.688,4.688,0,0,0-.31-2.348c-3.529-9.06-17.04-16.723-36.694-16.723s-33.77,7.663-36.766,16.716A5.236,5.236,0,0,0,7.382,120h74Z"/>
          <rect id="矩形_39" data-name="矩形 39" class="cls-6" width="71.688" height="21.224" rx="10.612" transform="translate(7.375 51.76)"/>
          <path id="路径_196" data-name="路径 196" class="cls-7" d="M35.289,76.34h16.37V100.5a7.317,7.317,0,0,1-7.317,7.317h-1.75a7.317,7.317,0,0,1-7.3-7.332Z"/>
          <path id="路径_197" data-name="路径 197" class="cls-6" d="M34.728,91.126l16.932-.288v3.774A28.232,28.232,0,0,1,34.728,91.126Z"/>
          <path id="路径_198" data-name="路径 198" class="cls-7" d="M74.108,58.336c0,18.387-12.078,34.015-30.637,34.015s-30.644-15.6-30.644-34.015S26.546,25.07,43.471,25.07,74.108,39.978,74.108,58.336Z"/>
          <path id="路径_199" data-name="路径 199" class="cls-8" d="M28.318,51.688c3.126,0,7.605,1.325,7.605.778,0-2.117-3.407-3.839-7.605-3.839s-7.605,1.721-7.605,3.839C20.713,53.013,25.207,51.688,28.318,51.688Z"/>
          <path id="路径_200" data-name="路径 200" class="cls-8" d="M58.8,51.688c3.126,0,7.605,1.325,7.605.778,0-2.117-3.407-3.839-7.605-3.839s-7.612,1.721-7.612,3.839C51.184,53.013,55.671,51.688,58.8,51.688Z"/>
          <ellipse id="椭圆_69" data-name="椭圆 69" class="cls-9" cx="4.256" cy="4.379" rx="4.256" ry="4.379" transform="translate(24.062 55.981)"/>
          <ellipse id="椭圆_70" data-name="椭圆 70" class="cls-10" cx="1.707" cy="1.512" rx="1.707" ry="1.512" transform="translate(24.904 56.967)"/>
          <ellipse id="椭圆_71" data-name="椭圆 71" class="cls-9" cx="4.256" cy="4.379" rx="4.256" ry="4.379" transform="translate(54.54 55.981)"/>
          <ellipse id="椭圆_72" data-name="椭圆 72" class="cls-10" cx="1.707" cy="1.512" rx="1.707" ry="1.512" transform="translate(55.383 56.967)"/>
          <path id="路径_201" data-name="路径 201" class="cls-6" d="M43.471,74.5c-1.534,0-3.234-1.44-3.234-1.26,0,1.268,1.44,2.3,3.234,2.3s3.226-1.03,3.226-2.3C46.7,73.064,45,74.5,43.471,74.5Z"/>
          <path id="路径_202" data-name="路径 202" class="cls-6" d="M43.471,85.48c-.785,0-1.649-.857-1.649-.72a1.678,1.678,0,0,0,3.3,0C45.12,84.623,44.256,85.48,43.471,85.48Z"/>
          <path id="路径_203" data-name="路径 203" class="cls-11" d="M43.471,82.52c-3.01,0-6.338-1.995-6.338-1.75,0,1.757,2.838,3.183,6.338,3.183s6.33-1.44,6.33-3.183C49.8,80.525,46.474,82.52,43.471,82.52Z"/>
          <circle id="椭圆_73" data-name="椭圆 73" class="cls-12" cx="4.141" cy="4.141" r="4.141" transform="translate(20.036 68.85)"/>
          <circle id="椭圆_74" data-name="椭圆 74" class="cls-12" cx="4.141" cy="4.141" r="4.141" transform="translate(58.797 68.85)"/>
          <g id="组_11" data-name="组 11" class="cls-13">
            <path id="路径_204" data-name="路径 204" class="cls-14" d="M43.4,89.16c-6.093,0-11.026,4.321-11.026,9.636s4.933,9.636,11.026,9.636,11.019-4.321,11.019-9.636S49.484,89.16,43.4,89.16Zm0,17.285c-4.825,0-8.736-3.414-8.736-7.634s3.911-7.634,8.736-7.634,8.729,3.414,8.729,7.634-3.875,7.62-8.729,7.62Z"/>
          </g>
          <path id="路径_206" data-name="路径 206" class="cls-15" d="M72.826,14.238S98.162,17.8,89.6,59.294c0,0-3,18.307-12.337,26.179,0,0,5.178-21.692-1.714-26.179a33.991,33.991,0,0,1-14.915-23.2S40.3,44.436,29.132,43.2s-20.4,23.7-16.305,42.268c0,0-20.252-17.89-9.859-53.431S45.372.1,45.372.1C63.672.1,72.826,14.238,72.826,14.238Z"/>
        </g>
      </g>
    </g>
  </g>
</svg>
