<svg xmlns="http://www.w3.org/2000/svg" width="20" height="20" viewBox="0 0 20 20">
  <path id="search" d="M37.89,44.011a.745.745,0,0,1,1.491,0,4.727,4.727,0,0,0,4.72,4.674.738.738,0,1,1,0,1.476,6.183,6.183,0,0,1-6.211-6.15ZM44.1,51.637a7.626,7.626,0,1,0-7.7-7.626A7.639,7.639,0,0,0,44.1,51.637Zm6.907-1.624,3.677,3.641a.709.709,0,0,1,0,1.033.725.725,0,0,1-1.043,0L49.915,51A9.293,9.293,0,0,1,44.1,53.064a9.078,9.078,0,1,1,9.193-9.053,8.843,8.843,0,0,1-2.286,6Z" transform="translate(-34.909 -34.909)" fill="#515151"/>
</svg>
