<svg id="users" xmlns="http://www.w3.org/2000/svg" xmlns:xlink="http://www.w3.org/1999/xlink" width="18" height="18" viewBox="0 0 18 18">
  <defs>
    <clipPath id="clip-path">
      <rect id="矩形_51" data-name="矩形 51" width="18" height="18" fill="#fff"/>
    </clipPath>
  </defs>
  <g id="组_40" data-name="组 40" clip-path="url(#clip-path)">
    <path id="路径_31" data-name="路径 31" d="M542.828,637.7h-4.645a.563.563,0,1,1,0-1.125h4.645a.563.563,0,1,1,0,1.125" transform="translate(-525.408 -622.583)" fill="#fff"/>
    <path id="路径_32" data-name="路径 32" d="M176.522,17.36a.572.572,0,0,1-.581-.562V12.3a.581.581,0,0,1,1.161,0v4.5a.572.572,0,0,1-.581.562m-6.055-7.136a5.212,5.212,0,0,1-5.3-5.112,5.3,5.3,0,0,1,10.591,0,5.213,5.213,0,0,1-5.3,5.112m0-9.1a4.067,4.067,0,0,0-4.134,3.987,4.137,4.137,0,0,0,8.268,0,4.067,4.067,0,0,0-4.134-3.987" transform="translate(-161.426)" fill="#fff"/>
    <path id="路径_33" data-name="路径 33" d="M13.519,401.8a.579.579,0,0,1-.315-.09,7.78,7.78,0,0,0-1.849-.845.571.571,0,0,1-.4-.415.552.552,0,0,1,.178-.544.6.6,0,0,1,.577-.114,8.994,8.994,0,0,1,2.127.972.554.554,0,0,1,.242.631.579.579,0,0,1-.557.4M.581,408.976A.572.572,0,0,1,0,408.414a8.977,8.977,0,0,1,6.378-8.624.585.585,0,0,1,.729.367.56.56,0,0,1-.379.706,7.852,7.852,0,0,0-5.567,7.551.572.572,0,0,1-.581.562" transform="translate(0 -390.976)" fill="#fff"/>
  </g>
</svg>
