<svg xmlns="http://www.w3.org/2000/svg" xmlns:xlink="http://www.w3.org/1999/xlink" width="390" height="844" viewBox="0 0 390 844">
  <defs>
    <clipPath id="clip-path">
      <rect id="矩形_47" data-name="矩形 47" width="17.88" height="18" fill="#fff"/>
    </clipPath>
    <clipPath id="clip-path-2">
      <rect id="矩形_48" data-name="矩形 48" width="17.999" height="18" fill="#fff"/>
    </clipPath>
    <clipPath id="clip-path-3">
      <rect id="矩形_51" data-name="矩形 51" width="18" height="18" fill="#fff"/>
    </clipPath>
    <clipPath id="clip-path-4">
      <rect id="矩形_39" data-name="矩形 39" width="15" height="15" fill="#6d6d6d"/>
    </clipPath>
    <clipPath id="clip-下拉菜单页">
      <rect width="390" height="844"/>
    </clipPath>
  </defs>
  <g id="下拉菜单页" clip-path="url(#clip-下拉菜单页)">
    <rect id="矩形_118" data-name="矩形 118" width="138" height="90" rx="8" transform="translate(221 80)" fill="#6d6d6d"/>
    <rect id="矩形_119" data-name="矩形 119" width="118" height="30" transform="translate(231 90)" fill="none"/>
    <g id="组_35" data-name="组 35" transform="translate(237 96)">
      <g id="组_32" data-name="组 32" transform="translate(0.12)">
        <g id="组_31" data-name="组 31" clip-path="url(#clip-path)">
          <path id="路径_22" data-name="路径 22" d="M5.486,13.769c-.059-.026-.119-.051-.166-.077a1.087,1.087,0,0,0-.974.038l-1.187.858.3-1.319.012-.038a1.318,1.318,0,0,0-.309-1.1A6.047,6.047,0,0,1,1.532,8.045,6.482,6.482,0,0,1,8.216,1.8a6.707,6.707,0,0,1,6.032,3.586,6.872,6.872,0,0,1,2.007,1.024A8.169,8.169,0,0,0,8.216.131,8.084,8.084,0,0,0,0,8.058a7.732,7.732,0,0,0,1.912,5.084l-.57,2.5a1.136,1.136,0,0,0,.4,1.165A.994.994,0,0,0,2.327,17,.959.959,0,0,0,2.9,16.8l2.03-1.485a8.189,8.189,0,0,0,1.555.487,6.815,6.815,0,0,1-1-2.036" transform="translate(-0.003 -0.127)" fill="#fff"/>
        </g>
      </g>
      <g id="组_34" data-name="组 34">
        <g id="组_33" data-name="组 33" clip-path="url(#clip-path-2)">
          <path id="路径_23" data-name="路径 23" d="M230.524,210.145a.844.844,0,0,1-.5-.166l-1.291-.935a5.813,5.813,0,0,1-2.2.423,5.549,5.549,0,1,1,5.772-5.545,5.431,5.431,0,0,1-1.279,3.483l.359,1.575a.958.958,0,0,1-.359,1,.8.8,0,0,1-.5.166m-3.98-10.231a4.02,4.02,0,1,0,0,8.016,4.557,4.557,0,0,0,1.888-.4.936.936,0,0,1,.825.038l.072.051.335.243-.1-.4a1.077,1.077,0,0,1,.263-.922,3.852,3.852,0,0,0,1.04-2.6,4.186,4.186,0,0,0-4.326-4.034" transform="translate(-214.332 -192.175)" fill="#fff"/>
        </g>
      </g>
    </g>
    <text id="创建群聊" transform="translate(302 112)" fill="#fff" font-size="18" font-family="MicrosoftYaHei, Microsoft YaHei" letter-spacing="0.2em"><tspan x="-41.4" y="0">创建群聊</tspan></text>
    <rect id="矩形_120" data-name="矩形 120" width="118" height="30" transform="translate(231 130)" fill="none"/>
    <text id="添加朋友" transform="translate(300 152)" fill="#fff" font-size="18" font-family="MicrosoftYaHei, Microsoft YaHei" letter-spacing="0.2em"><tspan x="-41.4" y="0">添加朋友</tspan></text>
    <g id="组_41" data-name="组 41" transform="translate(237 135)">
      <g id="组_40" data-name="组 40" clip-path="url(#clip-path-3)">
        <path id="路径_31" data-name="路径 31" d="M542.828,637.7h-4.645a.563.563,0,1,1,0-1.125h4.645a.563.563,0,1,1,0,1.125" transform="translate(-525.408 -622.583)" fill="#fff"/>
        <path id="路径_32" data-name="路径 32" d="M176.522,17.36a.572.572,0,0,1-.581-.562V12.3a.581.581,0,0,1,1.161,0v4.5a.572.572,0,0,1-.581.562m-6.055-7.136a5.212,5.212,0,0,1-5.3-5.112,5.3,5.3,0,0,1,10.591,0,5.213,5.213,0,0,1-5.3,5.112m0-9.1a4.067,4.067,0,0,0-4.134,3.987,4.137,4.137,0,0,0,8.268,0,4.067,4.067,0,0,0-4.134-3.987" transform="translate(-161.426)" fill="#fff"/>
        <path id="路径_33" data-name="路径 33" d="M13.519,401.8a.579.579,0,0,1-.315-.09,7.78,7.78,0,0,0-1.849-.845.571.571,0,0,1-.4-.415.552.552,0,0,1,.178-.544.6.6,0,0,1,.577-.114,8.994,8.994,0,0,1,2.127.972.554.554,0,0,1,.242.631.579.579,0,0,1-.557.4M.581,408.976A.572.572,0,0,1,0,408.414a8.977,8.977,0,0,1,6.378-8.624.585.585,0,0,1,.729.367.56.56,0,0,1-.379.706,7.852,7.852,0,0,0-5.567,7.551.572.572,0,0,1-.581.562" transform="translate(0 -390.976)" fill="#fff"/>
      </g>
    </g>
    <g id="组_30" data-name="组 30" transform="translate(333.738 83.378) rotate(-45)">
      <g id="组_12" data-name="组 12" clip-path="url(#clip-path-4)">
        <path id="路径_13" data-name="路径 13" d="M5.987,9.249.371,7.847A.49.49,0,0,1,.28,6.929L14.3.3a.491.491,0,0,1,.653.651l-6.639,14a.491.491,0,0,1-.919-.09Z" transform="translate(-0.001 -0.248)" fill="#6d6d6d"/>
      </g>
    </g>
  </g>
</svg>
