<svg xmlns="http://www.w3.org/2000/svg" xmlns:xlink="http://www.w3.org/1999/xlink" width="390" height="844" viewBox="0 0 390 844">
  <defs>
    <clipPath id="clip-path">
      <rect id="矩形_128" data-name="矩形 128" width="34" height="34" fill="rgba(0,0,0,0)"/>
    </clipPath>
    <clipPath id="clip-path-2">
      <path id="路径_107" data-name="路径 107" d="M23.259,105.264a1.523,1.523,0,0,0-.067.686l21.549,0a1.362,1.362,0,0,0-.09-.684c-1.028-2.638-4.963-4.87-10.686-4.87s-9.832,2.225-10.7,4.864" transform="translate(-23.179 -100.4)" fill="rgba(0,0,0,0)"/>
    </clipPath>
    <clipPath id="clip-创建群聊页_1">
      <rect width="390" height="844"/>
    </clipPath>
  </defs>
  <g id="创建群聊页_1" data-name="创建群聊页 – 1" clip-path="url(#clip-创建群聊页_1)">
    <rect width="390" height="844" fill="#f5f5f5"/>
    <rect id="矩形_21" data-name="矩形 21" width="390" height="45" transform="translate(0 30)" fill="#fff"/>
    <text id="创建群聊" transform="translate(195 60)" font-size="18" font-family="MicrosoftYaHei, Microsoft YaHei" letter-spacing="0.2em"><tspan x="-41.4" y="0">创建群聊</tspan></text>
    <rect id="矩形_22" data-name="矩形 22" width="390" height="46" transform="translate(0 74)" fill="#fff"/>
    <line id="直线_20" data-name="直线 20" x2="390" transform="translate(0 74.5)" fill="none" stroke="#d8d8d8" stroke-width="1"/>
    <path id="路径" d="M-8.817,7.16a.913.913,0,0,0-.322.679.9.9,0,0,0,.2.569l.108.115,7.984,7.212a1.061,1.061,0,0,0,1.425-.02A.891.891,0,0,0,.663,14.5l-.108-.115L-6.668,7.862.543,1.613A.892.892,0,0,0,.68.417L.579.3A1.062,1.062,0,0,0-.7.149l-.13.092Z" transform="translate(24.639 45)" fill="#707070"/>
    <g id="组件_18_2" data-name="组件 18 – 2" transform="translate(0 120)">
      <path id="路径_167" data-name="路径 167" d="M0,0H390V51.5H0Z" fill="#fff"/>
      <g id="矩形_32" data-name="矩形 32" transform="translate(45 9)" fill="#fff" stroke="#f5f5f5" stroke-width="1">
        <rect width="35" height="34.5" rx="6" stroke="none"/>
        <rect x="0.5" y="0.5" width="34" height="33.5" rx="5.5" fill="none"/>
      </g>
      <text id="Mg" transform="translate(99.843 32.754)" font-size="18" font-family="MicrosoftYaHei, Microsoft YaHei"><tspan x="-14.55" y="0">Mg</tspan></text>
      <line id="直线_17" data-name="直线 17" x2="390" transform="translate(0 52)" fill="none" stroke="#d8d8d8" stroke-width="1"/>
    </g>
    <rect id="矩形_148" data-name="矩形 148" width="390" height="49" transform="translate(0 795)" fill="#efefef"/>
    <rect id="矩形_149" data-name="矩形 149" width="65" height="35" rx="6" transform="translate(310 801)" fill="#007bff"/>
    <text id="完成_1_" data-name="完成(1)" transform="translate(343 824)" fill="#fff" font-size="14" font-family="MicrosoftYaHei, Microsoft YaHei"><tspan x="-22.781" y="0">完成(1)</tspan></text>
    <g id="more" transform="translate(190.333 -375.667)">
      <path id="路径_151" data-name="路径 151" d="M170.667,428.167a1.706,1.706,0,1,0,1.693-1.5A1.606,1.606,0,0,0,170.667,428.167Z" fill="#515151"/>
      <path id="路径_152" data-name="路径 152" d="M426.667,428.167a1.706,1.706,0,1,0,1.693-1.5A1.606,1.606,0,0,0,426.667,428.167Z" transform="translate(-250.693)" fill="#515151"/>
      <path id="路径_153" data-name="路径 153" d="M682.667,428.167a1.706,1.706,0,1,0,1.693-1.5A1.606,1.606,0,0,0,682.667,428.167Z" transform="translate(-501.387)" fill="#515151"/>
    </g>
    <path id="creategroup-checked" d="M72.555,63.1a10,10,0,1,0,10,10,10,10,0,0,0-10-10Zm5.394,7.443L71.185,77.3a.368.368,0,0,1-.517-.034l-.453-.453h0l-3.03-3.03a.39.39,0,0,1,0-.551l.826-.826a.389.389,0,0,1,.551,0l2.382,2.382,5.628-5.628a.368.368,0,0,1,.517.034l.826.826a.368.368,0,0,1,.034.517Zm0,0" transform="translate(-46.555 72.904)" fill="#007bff"/>
    <text id="搜索" transform="translate(53 104)" fill="#707070" font-size="16" font-family="MicrosoftYaHei, Microsoft YaHei" letter-spacing="0.1em"><tspan x="-16.8" y="0">搜索</tspan></text>
    <path id="搜索-2" data-name="搜索" d="M37.145,41.736a.559.559,0,0,1,1.118,0,3.546,3.546,0,0,0,3.54,3.506.554.554,0,1,1,0,1.107,4.637,4.637,0,0,1-4.658-4.613Zm4.658,5.72a5.72,5.72,0,1,0-5.776-5.72A5.73,5.73,0,0,0,41.8,47.455Zm5.18-1.218,2.758,2.731a.531.531,0,0,1,0,.775.544.544,0,0,1-.783,0l-2.8-2.768a6.97,6.97,0,0,1-4.36,1.55,6.809,6.809,0,1,1,6.894-6.79,6.632,6.632,0,0,1-1.714,4.5Z" transform="translate(-18.909 55.091)" fill="#515151"/>
    <line id="直线_31" data-name="直线 31" x2="390" transform="translate(0 121)" fill="none" stroke="#d8d8d8" stroke-width="1"/>
    <g id="nan" transform="translate(46 129)">
      <g id="组_193" data-name="组 193">
        <g id="组_192" data-name="组 192" clip-path="url(#clip-path)">
          <path id="路径_106" data-name="路径 106" d="M44.741,105.953h0a1.365,1.365,0,0,0-.09-.684c-1.028-2.638-4.963-4.87-10.686-4.87s-9.832,2.225-10.7,4.864a1.523,1.523,0,0,0-.067.686Z" transform="translate(-16.612 -71.953)" fill="#98375e"/>
        </g>
      </g>
      <g id="组_195" data-name="组 195" transform="translate(6.567 28.447)">
        <g id="组_194" data-name="组 194" clip-path="url(#clip-path-2)">
          <rect id="矩形_129" data-name="矩形 129" width="2.259" height="14.874" transform="translate(2.861 -2.939)" fill="#c05371"/>
          <rect id="矩形_130" data-name="矩形 130" width="1.128" height="14.874" transform="translate(5.475 -2.939)" fill="#c05371"/>
          <rect id="矩形_131" data-name="矩形 131" width="2.259" height="14.874" transform="translate(16.291 -2.941)" fill="#c05371"/>
          <rect id="矩形_132" data-name="矩形 132" width="1.128" height="14.874" transform="translate(14.808 -2.941)" fill="#c05371"/>
        </g>
      </g>
      <g id="组_197" data-name="组 197">
        <g id="组_196" data-name="组 196" clip-path="url(#clip-path)">
          <path id="路径_108" data-name="路径 108" d="M51.858,75.112h4.771v7.032A2.131,2.131,0,0,1,54.5,84.275h-.509a2.131,2.131,0,0,1-2.131-2.131Z" transform="translate(-37.165 -53.83)" fill="#fdcc9b"/>
          <path id="路径_109" data-name="路径 109" d="M51.295,90.094l4.93-.085v1.1a8.222,8.222,0,0,1-4.93-1.015Z" transform="translate(-36.761 -64.506)" fill="#fcbc85"/>
          <path id="路径_110" data-name="路径 110" d="M23.769,50.41h16.1a3.09,3.09,0,0,1,3.09,3.09h0a3.09,3.09,0,0,1-3.09,3.09h-16.1a3.09,3.09,0,0,1-3.09-3.09h0a3.09,3.09,0,0,1,3.09-3.09" transform="translate(-14.82 -36.127)" fill="#fcbc85"/>
          <path id="路径_111" data-name="路径 111" d="M46.649,32.125c0,5.355-1.128,9.906-8.922,9.906s-8.905-4.551-8.905-9.906,3.985-9.7,8.913-9.7,8.915,4.342,8.915,9.7" transform="translate(-20.656 -16.074)" fill="#fdcc9b"/>
          <path id="路径_112" data-name="路径 112" d="M41.1,46.891c.575,0,1.4.419,1.4.241a1.421,1.421,0,0,0-2.8,0c0,.168.826-.241,1.4-.241" transform="translate(-28.454 -32.929)" fill="#401900"/>
          <path id="路径_113" data-name="路径 113" d="M41.837,54.659a1.11,1.11,0,1,1-1.135,1.11,1.122,1.122,0,0,1,1.135-1.11" transform="translate(-29.17 -39.172)" fill="#3b2519"/>
          <path id="路径_114" data-name="路径 114" d="M41.949,55.54a.389.389,0,1,1-.455.384.424.424,0,0,1,.455-.384" transform="translate(-29.737 -39.804)" fill="#fff"/>
          <path id="路径_115" data-name="路径 115" d="M71.835,46.891c.577,0,1.4.419,1.4.241a1.421,1.421,0,0,0-2.8,0c0,.168.825-.241,1.4-.241" transform="translate(-50.478 -32.929)" fill="#401900"/>
          <path id="路径_116" data-name="路径 116" d="M72.565,54.659a1.11,1.11,0,1,1-1.135,1.11,1.122,1.122,0,0,1,1.135-1.11" transform="translate(-51.192 -39.172)" fill="#3b2519"/>
          <path id="路径_117" data-name="路径 117" d="M72.684,55.54a.389.389,0,1,1-.455.384.424.424,0,0,1,.455-.384" transform="translate(-51.764 -39.804)" fill="#fff"/>
          <path id="路径_118" data-name="路径 118" d="M56.663,70.924c-.629,0-1.319-.459-1.319-.375,0,.589.591.856,1.319.856s1.317-.266,1.317-.856c0-.084-.692.375-1.317.375" transform="translate(-39.663 -50.553)" fill="#fcbc85"/>
          <path id="路径_119" data-name="路径 119" d="M56.86,83.058a6.208,6.208,0,0,1-1.242-.233c0,.233.556.419,1.242.419s1.24-.191,1.24-.419a5.694,5.694,0,0,1-1.24.233" transform="translate(-39.86 -59.358)" fill="#fcbc85"/>
          <path id="路径_120" data-name="路径 120" d="M53.364,79.2a13.419,13.419,0,0,1-2.624-.474c0,.476,1.174.864,2.624.864s2.622-.388,2.622-.864a13.481,13.481,0,0,1-2.622.474" transform="translate(-36.364 -56.415)" fill="#f7945e"/>
        </g>
      </g>
      <g id="组_199" data-name="组 199" transform="translate(6.567 28.447)">
        <g id="组_198" data-name="组 198" clip-path="url(#clip-path-2)">
          <path id="路径_121" data-name="路径 121" d="M52.086,88.3A2.83,2.83,0,1,0,55.3,91.1a3.03,3.03,0,0,0-3.209-2.8m0,5.034a2.243,2.243,0,1,1,2.542-2.222,2.4,2.4,0,0,1-2.542,2.222Z" transform="translate(-41.595 -91.728)" fill="#c05371"/>
        </g>
      </g>
      <g id="组_201" data-name="组 201">
        <g id="组_200" data-name="组 200" clip-path="url(#clip-path)">
          <path id="路径_123" data-name="路径 123" d="M21.975,9.042C22.517,2.727,27.647,0,32.751,0S42.985,2.727,43.528,9.042s-1.084,11.309-1.963,10.7.466-8.832-2.269-8.32c-4.314.814-11.575-2.775-11.575-2.775a4.033,4.033,0,0,1-1.678,3.223c-3.312,2.081-1.225,7.271-2.1,7.877s-2.514-4.4-1.971-10.7" transform="translate(-15.672)" fill="#342620" fill-rule="evenodd"/>
          <path id="路径_124" data-name="路径 124" d="M50.759,86.839a6.048,6.048,0,0,0-2.412-.646h-.054a5.963,5.963,0,0,0-2.412.646c-.7.248-2.565-.449-2.4,0s2.108,1.441,4.811,1.455h.046c2.7-.015,4.647-1.011,4.811-1.455s-1.665.252-2.391,0" transform="translate(-31.154 -61.772)" fill="#342620" fill-rule="evenodd"/>
        </g>
      </g>
    </g>
    <g id="状态栏_白" data-name="状态栏/白">
      <rect id="状态栏_白_background" data-name="状态栏/白 background" width="390" height="30"/>
      <path id="矩形" d="M0,0H390V30H0Z" fill="#fff"/>
      <g id="Right_Detail" data-name="Right Detail" transform="translate(350 11.211)">
        <g id="Battery">
          <path id="Rectangle_3" data-name="Rectangle 3" d="M0,2.5A2.5,2.5,0,0,1,2.5,0h17A2.5,2.5,0,0,1,22,2.5V8.734A1.766,1.766,0,0,1,20.234,10.5H2.5A2.5,2.5,0,0,1,0,8Z"/>
          <path id="Combined_Shape" data-name="Combined Shape" d="M0,3.874H0V0A2,2,0,0,1,1.5,1.937,2,2,0,0,1,0,3.873Z" transform="translate(23 3.5)"/>
          <rect id="Rectangle_Copy_4" data-name="Rectangle Copy 4" width="18" height="6.5" rx="1" transform="translate(2 2)"/>
        </g>
      </g>
      <text id="Time" transform="translate(26 20)" font-size="12" font-family="SegoeUI, Segoe UI"><tspan x="-11.004" y="0">9:41</tspan></text>
      <g id="Left_Detail" data-name="Left Detail" transform="translate(312 10.81)">
        <path id="Wifi" d="M4.361,6.906a2.884,2.884,0,0,1,4.284.032L6.522,9ZM6.487,4.477A4.419,4.419,0,0,0,3.27,5.848L2.179,4.793a6.037,6.037,0,0,1,8.645.029L9.734,5.88A4.416,4.416,0,0,0,6.487,4.477Zm0-2.984a7.54,7.54,0,0,0-5.4,2.245L0,2.682A9.1,9.1,0,0,1,6.487,0,9.1,9.1,0,0,1,13,2.707L11.911,3.764A7.537,7.537,0,0,0,6.487,1.492Z" transform="translate(19.5 0.5)"/>
        <path id="Mobile_Signal" data-name="Mobile Signal" d="M12.5,9.5A.5.5,0,0,1,12,9V.5a.5.5,0,0,1,.5-.5H14a.5.5,0,0,1,.5.5V9a.5.5,0,0,1-.5.5Zm-4,0A.5.5,0,0,1,8,9V3a.5.5,0,0,1,.5-.5H10a.5.5,0,0,1,.5.5V9a.5.5,0,0,1-.5.5Zm-4,0A.5.5,0,0,1,4,9V5a.5.5,0,0,1,.5-.5H6a.5.5,0,0,1,.5.5V9a.5.5,0,0,1-.5.5Zm-4,0A.5.5,0,0,1,0,9V7a.5.5,0,0,1,.5-.5H2a.5.5,0,0,1,.5.5V9a.5.5,0,0,1-.5.5Z"/>
      </g>
    </g>
  </g>
</svg>
