<svg xmlns="http://www.w3.org/2000/svg" xmlns:xlink="http://www.w3.org/1999/xlink" width="390" height="844" viewBox="0 0 390 844">
  <defs>
    <clipPath id="clip-path">
      <rect id="矩形_40" data-name="矩形 40" width="19.947" height="20" fill="#515151"/>
    </clipPath>
    <clipPath id="clip-path-2">
      <rect id="矩形_41" data-name="矩形 41" width="20" height="20" fill="#515151"/>
    </clipPath>
    <clipPath id="clip-path-4">
      <rect id="矩形_2" data-name="矩形 2" width="70" height="70" fill="#fff" stroke="#707070" stroke-width="1"/>
    </clipPath>
    <clipPath id="clip-path-5">
      <path id="路径_177" data-name="路径 177" d="M61.056,111.908h0a2.781,2.781,0,0,0-.18-1.395c-2.1-5.382-10.122-9.934-21.8-9.934s-20.067,4.55-21.817,9.93a3.106,3.106,0,0,0-.137,1.4H61.056Z" transform="translate(-17.099 -100.579)" fill="none"/>
    </clipPath>
    <clipPath id="clip-我的">
      <rect width="390" height="844"/>
    </clipPath>
  </defs>
  <g id="我的" clip-path="url(#clip-我的)">
    <rect width="390" height="844" fill="#f5f5f5"/>
    <rect id="矩形_14" data-name="矩形 14" width="390" height="170" transform="translate(0 30)" fill="#fff"/>
    <rect id="矩形-底边框" width="390" height="49" transform="translate(0 795)" fill="#efefef" opacity="0.9"/>
    <g id="news-unchecked" transform="translate(40 800)">
      <rect id="矩形-消息" width="60" height="39" fill="none"/>
      <g id="组-消息" transform="translate(20)">
        <g id="组_16" data-name="组 16">
          <g id="组_15" data-name="组 15" clip-path="url(#clip-path)">
            <path id="路径_14" data-name="路径 14" d="M9.974.858C4.491.858,0,4.675,0,9.451L0,9.6a8.565,8.565,0,0,0,5.426,7.5l.107.046v2.89l0,.059a.767.767,0,0,0,1.226.554l3.471-2.611.067,0c5.334-.148,9.646-3.908,9.646-8.588,0-4.776-4.491-8.593-9.974-8.593m0,1.534c4.686,0,8.44,3.19,8.44,7.058s-3.753,7.058-8.44,7.058l-.071,0a.768.768,0,0,0-.39.151L7.07,18.5V16.629a.767.767,0,0,0-.5-.72c-3.047-1.128-5.034-3.655-5.034-6.459,0-3.868,3.753-7.058,8.44-7.058" transform="translate(0 -0.834)" fill="#515151"/>
          </g>
        </g>
        <g id="组_18" data-name="组 18">
          <g id="组_17" data-name="组 17" clip-path="url(#clip-path-2)">
            <path id="路径_15" data-name="路径 15" d="M150.938,328.538a.77.77,0,0,1,.684.416l-.037-.054a4.479,4.479,0,0,0,3.73,2.129l.139,0v1.534a6.009,6.009,0,0,1-5.079-2.709l-.08-.121,0,0a.767.767,0,0,1,.64-1.194" transform="translate(-145.938 -319.307)" fill="#515151"/>
          </g>
        </g>
      </g>
      <text id="消息" transform="translate(30 36)" fill="#515151" font-size="12" font-family="MicrosoftYaHei, Microsoft YaHei" letter-spacing="0.2em"><tspan x="-13.2" y="0">消息</tspan></text>
    </g>
    <g id="contacts-unchecked" transform="translate(165 800)">
      <rect id="矩形-联系人" width="60" height="39" fill="none"/>
      <g id="组-联系人" transform="translate(20)">
        <g id="组_22" data-name="组 22" clip-path="url(#clip-path-2)">
          <path id="路径_18" data-name="路径 18" d="M7.587,1.141a6.138,6.138,0,0,1,5.854,6.388,6.517,6.517,0,0,1-2.88,5.5,8.3,8.3,0,0,1,4.6,6.114.811.811,0,0,1-.215.744.659.659,0,0,1-.7.153.752.752,0,0,1-.461-.6,6.508,6.508,0,0,0-6.048-5.529l-.139,0H7.568A6.491,6.491,0,0,0,1.39,19.446a.706.706,0,0,1-.825.592.766.766,0,0,1-.552-.894,8.3,8.3,0,0,1,4.6-6.112,6.517,6.517,0,0,1-2.881-5.5A6.138,6.138,0,0,1,7.587,1.141M13.207.119A5.648,5.648,0,0,1,18.592,6a6.068,6.068,0,0,1-2.183,4.727l-.052.041A7.364,7.364,0,0,1,20,17.239a.705.705,0,1,1-1.4,0,5.7,5.7,0,0,0-4.144-5.623.786.786,0,0,1-.015-1.487l-.027.01A4.323,4.323,0,0,0,17.187,6a4.509,4.509,0,0,0-1.456-3.36,3.738,3.738,0,0,0-3.3-.9.707.707,0,0,1-.826-.6.767.767,0,0,1,.553-.9A4.962,4.962,0,0,1,13.207.119M7.587,2.674A4.665,4.665,0,0,0,3.139,7.529a4.665,4.665,0,0,0,4.449,4.855H7.6a4.667,4.667,0,0,0,4.44-4.865A4.663,4.663,0,0,0,7.587,2.674" transform="translate(0 -0.115)" fill="#515151"/>
        </g>
      </g>
      <text id="联系人" transform="translate(30 36)" fill="#515151" font-size="12" font-family="MicrosoftYaHei, Microsoft YaHei" letter-spacing="0.2em"><tspan x="-20.4" y="0">联系人</tspan></text>
    </g>
    <g id="矩形_141" data-name="矩形 141" transform="translate(15 80)" fill="#fff" stroke="#cecece" stroke-width="1">
      <rect width="70" height="70" rx="6" stroke="none"/>
      <rect x="0.5" y="0.5" width="69" height="69" rx="5.5" fill="none"/>
    </g>
    <text id="Mg1" transform="translate(117 110)" font-size="20" font-family="MicrosoftYaHei-Bold, Microsoft YaHei" font-weight="700"><tspan x="-23.096" y="0">Mg1</tspan></text>
    <g id="nv" transform="translate(-62 -139)">
      <g id="蒙版组_13" data-name="蒙版组 13" transform="translate(77 219)" clip-path="url(#clip-path-4)">
        <g id="图层_2" data-name="图层 2" transform="translate(2.916 0)">
          <g id="图层_1" data-name="图层 1" transform="translate(0 0)">
            <path id="路径_165" data-name="路径 165" d="M21.408,64.283H57.685l-.308,7.273a9.6,9.6,0,0,0,.552,3.572c.676,1.908,1.326,5.181-1.129,7.051,0,0,2.969,3.4.915,6.845,0,0,5.308,2.1,2.952,7.594H18.073s-2.5-5.133,2.952-7.594c0,0-2.52-3.2.915-6.845,0,0-3.483-2.635-.338-8.983a5.823,5.823,0,0,0,.573-3.422Z" transform="translate(-7.291 -26.785)" fill="#703910"/>
            <path id="路径_166" data-name="路径 166" d="M61.056,111.908h0a2.781,2.781,0,0,0-.18-1.395c-2.1-5.382-10.122-9.934-21.8-9.934s-20.067,4.55-21.817,9.93a3.106,3.106,0,0,0-.137,1.4H61.056Z" transform="translate(-7.124 -41.908)" fill="#d85b72"/>
            <rect id="矩形_38" data-name="矩形 38" width="42.586" height="12.608" rx="6.304" transform="translate(9.952 29.464)" fill="#fcbc85"/>
            <path id="路径_167" data-name="路径 167" d="M45.471,75.541H55.2v14.35a4.346,4.346,0,0,1-4.346,4.346h-1.04a4.346,4.346,0,0,1-4.346-4.355Z" transform="translate(-18.945 -31.476)" fill="#fdcc9b"/>
            <path id="路径_168" data-name="路径 168" d="M44.914,90.475,54.972,90.3v2.242a16.758,16.758,0,0,1-10.058-2.067Z" transform="translate(-18.713 -37.625)" fill="#fcbc85"/>
            <path id="路径_169" data-name="路径 169" d="M59.014,43.091c0,10.922-7.175,20.206-18.2,20.206s-18.2-9.267-18.2-20.206,8.15-19.761,18.2-19.761S59.014,32.186,59.014,43.091Z" transform="translate(-9.42 -9.721)" fill="#fdcc9b"/>
            <path id="路径_170" data-name="路径 170" d="M35.157,49.134c1.857,0,4.518.792,4.518.467,0-1.258-2.024-2.28-4.518-2.28s-4.522,1.023-4.522,2.28C30.635,49.925,33.3,49.134,35.157,49.134Z" transform="translate(-12.764 -19.717)" fill="#86461b"/>
            <path id="路径_171" data-name="路径 171" d="M66.195,49.134c1.853,0,4.518.792,4.518.467,0-1.258-2.024-2.28-4.518-2.28s-4.522,1.023-4.522,2.28C61.672,49.925,64.338,49.134,66.195,49.134Z" transform="translate(-25.696 -19.717)" fill="#86461b"/>
            <ellipse id="椭圆_57" data-name="椭圆 57" cx="2.528" cy="2.601" rx="2.528" ry="2.601" transform="translate(19.865 31.966)" fill="#3b2519"/>
            <ellipse id="椭圆_58" data-name="椭圆 58" cx="1.014" cy="0.898" rx="1.014" ry="0.898" transform="translate(20.365 32.557)" fill="#fff"/>
            <ellipse id="椭圆_59" data-name="椭圆 59" cx="2.528" cy="2.601" rx="2.528" ry="2.601" transform="translate(37.97 31.966)" fill="#3b2519"/>
            <ellipse id="椭圆_60" data-name="椭圆 60" cx="1.014" cy="0.898" rx="1.014" ry="0.898" transform="translate(38.471 32.557)" fill="#fff"/>
            <path id="路径_172" data-name="路径 172" d="M52.446,73.129c-.911,0-1.921-.856-1.921-.748,0,.753.856,1.365,1.921,1.365s1.917-.612,1.917-1.365C54.36,72.271,53.352,73.129,52.446,73.129Z" transform="translate(-21.051 -30.155)" fill="#fcbc85"/>
            <path id="路径_173" data-name="路径 173" d="M53.115,84.536c-.467,0-.984-.509-.984-.428a1,1,0,0,0,1.963,0C54.1,84.027,53.577,84.536,53.115,84.536Z" transform="translate(-21.72 -35.042)" fill="#fcbc85"/>
            <path id="路径_174" data-name="路径 174" d="M51.129,81.082c-1.789,0-3.765-1.185-3.765-1.039,0,1.044,1.686,1.891,3.765,1.891s3.761-.856,3.761-1.891C54.889,79.9,52.913,81.082,51.129,81.082Z" transform="translate(-19.734 -33.346)" fill="#f7945e"/>
            <circle id="椭圆_61" data-name="椭圆 61" cx="2.46" cy="2.46" r="2.46" transform="translate(17.473 39.616)" fill="#f9aa8d"/>
            <circle id="椭圆_62" data-name="椭圆 62" cx="2.46" cy="2.46" r="2.46" transform="translate(40.499 39.616)" fill="#f9aa8d"/>
            <g id="组_9" data-name="组 9" transform="translate(9.975 58.671)" clip-path="url(#clip-path-5)">
              <path id="路径_175" data-name="路径 175" d="M49.065,88.6c-3.617,0-6.55,2.567-6.55,5.724s2.931,5.724,6.55,5.724,6.546-2.567,6.546-5.724S52.681,88.6,49.065,88.6Zm0,10.267c-2.867,0-5.192-2.032-5.192-4.535S46.2,89.8,49.065,89.8s5.185,2.028,5.185,4.535-2.31,4.526-5.185,4.526Z" transform="translate(-27.689 -95.588)" fill="#f5919d"/>
              <path id="路径_176" data-name="路径 176" d="M52.1,97.433c0,.175.03.355.03.535,0,3.162-2.931,5.724-6.546,5.724s-6.537-2.563-6.537-5.724v-.317l-4.886.081,3.743,12.833H52.2L57.19,97.35Z" transform="translate(-24.208 -99.234)" fill="#f7acba"/>
            </g>
            <path id="路径_178" data-name="路径 178" d="M62.585,54.967c3.551-5.99-1.16-8.908-1.16-8.908,2.1-5.232-1.215-7.128-1.215-7.128.83-2.37,0-3.641,0-3.641,4.454-6.969-1.173-9.562-1.173-9.562,3.7-5.934-1.711-7.859-1.711-7.859,1.536-6.76-5.133-7.547-5.133-7.547A6.3,6.3,0,0,0,46.7,4.49c-2.985-4.8-6.87-2.264-6.87-2.264-4.761-4.625-10.7-.6-10.7-.6A8.211,8.211,0,0,0,19.025,4.489C12.663,4.08,10.7,10.222,10.7,10.222,5.078,12.258,5.562,19.73,5.562,19.73,1.878,23.1,4.369,29.238,4.369,29.238c-3.2,3.388.072,9.029.072,9.029-4.586,3-1.626,7.793-1.626,7.793a6.224,6.224,0,0,0-1.164,8.908c-3.718,5.006,0,8.676,0,8.676-.308,4.423,3.974,4.278,3.974,4.278.885,2.139,3.774,2.1,4.33,2.066a3.114,3.114,0,0,1,.158-.967,11.443,11.443,0,0,1,4.993-5.754c-.475-.83-.561-1.983.783-3.422,1.283-.693-1.5-1.639-.167-3.908.394-.676,3.363-2.721.924-4.813,0,0,1.983-3.068.856-4.083a2.85,2.85,0,0,0-.5-3.4A8.291,8.291,0,0,0,14.93,41.6c2.251-2.5-.453-7.7-.453-7.7,2.772-2.4.6-7.376.6-7.376a4.806,4.806,0,0,0,4.984-4.381c3.239,3.607,6.942.3,6.942.3,3.607,3.174,7.547-.907,7.547-.907,5.788,1.283,6.036-2.867,6.036-2.867.933,3.307,2.508,5.156,4.83,5.279a5.374,5.374,0,0,0,3.166,3.928c-2.186,4.375.3,6.789.3,6.789a3.422,3.422,0,0,0-.15,4.526,5.476,5.476,0,0,0,.257,5.737c-1.93.517-1.822,2.28-1.655,4.083-2.511,1.283.761,4.971,1.108,5.942.569,1.617.317,3.422-1.767,5a1.99,1.99,0,0,1,1.283,2.888,12.96,12.96,0,0,1,5.8,6.178,2.858,2.858,0,0,1,.2.958h.24c4.163,0,4.423-2.062,4.423-2.062,4.835-.372,3.974-4.278,3.974-4.278C66.137,60.452,62.585,54.967,62.585,54.967Z" transform="translate(0.001 -0.001)" fill="#86461b"/>
            <path id="路径_179" data-name="路径 179" d="M36.181,101.46A81.35,81.35,0,0,0,39.3,112.275H36.532s-3.14-6.323-3.624-9.357C33.084,101.584,36.181,101.46,36.181,101.46Z" transform="translate(-13.711 -42.275)" fill="#ba396a"/>
            <path id="路径_180" data-name="路径 180" d="M65.8,101.46a81.022,81.022,0,0,1-3.118,10.815h2.768s3.153-6.323,3.624-9.357C68.9,101.584,65.8,101.46,65.8,101.46Z" transform="translate(-26.118 -42.275)" fill="#ba396a"/>
          </g>
        </g>
      </g>
    </g>
    <text id="UID:1" transform="translate(118 140)" font-size="18" font-family="MicrosoftYaHei, Microsoft YaHei"><tspan x="-23.665" y="0">UID:1</tspan></text>
    <path id="card" d="M112,113.4a1.4,1.4,0,0,1,1.4-1.4h3.393a1.4,1.4,0,0,1,1.4,1.4v3.393a1.4,1.4,0,0,1-1.4,1.4H113.4a1.4,1.4,0,0,1-1.4-1.4Zm1.4-.334a.334.334,0,0,0-.334.334v3.393a.334.334,0,0,0,.334.334h3.393a.334.334,0,0,0,.334-.334V113.4a.334.334,0,0,0-.334-.334Zm5.775.334a1.4,1.4,0,0,1,1.4-1.4h3.393a1.4,1.4,0,0,1,1.4,1.4v3.393a1.4,1.4,0,0,1-1.4,1.4h-3.39a1.4,1.4,0,0,1-1.4-1.4V113.4Zm1.4-.334a.334.334,0,0,0-.334.334v3.393a.334.334,0,0,0,.334.334h3.393a.334.334,0,0,0,.334-.334V113.4a.334.334,0,0,0-.334-.334h-3.39ZM112,120.581a1.4,1.4,0,0,1,1.4-1.4h3.393a1.4,1.4,0,0,1,1.4,1.4v3.393a1.4,1.4,0,0,1-1.4,1.4H113.4a1.4,1.4,0,0,1-1.4-1.4Zm1.4-.334a.334.334,0,0,0-.334.334v3.393a.334.334,0,0,0,.334.332h3.393a.334.334,0,0,0,.334-.334v-3.39a.334.334,0,0,0-.334-.334Zm5.775-.535a.535.535,0,0,1,.535-.535h1.474a.535.535,0,0,1,.535.535v1.449h.821v-1.449a.535.535,0,0,1,.535-.535h1.6a.535.535,0,1,1,0,1.07h-1.067V121.7a.535.535,0,0,1-.535.535h-1.89a.535.535,0,0,1-.535-.535v-1.449h-.4v1.548a.535.535,0,1,1-1.07,0v-2.083Zm5.5.907a.535.535,0,0,1,.535.535v.891a.535.535,0,1,1-1.07,0v-.892a.535.535,0,0,1,.534-.535Zm-4.027,2.521a.535.535,0,0,1,.535-.535h2.243a.535.535,0,0,1,0,1.07h-1.708v.5h2.422v-.354a.535.535,0,0,1,1.07,0v.891a.535.535,0,0,1-.535.535h-3.492a.535.535,0,0,1-.535-.535Zm-.939-.215a.535.535,0,0,1,.535.535v1.25a.535.535,0,1,1-1.07,0v-1.25a.535.535,0,0,1,.534-.535Z" transform="translate(231.314 14.314)" fill="#515151"/>
    <path id="return-right" d="M-8.906,5.176a.66.66,0,0,0-.233.491.651.651,0,0,0,.145.411l.078.083,5.771,5.213a.767.767,0,0,0,1.03-.014.644.644,0,0,0,.061-.878l-.078-.083L-7.353,5.683-2.14,1.166A.645.645,0,0,0-2.041.3L-2.114.217A.768.768,0,0,0-3.039.108l-.094.067Z" transform="translate(365.475 138.783) rotate(180)" fill="#707070"/>
    <rect id="矩形_169" data-name="矩形 169" width="390" height="45" transform="translate(0 210)" fill="#fff"/>
    <g id="set" transform="translate(-58.408 116.966)">
      <path id="路径_154" data-name="路径 154" d="M338.016,337.8a5.32,5.32,0,1,0,0,10.64,5.568,5.568,0,0,0,.962-.092,1,1,0,0,0-.175-1.986,1.021,1.021,0,0,0-.183.017,3.459,3.459,0,0,1-.6.062,3.32,3.32,0,1,1,3.35-3.32,3.089,3.089,0,0,1-.063.591,1,1,0,0,0,.816,1.164,1.04,1.04,0,0,0,.183.017,1.008,1.008,0,0,0,.994-.825,5.08,5.08,0,0,0,.092-.952,5.249,5.249,0,0,0-1.575-3.758A5.373,5.373,0,0,0,338.016,337.8Z" transform="translate(-252.61 -227.093)" fill="#515151"/>
      <path id="路径_155" data-name="路径 155" d="M96.207,113.857a.773.773,0,0,0-.569-.622,3.84,3.84,0,0,1-2.475-1.925,4.232,4.232,0,0,1-.346-3.223.812.812,0,0,0-.225-.831,10.842,10.842,0,0,0-3.575-2.178.712.712,0,0,0-.247-.044.733.733,0,0,0-.55.252,3.7,3.7,0,0,1-5.629,0,.733.733,0,0,0-.8-.208,10.838,10.838,0,0,0-3.575,2.181.819.819,0,0,0-.226.825,4.224,4.224,0,0,1-.343,3.225,3.832,3.832,0,0,1-2.475,1.925.779.779,0,0,0-.569.623,12,12,0,0,0,0,4.349.773.773,0,0,0,.569.622,3.84,3.84,0,0,1,2.475,1.925,4.225,4.225,0,0,1,.343,3.226.825.825,0,0,0,.226.825,10.857,10.857,0,0,0,3.575,2.178.724.724,0,0,0,.794-.207,3.7,3.7,0,0,1,5.63,0,.733.733,0,0,0,.55.253.745.745,0,0,0,.248-.043,10.858,10.858,0,0,0,3.575-2.179.825.825,0,0,0,.225-.825,4.217,4.217,0,0,1,.345-3.225,3.83,3.83,0,0,1,2.475-1.925.779.779,0,0,0,.569-.622,12.022,12.022,0,0,0,0-4.351Zm-5.3,9.615a8.781,8.781,0,0,1-2.157,1.314,4.858,4.858,0,0,0-6.7,0,8.785,8.785,0,0,1-2.157-1.314,5.548,5.548,0,0,0-.575-3.733,5.111,5.111,0,0,0-2.78-2.392,9.613,9.613,0,0,1,0-2.631,5.112,5.112,0,0,0,2.78-2.392,5.578,5.578,0,0,0,.574-3.733,8.788,8.788,0,0,1,2.157-1.314,4.858,4.858,0,0,0,6.7,0,8.786,8.786,0,0,1,2.157,1.314,5.572,5.572,0,0,0,.572,3.733,5.111,5.111,0,0,0,2.78,2.392,9.783,9.783,0,0,1,.092,1.318,9.127,9.127,0,0,1-.092,1.312,5.112,5.112,0,0,0-2.78,2.392,5.591,5.591,0,0,0-.571,3.734Z" transform="translate(0 0)" fill="#515151"/>
    </g>
    <text id="设置" transform="translate(49 239)" font-size="16" font-family="MicrosoftYaHei, Microsoft YaHei" letter-spacing="0.01em"><tspan x="0" y="0">设置</tspan></text>
    <path id="return-right-2" data-name="return-right" d="M-8.906,5.176a.66.66,0,0,0-.233.491.651.651,0,0,0,.145.411l.078.083,5.771,5.213a.767.767,0,0,0,1.03-.014.644.644,0,0,0,.061-.878l-.078-.083L-7.353,5.683-2.14,1.166A.645.645,0,0,0-2.041.3L-2.114.217A.768.768,0,0,0-3.039.108l-.094.067Z" transform="translate(365.475 238.566) rotate(180)" fill="#707070"/>
    <rect id="矩形_170" data-name="矩形 170" width="390" height="45" transform="translate(0 255)" fill="#fff"/>
    <text id="关于" transform="translate(49 284)" font-size="16" font-family="MicrosoftYaHei, Microsoft YaHei" letter-spacing="0.01em"><tspan x="0" y="0">关于</tspan></text>
    <path id="return-right-3" data-name="return-right" d="M-8.906,5.176a.66.66,0,0,0-.233.491.651.651,0,0,0,.145.411l.078.083,5.771,5.213a.767.767,0,0,0,1.03-.014.644.644,0,0,0,.061-.878l-.078-.083L-7.353,5.683-2.14,1.166A.645.645,0,0,0-2.041.3L-2.114.217A.768.768,0,0,0-3.039.108l-.094.067Z" transform="translate(365.475 283.566) rotate(180)" fill="#707070"/>
    <g id="about" transform="translate(-59.672 203)">
      <path id="路径_156" data-name="路径 156" d="M460.354,292.625a1.226,1.226,0,0,1,1.261,1.118v5.962a1.271,1.271,0,0,1-2.523,0v-5.962A1.226,1.226,0,0,1,460.354,292.625Zm0-4.625a1.682,1.682,0,1,1-1.682,1.682A1.682,1.682,0,0,1,460.354,288Z" transform="translate(-374.682 -218.962)" fill="#515151"/>
      <path id="路径_157" data-name="路径 157" d="M85.672,64a10.985,10.985,0,1,1-7.782,3.218A11,11,0,0,1,85.672,64Zm0,2.161a8.821,8.821,0,1,0,6.259,2.584,8.821,8.821,0,0,0-6.259-2.584Z" transform="translate(0 0)" fill="#515151"/>
    </g>
    <rect id="矩形_171" data-name="矩形 171" width="390" height="45" transform="translate(0 310)" fill="#fff"/>
    <text id="后台管理" transform="translate(49 339)" font-size="16" font-family="MicrosoftYaHei, Microsoft YaHei" letter-spacing="0.01em"><tspan x="0" y="0">后台管理</tspan></text>
    <path id="return-right-4" data-name="return-right" d="M-8.906,5.176a.66.66,0,0,0-.233.491.651.651,0,0,0,.145.411l.078.083,5.771,5.213a.767.767,0,0,0,1.03-.014.644.644,0,0,0,.061-.878l-.078-.083L-7.353,5.683-2.14,1.166A.645.645,0,0,0-2.041.3L-2.114.217A.768.768,0,0,0-3.039.108l-.094.067Z" transform="translate(365.475 338.566) rotate(180)" fill="#707070"/>
    <path id="administer" d="M19.14,19.357a2.161,2.161,0,1,0,2.167,2.162,2.164,2.164,0,0,0-2.167-2.162Zm0,3.208a1.047,1.047,0,1,1,1.051-1.047A1.048,1.048,0,0,1,19.14,22.566Zm5.731-2.177a.763.763,0,0,0-.711-.7h-.05a1.226,1.226,0,0,1-1.228-1.223,1.387,1.387,0,0,1,.11-.463.9.9,0,0,0-.33-1.1l-1.43-.792a.908.908,0,0,0-.361-.074.97.97,0,0,0-.686.281,1.871,1.871,0,0,1-.98.563,1.871,1.871,0,0,1-.99-.573.969.969,0,0,0-.693-.288.89.89,0,0,0-.353.07l-.026.011-1.46.8-.035.022a.885.885,0,0,0-.3,1.07,1.409,1.409,0,0,1,.11.466,1.226,1.226,0,0,1-1.234,1.227h-.057a.763.763,0,0,0-.7.7,7.212,7.212,0,0,0-.121,1.136,7.228,7.228,0,0,0,.121,1.137.763.763,0,0,0,.711.7h.048a1.227,1.227,0,0,1,1.228,1.223,1.389,1.389,0,0,1-.11.463.9.9,0,0,0,.33,1.1l1.408.783a.9.9,0,0,0,.361.074.955.955,0,0,0,.694-.3,1.9,1.9,0,0,1,1-.6,1.886,1.886,0,0,1,1.009.611.956.956,0,0,0,.7.3.924.924,0,0,0,.391-.088l1.423-.784.034-.022a.883.883,0,0,0,.3-1.069,1.409,1.409,0,0,1-.11-.466,1.226,1.226,0,0,1,1.228-1.223h.056a.761.761,0,0,0,.7-.7,7.266,7.266,0,0,0,.121-1.137,7.266,7.266,0,0,0-.12-1.143ZM23.8,22.273A2.294,2.294,0,0,0,21.892,25.3l-1.027.566a4.112,4.112,0,0,0-.422-.36A2.236,2.236,0,0,0,19.136,25a2.236,2.236,0,0,0-1.3.5,4.13,4.13,0,0,0-.42.353l-.982-.549a2.294,2.294,0,0,0-1.912-3.026,5.409,5.409,0,0,1-.072-.747,5.347,5.347,0,0,1,.072-.747,2.294,2.294,0,0,0,1.912-3.024l1.06-.58a4.077,4.077,0,0,0,.421.345A2.238,2.238,0,0,0,19.193,18a2.237,2.237,0,0,0,1.265-.468,4.028,4.028,0,0,0,.418-.338l1.015.562A2.294,2.294,0,0,0,23.8,20.777a5.389,5.389,0,0,1,.072.747,5.366,5.366,0,0,1-.07.749ZM4.443,25.437V24.213a8.055,8.055,0,0,1,7.32-7.976h.009c.252-.023.506-.036.763-.036h.116a5.583,5.583,0,0,0,3-.921L16,15.008a5.519,5.519,0,0,0,2.157-4.375,5.621,5.621,0,0,0-11.243,0A5.519,5.519,0,0,0,9.07,15.007l.351.272-.414.164a9.407,9.407,0,0,0-6.017,8.77v1.939a.721.721,0,0,0,.724.716H14.3a7.3,7.3,0,0,1-.88-1.427Zm3.914-14.8a4.174,4.174,0,1,1,4.173,4.132A4.163,4.163,0,0,1,8.357,10.634Z" transform="translate(12.01 316.976)" fill="#515151"/>
    <rect id="矩形_172" data-name="矩形 172" width="390" height="45" transform="translate(0 355)" fill="#fff"/>
    <text id="Dome" transform="translate(49 384)" font-size="16" font-family="MicrosoftYaHei, Microsoft YaHei" letter-spacing="0.01em"><tspan x="0" y="0">Dome</tspan></text>
    <path id="return-right-5" data-name="return-right" d="M-8.906,5.176a.66.66,0,0,0-.233.491.651.651,0,0,0,.145.411l.078.083,5.771,5.213a.767.767,0,0,0,1.03-.014.644.644,0,0,0,.061-.878l-.078-.083L-7.353,5.683-2.14,1.166A.645.645,0,0,0-2.041.3L-2.114.217A.768.768,0,0,0-3.039.108l-.094.067Z" transform="translate(365.475 383.566) rotate(180)" fill="#707070"/>
    <rect id="矩形_173" data-name="矩形 173" width="390" height="45" transform="translate(0 410)" fill="#fff"/>
    <text id="退出登录" transform="translate(163 439)" fill="#dc3545" font-size="16" font-family="MicrosoftYaHei, Microsoft YaHei" letter-spacing="0.01em"><tspan x="0" y="0">退出登录</tspan></text>
    <line id="直线_25" data-name="直线 25" x2="390" transform="translate(0 255)" fill="none" stroke="#cdcdcd" stroke-width="1"/>
    <line id="直线_26" data-name="直线 26" x2="390" transform="translate(0 300)" fill="none" stroke="#cdcdcd" stroke-width="1" opacity="0.5"/>
    <line id="直线_27" data-name="直线 27" x2="390" transform="translate(0 355)" fill="none" stroke="#cdcdcd" stroke-width="1"/>
    <line id="直线_28" data-name="直线 28" x2="390" transform="translate(0 400)" fill="none" stroke="#cdcdcd" stroke-width="1" opacity="0.5"/>
    <line id="直线_29" data-name="直线 29" x2="390" transform="translate(0.5 455)" fill="none" stroke="#cdcdcd" stroke-width="1" opacity="0.5"/>
    <line id="直线_30" data-name="直线 30" x2="375" transform="translate(0 200)" fill="none" stroke="#cdcdcd" stroke-width="1" opacity="0.5"/>
    <circle id="椭圆_10" data-name="椭圆 10" cx="4" cy="4" r="4" transform="translate(76 800)" fill="#dc3545"/>
    <circle id="椭圆_10-2" data-name="椭圆 10" cx="4" cy="4" r="4" transform="translate(200 800)" fill="#dc3545"/>
    <g id="状态栏_白" data-name="状态栏/白">
      <rect id="状态栏_白_background" data-name="状态栏/白 background" width="390" height="30"/>
      <path id="矩形" d="M0,0H390V30H0Z" fill="#fff"/>
      <g id="Right_Detail" data-name="Right Detail" transform="translate(350 11.211)">
        <g id="Battery">
          <path id="Rectangle_3" data-name="Rectangle 3" d="M0,2.5A2.5,2.5,0,0,1,2.5,0h17A2.5,2.5,0,0,1,22,2.5V8.734A1.766,1.766,0,0,1,20.234,10.5H2.5A2.5,2.5,0,0,1,0,8Z"/>
          <path id="Combined_Shape" data-name="Combined Shape" d="M0,3.874H0V0A2,2,0,0,1,1.5,1.937,2,2,0,0,1,0,3.873Z" transform="translate(23 3.5)"/>
          <rect id="Rectangle_Copy_4" data-name="Rectangle Copy 4" width="18" height="6.5" rx="1" transform="translate(2 2)"/>
        </g>
      </g>
      <text id="Time" transform="translate(26 20)" font-size="12" font-family="SegoeUI, Segoe UI"><tspan x="-11.004" y="0">9:41</tspan></text>
      <g id="Left_Detail" data-name="Left Detail" transform="translate(312 10.81)">
        <path id="Wifi" d="M4.361,6.906a2.884,2.884,0,0,1,4.284.032L6.522,9ZM6.487,4.477A4.419,4.419,0,0,0,3.27,5.848L2.179,4.793a6.037,6.037,0,0,1,8.645.029L9.734,5.88A4.416,4.416,0,0,0,6.487,4.477Zm0-2.984a7.54,7.54,0,0,0-5.4,2.245L0,2.682A9.1,9.1,0,0,1,6.487,0,9.1,9.1,0,0,1,13,2.707L11.911,3.764A7.537,7.537,0,0,0,6.487,1.492Z" transform="translate(19.5 0.5)"/>
        <path id="Mobile_Signal" data-name="Mobile Signal" d="M12.5,9.5A.5.5,0,0,1,12,9V.5a.5.5,0,0,1,.5-.5H14a.5.5,0,0,1,.5.5V9a.5.5,0,0,1-.5.5Zm-4,0A.5.5,0,0,1,8,9V3a.5.5,0,0,1,.5-.5H10a.5.5,0,0,1,.5.5V9a.5.5,0,0,1-.5.5Zm-4,0A.5.5,0,0,1,4,9V5a.5.5,0,0,1,.5-.5H6a.5.5,0,0,1,.5.5V9a.5.5,0,0,1-.5.5Zm-4,0A.5.5,0,0,1,0,9V7a.5.5,0,0,1,.5-.5H2a.5.5,0,0,1,.5.5V9a.5.5,0,0,1-.5.5Z"/>
      </g>
    </g>
    <g id="personal-checked" transform="translate(290 800)">
      <rect id="矩形-我的" width="60" height="39" transform="translate(0 0)" fill="none"/>
      <text id="我的-2" data-name="我的" transform="translate(30 36)" fill="#007bff" font-size="12" font-family="MicrosoftYaHei, Microsoft YaHei" letter-spacing="0.2em"><tspan x="-13.2" y="0">我的</tspan></text>
      <path id="my" d="M17.087,0A6.939,6.939,0,0,1,20.62,12.91a9.135,9.135,0,0,1,5.443,6.632.832.832,0,0,1-1.622.369.059.059,0,0,0-.016-.048,7.523,7.523,0,0,0-7.162-6.005h-.193a7.51,7.51,0,0,0-7.322,6.005.827.827,0,0,1-1.622-.321A9.135,9.135,0,0,1,13.57,12.91,6.939,6.939,0,0,1,17.087,0Zm0,1.67a5.267,5.267,0,1,0,0,10.534H17.1A5.267,5.267,0,0,0,17.087,1.67Z" transform="translate(11.887)" fill="#007bff"/>
    </g>
  </g>
</svg>
