<svg xmlns="http://www.w3.org/2000/svg" xmlns:xlink="http://www.w3.org/1999/xlink" width="390" height="844" viewBox="0 0 390 844">
  <defs>
    <clipPath id="clip-path">
      <rect id="矩形_2" data-name="矩形 2" width="22" height="22" transform="translate(0)" fill="#fff" stroke="#707070" stroke-width="1"/>
    </clipPath>
    <clipPath id="clip-path-2">
      <path id="路径_177" data-name="路径 177" d="M31.453,104.278h0a.908.908,0,0,0-.059-.455c-.685-1.757-3.305-3.244-7.118-3.244s-6.553,1.486-7.124,3.242a1.014,1.014,0,0,0-.045.457H31.453Z" transform="translate(-17.099 -100.579)" fill="none"/>
    </clipPath>
    <clipPath id="clip-我的_个人信息">
      <rect width="390" height="844"/>
    </clipPath>
  </defs>
  <g id="我的_个人信息" data-name="我的 – 个人信息" clip-path="url(#clip-我的_个人信息)">
    <rect width="390" height="844" fill="#f5f5f5"/>
    <line id="直线_30" data-name="直线 30" x2="390" transform="translate(0 75)" fill="none" stroke="#cdcdcd" stroke-width="1" opacity="0.5"/>
    <rect id="矩形_152" data-name="矩形 152" width="390" height="45" transform="translate(0 30)" fill="#fff"/>
    <path id="路径" d="M-8.817,7.16a.913.913,0,0,0-.322.679.9.9,0,0,0,.2.569l.108.115,7.984,7.212a1.061,1.061,0,0,0,1.425-.02A.891.891,0,0,0,.663,14.5l-.108-.115L-6.668,7.862.543,1.613A.892.892,0,0,0,.68.417L.579.3A1.062,1.062,0,0,0-.7.149l-.13.092Z" transform="translate(24.639 45)" fill="#707070"/>
    <text id="个人信息" transform="translate(195 60)" font-size="18" font-family="MicrosoftYaHei-Bold, Microsoft YaHei" font-weight="700" letter-spacing="0.1em"><tspan x="-38.7" y="0">个人信息</tspan></text>
    <rect id="矩形_169" data-name="矩形 169" width="390" height="45" transform="translate(0 75)" fill="#fff"/>
    <text id="头像" transform="translate(15 103)" font-size="16" font-family="MicrosoftYaHei, Microsoft YaHei" letter-spacing="0.01em"><tspan x="0" y="0">头像</tspan></text>
    <path id="return-right" d="M-8.906,5.176a.66.66,0,0,0-.233.491.651.651,0,0,0,.145.411l.078.083,5.771,5.213a.767.767,0,0,0,1.03-.014.644.644,0,0,0,.061-.878l-.078-.083L-7.353,5.683-2.14,1.166A.645.645,0,0,0-2.041.3L-2.114.217A.768.768,0,0,0-3.039.108l-.094.067Z" transform="translate(365.475 103.566) rotate(180)" fill="#707070"/>
    <line id="直线_33" data-name="直线 33" x2="390" transform="translate(0 120)" fill="none" stroke="#c5c5c5" stroke-width="1"/>
    <rect id="矩形_176" data-name="矩形 176" width="390" height="45" transform="translate(0 120)" fill="#fff"/>
    <text id="名字" transform="translate(15 149)" font-size="16" font-family="MicrosoftYaHei, Microsoft YaHei" letter-spacing="0.01em"><tspan x="0" y="0">名字</tspan></text>
    <path id="return-right-2" data-name="return-right" d="M-8.906,5.176a.66.66,0,0,0-.233.491.651.651,0,0,0,.145.411l.078.083,5.771,5.213a.767.767,0,0,0,1.03-.014.644.644,0,0,0,.061-.878l-.078-.083L-7.353,5.683-2.14,1.166A.645.645,0,0,0-2.041.3L-2.114.217A.768.768,0,0,0-3.039.108l-.094.067Z" transform="translate(365.475 148.566) rotate(180)" fill="#707070"/>
    <line id="直线_34" data-name="直线 34" x2="390" transform="translate(0 165)" fill="none" stroke="#c5c5c5" stroke-width="1"/>
    <rect id="矩形_177" data-name="矩形 177" width="390" height="45" transform="translate(0 165)" fill="#fff"/>
    <text id="账号" transform="translate(15 194)" font-size="16" font-family="MicrosoftYaHei, Microsoft YaHei" letter-spacing="0.01em"><tspan x="0" y="0">账号</tspan></text>
    <path id="return-right-3" data-name="return-right" d="M-8.906,5.176a.66.66,0,0,0-.233.491.651.651,0,0,0,.145.411l.078.083,5.771,5.213a.767.767,0,0,0,1.03-.014.644.644,0,0,0,.061-.878l-.078-.083L-7.353,5.683-2.14,1.166A.645.645,0,0,0-2.041.3L-2.114.217A.768.768,0,0,0-3.039.108l-.094.067Z" transform="translate(365.475 193.566) rotate(180)" fill="#707070"/>
    <line id="直线_35" data-name="直线 35" x2="390" transform="translate(0 210)" fill="none" stroke="#c5c5c5" stroke-width="1"/>
    <rect id="矩形_189" data-name="矩形 189" width="390" height="45" transform="translate(0 210)" fill="#fff"/>
    <text id="二维码名片" transform="translate(15 239)" font-size="16" font-family="MicrosoftYaHei, Microsoft YaHei" letter-spacing="0.01em"><tspan x="0" y="0">二维码名片</tspan></text>
    <path id="return-right-4" data-name="return-right" d="M-8.906,5.176a.66.66,0,0,0-.233.491.651.651,0,0,0,.145.411l.078.083,5.771,5.213a.767.767,0,0,0,1.03-.014.644.644,0,0,0,.061-.878l-.078-.083L-7.353,5.683-2.14,1.166A.645.645,0,0,0-2.041.3L-2.114.217A.768.768,0,0,0-3.039.108l-.094.067Z" transform="translate(365.475 238.566) rotate(180)" fill="#707070"/>
    <line id="直线_41" data-name="直线 41" x2="390" transform="translate(0 255)" fill="none" stroke="#c5c5c5" stroke-width="1"/>
    <g id="nv" transform="translate(259.649 -132.351)">
      <g id="蒙版组_13" data-name="蒙版组 13" transform="translate(77.351 219.351)" clip-path="url(#clip-path)">
        <g id="图层_2" data-name="图层 2" transform="translate(0.523 -0.429)">
          <g id="图层_1" data-name="图层 1" transform="translate(0 0)">
            <path id="路径_165" data-name="路径 165" d="M18.776,64.283H30.622l-.1,2.375a3.134,3.134,0,0,0,.18,1.167,1.978,1.978,0,0,1-.369,2.3,2.03,2.03,0,0,1,.3,2.235,1.794,1.794,0,0,1,.964,2.48H17.687a1.792,1.792,0,0,1,.964-2.48,1.684,1.684,0,0,1,.3-2.235s-1.137-.861-.11-2.933a1.9,1.9,0,0,0,.187-1.118Z" transform="translate(-14.166 -52.038)" fill="#703910"/>
            <path id="路径_166" data-name="路径 166" d="M31.453,104.278h0a.908.908,0,0,0-.059-.455c-.685-1.757-3.305-3.244-7.118-3.244s-6.553,1.486-7.124,3.242a1.014,1.014,0,0,0-.045.457H31.453Z" transform="translate(-13.841 -81.42)" fill="#d85b72"/>
            <rect id="矩形_38" data-name="矩形 38" width="13.906" height="4.117" rx="2.059" transform="translate(3.25 9.621)" fill="#fcbc85"/>
            <path id="路径_167" data-name="路径 167" d="M45.471,75.541h3.178v4.686a1.419,1.419,0,0,1-1.419,1.419h-.339a1.419,1.419,0,0,1-1.419-1.422Z" transform="translate(-36.809 -61.152)" fill="#fdcc9b"/>
            <path id="路径_168" data-name="路径 168" d="M44.914,90.357,48.2,90.3v.732A5.472,5.472,0,0,1,44.914,90.357Z" transform="translate(-36.358 -73.099)" fill="#fcbc85"/>
            <path id="路径_169" data-name="路径 169" d="M34.5,29.783c0,3.567-2.343,6.6-5.943,6.6s-5.944-3.026-5.944-6.6a6.209,6.209,0,0,1,5.944-6.453A6.215,6.215,0,0,1,34.5,29.783Z" transform="translate(-18.304 -18.886)" fill="#fdcc9b"/>
            <path id="路径_170" data-name="路径 170" d="M32.112,47.912c.606,0,1.475.258,1.475.152,0-.411-.661-.745-1.475-.745s-1.477.334-1.477.745C30.635,48.171,31.5,47.912,32.112,47.912Z" transform="translate(-24.799 -38.306)" fill="#86461b"/>
            <path id="路径_171" data-name="路径 171" d="M63.15,47.912c.6,0,1.475.258,1.475.152,0-.411-.661-.745-1.475-.745s-1.477.334-1.477.745C61.673,48.171,62.543,47.912,63.15,47.912Z" transform="translate(-49.925 -38.306)" fill="#86461b"/>
            <ellipse id="椭圆_57" data-name="椭圆 57" cx="0.826" cy="0.849" rx="0.826" ry="0.849" transform="translate(6.487 10.438)" fill="#3b2519"/>
            <ellipse id="椭圆_58" data-name="椭圆 58" cx="0.331" cy="0.293" rx="0.331" ry="0.293" transform="translate(6.65 10.631)" fill="#fff"/>
            <ellipse id="椭圆_59" data-name="椭圆 59" cx="0.826" cy="0.849" rx="0.826" ry="0.849" transform="translate(12.399 10.438)" fill="#3b2519"/>
            <ellipse id="椭圆_60" data-name="椭圆 60" cx="0.331" cy="0.293" rx="0.331" ry="0.293" transform="translate(12.562 10.631)" fill="#fff"/>
            <path id="路径_172" data-name="路径 172" d="M51.152,72.619c-.3,0-.627-.279-.627-.244,0,.246.279.446.627.446s.626-.2.626-.446C51.777,72.339,51.448,72.619,51.152,72.619Z" transform="translate(-40.9 -58.586)" fill="#fcbc85"/>
            <path id="路径_173" data-name="路径 173" d="M52.452,84.242c-.152,0-.321-.166-.321-.14a.327.327,0,0,0,.641,0C52.773,84.076,52.6,84.242,52.452,84.242Z" transform="translate(-42.201 -68.08)" fill="#fcbc85"/>
            <path id="路径_174" data-name="路径 174" d="M48.593,80.374a4.409,4.409,0,0,1-1.229-.339c0,.341.551.618,1.229.618s1.228-.279,1.228-.618A4.428,4.428,0,0,1,48.593,80.374Z" transform="translate(-38.342 -64.786)" fill="#f7945e"/>
            <ellipse id="椭圆_61" data-name="椭圆 61" cx="0.803" cy="0.803" rx="0.803" ry="0.803" transform="translate(5.706 12.936)" fill="#f9aa8d"/>
            <ellipse id="椭圆_62" data-name="椭圆 62" cx="0.803" cy="0.803" rx="0.803" ry="0.803" transform="translate(13.225 12.936)" fill="#f9aa8d"/>
            <g id="组_9" data-name="组 9" transform="translate(3.257 19.159)" clip-path="url(#clip-path-2)">
              <path id="路径_175" data-name="路径 175" d="M44.654,88.6a1.886,1.886,0,1,0,2.137,1.869A2.019,2.019,0,0,0,44.654,88.6Zm0,3.353a1.494,1.494,0,1,1,1.693-1.481,1.6,1.6,0,0,1-1.693,1.481Z" transform="translate(-37.674 -90.882)" fill="#f5919d"/>
              <path id="路径_176" data-name="路径 176" d="M40.02,97.377c0,.057.01.116.01.175a2.155,2.155,0,0,1-4.272,0v-.1l-1.6.026,1.222,4.191h4.667l1.63-4.315Z" transform="translate(-30.912 -97.965)" fill="#f7acba"/>
            </g>
            <path id="路径_178" data-name="路径 178" d="M20.436,17.95c1.159-1.956-.379-2.909-.379-2.909.687-1.709-.4-2.328-.4-2.328a1.4,1.4,0,0,0,0-1.189c1.454-2.276-.383-3.122-.383-3.122,1.208-1.938-.559-2.566-.559-2.566a1.918,1.918,0,0,0-1.676-2.464,2.056,2.056,0,0,0-1.794-1.9A1.569,1.569,0,0,0,13.005.727,2.851,2.851,0,0,0,9.513.53a2.681,2.681,0,0,0-3.3.936,2.744,2.744,0,0,0-2.72,1.872c-1.834.665-1.676,3.1-1.676,3.1-1.2,1.1-.39,3.1-.39,3.1-1.044,1.106.023,2.948.023,2.948a1.842,1.842,0,0,0-.531,2.545,2.032,2.032,0,0,0-.38,2.909,2.11,2.11,0,0,0,0,2.833,1.229,1.229,0,0,0,1.3,1.4c.289.7,1.232.685,1.414.675a1.017,1.017,0,0,1,.052-.316,3.737,3.737,0,0,1,1.63-1.879c-.155-.271-.183-.648.256-1.118.419-.226-.49-.535-.054-1.276.129-.221,1.1-.888.3-1.572,0,0,.648-1,.279-1.333a.931.931,0,0,0-.163-1.111,2.707,2.707,0,0,0-.676-.665c.735-.817-.148-2.514-.148-2.514.905-.782.2-2.408.2-2.408A1.569,1.569,0,0,0,6.551,7.232a1.582,1.582,0,0,0,2.267.1c1.178,1.037,2.464-.3,2.464-.3,1.89.419,1.971-.936,1.971-.936.3,1.08.819,1.684,1.577,1.724a1.755,1.755,0,0,0,1.034,1.283,1.864,1.864,0,0,0,.1,2.217,1.118,1.118,0,0,0-.049,1.478A1.788,1.788,0,0,0,16,14.674c-.63.169-.6.745-.541,1.333-.82.419.249,1.623.362,1.94a1.359,1.359,0,0,1-.577,1.633.65.65,0,0,1,.419.943,4.232,4.232,0,0,1,1.893,2.017.933.933,0,0,1,.064.313H17.7c1.359,0,1.444-.673,1.444-.673,1.579-.122,1.3-1.4,1.3-1.4C21.6,19.741,20.436,17.95,20.436,17.95Z" transform="translate(0.001 -0.001)" fill="#86461b"/>
            <path id="路径_179" data-name="路径 179" d="M33.977,101.46a26.565,26.565,0,0,0,1.017,3.532h-.9a16.189,16.189,0,0,1-1.183-3.055C32.965,101.5,33.977,101.46,33.977,101.46Z" transform="translate(-26.639 -82.134)" fill="#ba396a"/>
            <path id="路径_180" data-name="路径 180" d="M63.7,101.46a26.456,26.456,0,0,1-1.018,3.532h.9a15.9,15.9,0,0,0,1.183-3.055C64.715,101.5,63.7,101.46,63.7,101.46Z" transform="translate(-50.744 -82.134)" fill="#ba396a"/>
          </g>
        </g>
      </g>
    </g>
    <path id="card" d="M112,113.4a1.4,1.4,0,0,1,1.4-1.4h3.393a1.4,1.4,0,0,1,1.4,1.4v3.393a1.4,1.4,0,0,1-1.4,1.4H113.4a1.4,1.4,0,0,1-1.4-1.4Zm1.4-.334a.334.334,0,0,0-.334.334v3.393a.334.334,0,0,0,.334.334h3.393a.334.334,0,0,0,.334-.334V113.4a.334.334,0,0,0-.334-.334Zm5.775.334a1.4,1.4,0,0,1,1.4-1.4h3.393a1.4,1.4,0,0,1,1.4,1.4v3.393a1.4,1.4,0,0,1-1.4,1.4h-3.39a1.4,1.4,0,0,1-1.4-1.4V113.4Zm1.4-.334a.334.334,0,0,0-.334.334v3.393a.334.334,0,0,0,.334.334h3.393a.334.334,0,0,0,.334-.334V113.4a.334.334,0,0,0-.334-.334h-3.39ZM112,120.581a1.4,1.4,0,0,1,1.4-1.4h3.393a1.4,1.4,0,0,1,1.4,1.4v3.393a1.4,1.4,0,0,1-1.4,1.4H113.4a1.4,1.4,0,0,1-1.4-1.4Zm1.4-.334a.334.334,0,0,0-.334.334v3.393a.334.334,0,0,0,.334.332h3.393a.334.334,0,0,0,.334-.334v-3.39a.334.334,0,0,0-.334-.334Zm5.775-.535a.535.535,0,0,1,.535-.535h1.474a.535.535,0,0,1,.535.535v1.449h.821v-1.449a.535.535,0,0,1,.535-.535h1.6a.535.535,0,1,1,0,1.07h-1.067V121.7a.535.535,0,0,1-.535.535h-1.89a.535.535,0,0,1-.535-.535v-1.449h-.4v1.548a.535.535,0,1,1-1.07,0v-2.083Zm5.5.907a.535.535,0,0,1,.535.535v.891a.535.535,0,1,1-1.07,0v-.892a.535.535,0,0,1,.534-.535Zm-4.027,2.521a.535.535,0,0,1,.535-.535h2.243a.535.535,0,0,1,0,1.07h-1.708v.5h2.422v-.354a.535.535,0,0,1,1.07,0v.891a.535.535,0,0,1-.535.535h-3.492a.535.535,0,0,1-.535-.535Zm-.939-.215a.535.535,0,0,1,.535.535v1.25a.535.535,0,1,1-1.07,0v-1.25a.535.535,0,0,1,.534-.535Z" transform="translate(233.628 114)" fill="#515151"/>
    <text id="Mg1" transform="translate(328 148)" font-size="14" font-family="MicrosoftYaHei, Microsoft YaHei" letter-spacing="0.01em"><tspan x="0" y="0">Mg1</tspan></text>
    <text id="_111111111" data-name="111111111" transform="translate(284 193)" font-size="14" font-family="MicrosoftYaHei, Microsoft YaHei" letter-spacing="0.01em"><tspan x="0" y="0">111111111</tspan></text>
    <g id="状态栏_白" data-name="状态栏/白">
      <rect id="状态栏_白_background" data-name="状态栏/白 background" width="390" height="30"/>
      <path id="矩形" d="M0,0H390V30H0Z" fill="#fff"/>
      <g id="Right_Detail" data-name="Right Detail" transform="translate(350 11.211)">
        <g id="Battery">
          <path id="Rectangle_3" data-name="Rectangle 3" d="M0,2.5A2.5,2.5,0,0,1,2.5,0h17A2.5,2.5,0,0,1,22,2.5V8.734A1.766,1.766,0,0,1,20.234,10.5H2.5A2.5,2.5,0,0,1,0,8Z"/>
          <path id="Combined_Shape" data-name="Combined Shape" d="M0,3.874H0V0A2,2,0,0,1,1.5,1.937,2,2,0,0,1,0,3.873Z" transform="translate(23 3.5)"/>
          <rect id="Rectangle_Copy_4" data-name="Rectangle Copy 4" width="18" height="6.5" rx="1" transform="translate(2 2)"/>
        </g>
      </g>
      <text id="Time" transform="translate(26 20)" font-size="12" font-family="SegoeUI, Segoe UI"><tspan x="-11.004" y="0">9:41</tspan></text>
      <g id="Left_Detail" data-name="Left Detail" transform="translate(312 10.81)">
        <path id="Wifi" d="M4.361,6.906a2.884,2.884,0,0,1,4.284.032L6.522,9ZM6.487,4.477A4.419,4.419,0,0,0,3.27,5.848L2.179,4.793a6.037,6.037,0,0,1,8.645.029L9.734,5.88A4.416,4.416,0,0,0,6.487,4.477Zm0-2.984a7.54,7.54,0,0,0-5.4,2.245L0,2.682A9.1,9.1,0,0,1,6.487,0,9.1,9.1,0,0,1,13,2.707L11.911,3.764A7.537,7.537,0,0,0,6.487,1.492Z" transform="translate(19.5 0.5)"/>
        <path id="Mobile_Signal" data-name="Mobile Signal" d="M12.5,9.5A.5.5,0,0,1,12,9V.5a.5.5,0,0,1,.5-.5H14a.5.5,0,0,1,.5.5V9a.5.5,0,0,1-.5.5Zm-4,0A.5.5,0,0,1,8,9V3a.5.5,0,0,1,.5-.5H10a.5.5,0,0,1,.5.5V9a.5.5,0,0,1-.5.5Zm-4,0A.5.5,0,0,1,4,9V5a.5.5,0,0,1,.5-.5H6a.5.5,0,0,1,.5.5V9a.5.5,0,0,1-.5.5Zm-4,0A.5.5,0,0,1,0,9V7a.5.5,0,0,1,.5-.5H2a.5.5,0,0,1,.5.5V9a.5.5,0,0,1-.5.5Z"/>
      </g>
    </g>
  </g>
</svg>
