<svg xmlns="http://www.w3.org/2000/svg" xmlns:xlink="http://www.w3.org/1999/xlink" width="390" height="844" viewBox="0 0 390 844">
  <defs>
    <clipPath id="clip-path">
      <rect id="矩形_126" data-name="矩形 126" width="170" height="35" fill="#007bff"/>
    </clipPath>
    <clipPath id="clip-path-2">
      <rect id="矩形_2" data-name="矩形 2" width="34" height="34" fill="#fff" stroke="#707070" stroke-width="1"/>
    </clipPath>
    <clipPath id="clip-path-3">
      <path id="路径_177" data-name="路径 177" d="M38.452,106.082h0a1.351,1.351,0,0,0-.087-.678c-1.018-2.614-4.917-4.826-10.588-4.826s-9.748,2.21-10.6,4.823a1.509,1.509,0,0,0-.067.68h21.34Z" transform="translate(-17.099 -100.579)" fill="none"/>
    </clipPath>
    <clipPath id="clip-path-4">
      <rect id="矩形_128" data-name="矩形 128" width="34" height="34" fill="rgba(0,0,0,0)"/>
    </clipPath>
    <clipPath id="clip-path-5">
      <path id="路径_107" data-name="路径 107" d="M23.259,105.264a1.523,1.523,0,0,0-.067.686l21.549,0a1.362,1.362,0,0,0-.09-.684c-1.028-2.638-4.963-4.87-10.686-4.87s-9.832,2.225-10.7,4.864" transform="translate(-23.179 -100.4)" fill="rgba(0,0,0,0)"/>
    </clipPath>
    <clipPath id="clip-path-9">
      <rect id="矩形_138" data-name="矩形 138" width="170" height="35" fill="#fff"/>
    </clipPath>
    <clipPath id="clip-消息页">
      <rect width="390" height="844"/>
    </clipPath>
  </defs>
  <g id="消息页" clip-path="url(#clip-消息页)">
    <rect width="390" height="844" fill="#f5f5f5"/>
    <rect id="矩形_4" data-name="矩形 4" width="390" height="45" transform="translate(0 30)" fill="#fff"/>
    <path id="return" d="M-8.817,7.16a.913.913,0,0,0-.322.679.9.9,0,0,0,.2.569l.108.115,7.984,7.212a1.061,1.061,0,0,0,1.425-.02A.891.891,0,0,0,.663,14.5l-.108-.115L-6.668,7.862.543,1.613A.892.892,0,0,0,.68.417L.579.3A1.062,1.062,0,0,0-.7.149l-.13.092Z" transform="translate(24.639 45)" fill="#515151"/>
    <text id="Mg" transform="translate(195 61)" font-size="18" font-family="MicrosoftYaHei-Bold, Microsoft YaHei" font-weight="700"><tspan x="-15.236" y="0">Mg</tspan></text>
    <line id="直线_9" data-name="直线 9" x2="390" transform="translate(0.5 75)" fill="none" stroke="#cdcdcd" stroke-width="1"/>
    <text id="上午9:41" transform="translate(188 98)" font-size="12" font-family="MicrosoftYaHei, Microsoft YaHei" letter-spacing="0.2em"><tspan x="-30" y="0">上午9:41</tspan></text>
    <text id="上午9:42" transform="translate(188 171)" font-size="12" font-family="MicrosoftYaHei, Microsoft YaHei" letter-spacing="0.2em"><tspan x="-30" y="0">上午9:42</tspan></text>
    <rect id="矩形_10" data-name="矩形 10" width="390" height="46" transform="translate(0 798)" fill="#efefef"/>
    <rect id="矩形_11" data-name="矩形 11" width="305" height="36" rx="6" transform="translate(10 803)" fill="#fff"/>
    <rect id="矩形_12" data-name="矩形 12" width="55" height="36" rx="6" transform="translate(325 803)" fill="#007bff"/>
    <text id="发送" transform="translate(353 828)" fill="#fff" font-size="16" font-family="MicrosoftYaHei, Microsoft YaHei" letter-spacing="0.2em"><tspan x="-17.6" y="0">发送</tspan></text>
    <rect id="矩形_124" data-name="矩形 124" width="345" height="52" transform="translate(15 101)" fill="none"/>
    <g id="talk_right" transform="translate(164 110)">
      <g id="组_190" data-name="组 190" transform="translate(0 0)" clip-path="url(#clip-path)">
        <path id="路径_103" data-name="路径 103" d="M4.411.5H161.335c2.16,0,3.911,2.049,3.911,4.577V29.713c0,2.527-1.751,4.577-3.911,4.577H4.411C2.251,34.29.5,32.24.5,29.713V5.077C.5,2.549,2.251.5,4.411.5" transform="translate(0.017 0.106)" fill="#007bff"/>
        <path id="矩形_125" data-name="矩形 125" d="M3.78,0H160.966a3.78,3.78,0,0,1,3.78,3.78V30.009a3.781,3.781,0,0,1-3.781,3.781H3.78A3.78,3.78,0,0,1,0,30.01V3.78A3.78,3.78,0,0,1,3.78,0Z" transform="translate(0.518 0.606)" fill="#007bff"/>
        <path id="路径_104" data-name="路径 104" d="M155,.5h8.794c-1.035,2.421-3.1,3.631-4.139,10.894-.12.842.311,1.54,0,2.421" transform="translate(5.369 0.106)" fill="#007bff"/>
        <path id="路径_105" data-name="路径 105" d="M155,.5h8.794c-1.035,2.421-3.1,3.631-4.139,10.894-.12.842.311,1.54,0,2.421" transform="translate(5.369 0.106)" fill="#007bff"/>
      </g>
    </g>
    <g id="矩形_127" data-name="矩形 127" transform="translate(339 110)" fill="#fff" stroke="#f5f5f5" stroke-width="1">
      <rect width="35" height="35" rx="6" stroke="none"/>
      <rect x="0.5" y="0.5" width="34" height="34" rx="5.5" fill="none"/>
    </g>
    <g id="女_25" data-name="女 25" transform="translate(263 -109)">
      <g id="蒙版组_13" data-name="蒙版组 13" transform="translate(77 219)" clip-path="url(#clip-path-2)">
        <g id="图层_2" data-name="图层 2" transform="translate(1.417 0)">
          <g id="图层_1" data-name="图层 1" transform="translate(0 0)">
            <path id="路径_165" data-name="路径 165" d="M19.4,64.283H37.02l-.15,3.533a4.661,4.661,0,0,0,.268,1.735c.328.927.644,2.517-.549,3.425a3.02,3.02,0,0,1,.445,3.325,2.668,2.668,0,0,1,1.434,3.689H17.778A2.666,2.666,0,0,1,19.212,76.3a2.506,2.506,0,0,1,.445-3.325s-1.692-1.28-.164-4.364a2.829,2.829,0,0,0,.279-1.663Z" transform="translate(-12.541 -46.068)" fill="#703910"/>
            <path id="路径_166" data-name="路径 166" d="M38.452,106.082h0a1.351,1.351,0,0,0-.087-.678c-1.018-2.614-4.917-4.826-10.588-4.826s-9.748,2.21-10.6,4.823a1.509,1.509,0,0,0-.067.68h21.34Z" transform="translate(-12.253 -72.079)" fill="#d85b72"/>
            <rect id="矩形_38" data-name="矩形 38" width="20.687" height="6.125" rx="3.062" transform="translate(4.834 14.313)" fill="#fcbc85"/>
            <path id="路径_167" data-name="路径 167" d="M45.471,75.541H50.2v6.971a2.111,2.111,0,0,1-2.111,2.111h-.5a2.111,2.111,0,0,1-2.111-2.116Z" transform="translate(-32.586 -54.136)" fill="#fdcc9b"/>
            <path id="路径_168" data-name="路径 168" d="M44.914,90.385,49.8,90.3v1.089A8.141,8.141,0,0,1,44.914,90.385Z" transform="translate(-32.187 -64.712)" fill="#fcbc85"/>
            <path id="路径_169" data-name="路径 169" d="M40.295,32.929c0,5.306-3.485,9.815-8.841,9.815s-8.843-4.5-8.843-9.815,3.959-9.6,8.843-9.6S40.295,27.632,40.295,32.929Z" transform="translate(-16.203 -16.719)" fill="#fdcc9b"/>
            <path id="路径_170" data-name="路径 170" d="M32.832,48.2c.9,0,2.195.385,2.195.227,0-.611-.983-1.108-2.195-1.108s-2.2.5-2.2,1.108C30.635,48.586,31.929,48.2,32.832,48.2Z" transform="translate(-21.954 -33.911)" fill="#86461b"/>
            <path id="路径_171" data-name="路径 171" d="M63.87,48.2c.9,0,2.195.385,2.195.227,0-.611-.983-1.108-2.195-1.108s-2.2.5-2.2,1.108C61.673,48.586,62.968,48.2,63.87,48.2Z" transform="translate(-44.197 -33.911)" fill="#86461b"/>
            <ellipse id="椭圆_57" data-name="椭圆 57" cx="1.228" cy="1.264" rx="1.228" ry="1.264" transform="translate(9.65 15.528)" fill="#3b2519"/>
            <ellipse id="椭圆_58" data-name="椭圆 58" cx="0.492" cy="0.436" rx="0.492" ry="0.436" transform="translate(9.893 15.815)" fill="#fff"/>
            <ellipse id="椭圆_59" data-name="椭圆 59" cx="1.228" cy="1.264" rx="1.228" ry="1.264" transform="translate(18.445 15.528)" fill="#3b2519"/>
            <ellipse id="椭圆_60" data-name="椭圆 60" cx="0.492" cy="0.436" rx="0.492" ry="0.436" transform="translate(18.688 15.815)" fill="#fff"/>
            <path id="路径_172" data-name="路径 172" d="M51.458,72.74c-.443,0-.933-.416-.933-.364,0,.366.416.663.933.663s.931-.3.931-.663C52.388,72.323,51.9,72.74,51.458,72.74Z" transform="translate(-36.208 -51.864)" fill="#fcbc85"/>
            <path id="路径_173" data-name="路径 173" d="M52.609,84.312c-.227,0-.478-.247-.478-.208a.486.486,0,0,0,.954,0C53.086,84.064,52.833,84.312,52.609,84.312Z" transform="translate(-37.358 -60.269)" fill="#fcbc85"/>
            <path id="路径_174" data-name="路径 174" d="M49.193,80.541a6.558,6.558,0,0,1-1.829-.5c0,.507.819.919,1.829.919s1.827-.416,1.827-.919A6.587,6.587,0,0,1,49.193,80.541Z" transform="translate(-33.942 -57.353)" fill="#f7945e"/>
            <circle id="椭圆_61" data-name="椭圆 61" cx="1.195" cy="1.195" r="1.195" transform="translate(8.488 19.244)" fill="#f9aa8d"/>
            <circle id="椭圆_62" data-name="椭圆 62" cx="1.195" cy="1.195" r="1.195" transform="translate(19.673 19.244)" fill="#f9aa8d"/>
            <g id="组_9" data-name="组 9" transform="translate(4.846 28.5)" clip-path="url(#clip-path-3)">
              <path id="路径_175" data-name="路径 175" d="M45.7,88.6a2.806,2.806,0,1,0,3.18,2.781A3,3,0,0,0,45.7,88.6Zm0,4.987a2.223,2.223,0,1,1,2.519-2.2,2.38,2.38,0,0,1-2.519,2.2Z" transform="translate(-35.313 -91.994)" fill="#f5919d"/>
              <path id="路径_176" data-name="路径 176" d="M42.876,97.39c0,.085.014.173.014.26a3.206,3.206,0,0,1-6.355,0V97.5l-2.373.039,1.818,6.234h6.942l2.425-6.42Z" transform="translate(-29.327 -98.265)" fill="#f7acba"/>
            </g>
            <path id="路径_178" data-name="路径 178" d="M30.4,26.7c1.725-2.91-.563-4.327-.563-4.327,1.022-2.542-.59-3.462-.59-3.462a2.09,2.09,0,0,0,0-1.768c2.163-3.385-.57-4.645-.57-4.645,1.8-2.882-.831-3.818-.831-3.818a2.853,2.853,0,0,0-2.494-3.666,3.059,3.059,0,0,0-2.668-2.834c-1.45-2.33-3.337-1.1-3.337-1.1-2.313-2.247-5.2-.293-5.2-.293A3.989,3.989,0,0,0,9.241,2.181,4.081,4.081,0,0,0,5.195,4.966C2.466,5.955,2.7,9.585,2.7,9.585c-1.789,1.638-.58,4.619-.58,4.619-1.553,1.646.035,4.386.035,4.386a2.74,2.74,0,0,0-.79,3.785A3.023,3.023,0,0,0,.8,26.7a3.139,3.139,0,0,0,0,4.215,1.828,1.828,0,0,0,1.931,2.078c.43,1.039,1.833,1.018,2.1,1a1.513,1.513,0,0,1,.077-.47,5.559,5.559,0,0,1,2.425-2.8c-.231-.4-.272-.963.38-1.663.623-.337-.729-.8-.081-1.9.191-.328,1.634-1.322.449-2.338,0,0,.963-1.49.416-1.984A1.384,1.384,0,0,0,8.258,21.2a4.027,4.027,0,0,0-1.006-.989c1.093-1.216-.22-3.74-.22-3.74,1.347-1.164.293-3.583.293-3.583a2.335,2.335,0,0,0,2.421-2.128,2.353,2.353,0,0,0,3.372.148c1.752,1.542,3.666-.441,3.666-.441,2.812.623,2.932-1.392,2.932-1.392.453,1.606,1.218,2.5,2.346,2.564A2.61,2.61,0,0,0,23.6,13.545c-1.062,2.125.148,3.3.148,3.3a1.663,1.663,0,0,0-.073,2.2,2.66,2.66,0,0,0,.125,2.787c-.937.251-.885,1.108-.8,1.984-1.22.623.37,2.415.538,2.887a2.021,2.021,0,0,1-.858,2.43.967.967,0,0,1,.623,1.4,6.3,6.3,0,0,1,2.816,3,1.389,1.389,0,0,1,.1.466h.116c2.022,0,2.149-1,2.149-1,2.349-.181,1.931-2.078,1.931-2.078C32.126,29.366,30.4,26.7,30.4,26.7Z" transform="translate(0.001 -0.001)" fill="#86461b"/>
            <path id="路径_179" data-name="路径 179" d="M34.5,101.46a39.518,39.518,0,0,0,1.513,5.254H34.668a24.084,24.084,0,0,1-1.76-4.545C32.993,101.52,34.5,101.46,34.5,101.46Z" transform="translate(-23.583 -72.71)" fill="#ba396a"/>
            <path id="路径_180" data-name="路径 180" d="M64.2,101.46a39.358,39.358,0,0,1-1.515,5.254H64.03a23.651,23.651,0,0,0,1.76-4.545C65.7,101.52,64.2,101.46,64.2,101.46Z" transform="translate(-44.922 -72.71)" fill="#ba396a"/>
          </g>
        </g>
      </g>
    </g>
    <rect id="矩形_135" data-name="矩形 135" width="345" height="52" transform="translate(15 174)" fill="none"/>
    <g id="矩形_136" data-name="矩形 136" transform="translate(15 184)" fill="#fff" stroke="#f5f5f5" stroke-width="1">
      <rect width="35" height="35" rx="6" stroke="none"/>
      <rect x="0.5" y="0.5" width="34" height="34" rx="5.5" fill="none"/>
    </g>
    <g id="组_204" data-name="组 204" transform="translate(15 184)">
      <g id="组_193" data-name="组 193">
        <g id="组_192" data-name="组 192" clip-path="url(#clip-path-4)">
          <path id="路径_106" data-name="路径 106" d="M44.741,105.953h0a1.365,1.365,0,0,0-.09-.684c-1.028-2.638-4.963-4.87-10.686-4.87s-9.832,2.225-10.7,4.864a1.523,1.523,0,0,0-.067.686Z" transform="translate(-16.612 -71.953)" fill="#98375e"/>
        </g>
      </g>
      <g id="组_195" data-name="组 195" transform="translate(6.567 28.447)">
        <g id="组_194" data-name="组 194" clip-path="url(#clip-path-5)">
          <rect id="矩形_129" data-name="矩形 129" width="2.259" height="14.874" transform="translate(2.861 -2.939)" fill="#c05371"/>
          <rect id="矩形_130" data-name="矩形 130" width="1.128" height="14.874" transform="translate(5.475 -2.939)" fill="#c05371"/>
          <rect id="矩形_131" data-name="矩形 131" width="2.259" height="14.874" transform="translate(16.291 -2.941)" fill="#c05371"/>
          <rect id="矩形_132" data-name="矩形 132" width="1.128" height="14.874" transform="translate(14.808 -2.941)" fill="#c05371"/>
        </g>
      </g>
      <g id="组_197" data-name="组 197">
        <g id="组_196" data-name="组 196" clip-path="url(#clip-path-4)">
          <path id="路径_108" data-name="路径 108" d="M51.858,75.112h4.771v7.032A2.131,2.131,0,0,1,54.5,84.275h-.509a2.131,2.131,0,0,1-2.131-2.131Z" transform="translate(-37.165 -53.83)" fill="#fdcc9b"/>
          <path id="路径_109" data-name="路径 109" d="M51.295,90.094l4.93-.085v1.1a8.222,8.222,0,0,1-4.93-1.015Z" transform="translate(-36.761 -64.506)" fill="#fcbc85"/>
          <path id="路径_110" data-name="路径 110" d="M23.769,50.41h16.1a3.09,3.09,0,0,1,3.09,3.09h0a3.09,3.09,0,0,1-3.09,3.09h-16.1a3.09,3.09,0,0,1-3.09-3.09h0a3.09,3.09,0,0,1,3.09-3.09" transform="translate(-14.82 -36.127)" fill="#fcbc85"/>
          <path id="路径_111" data-name="路径 111" d="M46.649,32.125c0,5.355-1.128,9.906-8.922,9.906s-8.905-4.551-8.905-9.906,3.985-9.7,8.913-9.7,8.915,4.342,8.915,9.7" transform="translate(-20.656 -16.074)" fill="#fdcc9b"/>
          <path id="路径_112" data-name="路径 112" d="M41.1,46.891c.575,0,1.4.419,1.4.241a1.421,1.421,0,0,0-2.8,0c0,.168.826-.241,1.4-.241" transform="translate(-28.454 -32.929)" fill="#401900"/>
          <path id="路径_113" data-name="路径 113" d="M41.837,54.659a1.11,1.11,0,1,1-1.135,1.11,1.122,1.122,0,0,1,1.135-1.11" transform="translate(-29.17 -39.172)" fill="#3b2519"/>
          <path id="路径_114" data-name="路径 114" d="M41.949,55.54a.389.389,0,1,1-.455.384.424.424,0,0,1,.455-.384" transform="translate(-29.737 -39.804)" fill="#fff"/>
          <path id="路径_115" data-name="路径 115" d="M71.835,46.891c.577,0,1.4.419,1.4.241a1.421,1.421,0,0,0-2.8,0c0,.168.825-.241,1.4-.241" transform="translate(-50.478 -32.929)" fill="#401900"/>
          <path id="路径_116" data-name="路径 116" d="M72.565,54.659a1.11,1.11,0,1,1-1.135,1.11,1.122,1.122,0,0,1,1.135-1.11" transform="translate(-51.192 -39.172)" fill="#3b2519"/>
          <path id="路径_117" data-name="路径 117" d="M72.684,55.54a.389.389,0,1,1-.455.384.424.424,0,0,1,.455-.384" transform="translate(-51.764 -39.804)" fill="#fff"/>
          <path id="路径_118" data-name="路径 118" d="M56.663,70.924c-.629,0-1.319-.459-1.319-.375,0,.589.591.856,1.319.856s1.317-.266,1.317-.856c0-.084-.692.375-1.317.375" transform="translate(-39.663 -50.553)" fill="#fcbc85"/>
          <path id="路径_119" data-name="路径 119" d="M56.86,83.058a6.208,6.208,0,0,1-1.242-.233c0,.233.556.419,1.242.419s1.24-.191,1.24-.419a5.694,5.694,0,0,1-1.24.233" transform="translate(-39.86 -59.358)" fill="#fcbc85"/>
          <path id="路径_120" data-name="路径 120" d="M53.364,79.2a13.419,13.419,0,0,1-2.624-.474c0,.476,1.174.864,2.624.864s2.622-.388,2.622-.864a13.481,13.481,0,0,1-2.622.474" transform="translate(-36.364 -56.415)" fill="#f7945e"/>
        </g>
      </g>
      <g id="组_199" data-name="组 199" transform="translate(6.567 28.447)">
        <g id="组_198" data-name="组 198" clip-path="url(#clip-path-5)">
          <path id="路径_121" data-name="路径 121" d="M52.086,88.3A2.83,2.83,0,1,0,55.3,91.1a3.03,3.03,0,0,0-3.209-2.8m0,5.034a2.243,2.243,0,1,1,2.542-2.222,2.4,2.4,0,0,1-2.542,2.222Z" transform="translate(-41.595 -91.728)" fill="#c05371"/>
        </g>
      </g>
      <g id="组_201" data-name="组 201">
        <g id="组_200" data-name="组 200" clip-path="url(#clip-path-4)">
          <path id="路径_123" data-name="路径 123" d="M21.975,9.042C22.517,2.727,27.647,0,32.751,0S42.985,2.727,43.528,9.042s-1.084,11.309-1.963,10.7.466-8.832-2.269-8.32c-4.314.814-11.575-2.775-11.575-2.775a4.033,4.033,0,0,1-1.678,3.223c-3.312,2.081-1.225,7.271-2.1,7.877s-2.514-4.4-1.971-10.7" transform="translate(-15.672)" fill="#342620" fill-rule="evenodd"/>
          <path id="路径_124" data-name="路径 124" d="M50.759,86.839a6.048,6.048,0,0,0-2.412-.646h-.054a5.963,5.963,0,0,0-2.412.646c-.7.248-2.565-.449-2.4,0s2.108,1.441,4.811,1.455h.046c2.7-.015,4.647-1.011,4.811-1.455s-1.665.252-2.391,0" transform="translate(-31.154 -61.772)" fill="#342620" fill-rule="evenodd"/>
        </g>
      </g>
    </g>
    <g id="talk_left" transform="translate(55 184)">
      <g id="组_205" data-name="组 205" transform="translate(0 0)" clip-path="url(#clip-path-9)">
        <path id="路径_125" data-name="路径 125" d="M165.413.5H8.488C6.329.5,4.577,2.549,4.577,5.077V29.713c0,2.527,1.752,4.577,3.911,4.577H165.413c2.16,0,3.911-2.049,3.911-4.577V5.077c0-2.527-1.751-4.577-3.911-4.577" transform="translate(0.159 0.106)" fill="#fff"/>
        <path id="矩形_137" data-name="矩形 137" d="M3.781,0H160.966a3.78,3.78,0,0,1,3.78,3.78V30.01a3.78,3.78,0,0,1-3.78,3.78H3.781A3.781,3.781,0,0,1,0,30.009V3.781A3.781,3.781,0,0,1,3.781,0Z" transform="translate(4.736 0.606)" fill="#fff"/>
        <path id="路径_126" data-name="路径 126" d="M9.6.5H.809c1.035,2.421,3.1,3.631,4.139,10.894.12.842-.311,1.54,0,2.421" transform="translate(0.028 0.106)" fill="#fff"/>
        <path id="路径_127" data-name="路径 127" d="M9.6.5H.809c1.035,2.421,3.1,3.631,4.139,10.894.12.842-.311,1.54,0,2.421" transform="translate(0.028 0.106)" fill="#fff"/>
      </g>
    </g>
    <g id="more" transform="translate(190.333 -375.667)">
      <path id="路径_151" data-name="路径 151" d="M170.667,428.167a1.706,1.706,0,1,0,1.693-1.5A1.606,1.606,0,0,0,170.667,428.167Z" fill="#515151"/>
      <path id="路径_152" data-name="路径 152" d="M426.667,428.167a1.706,1.706,0,1,0,1.693-1.5A1.606,1.606,0,0,0,426.667,428.167Z" transform="translate(-250.693)" fill="#515151"/>
      <path id="路径_153" data-name="路径 153" d="M682.667,428.167a1.706,1.706,0,1,0,1.693-1.5A1.606,1.606,0,0,0,682.667,428.167Z" transform="translate(-501.387)" fill="#515151"/>
    </g>
    <g id="状态栏_白" data-name="状态栏/白">
      <rect id="状态栏_白_background" data-name="状态栏/白 background" width="390" height="30"/>
      <path id="矩形" d="M0,0H390V30H0Z" fill="#fff"/>
      <g id="Right_Detail" data-name="Right Detail" transform="translate(350 11.211)">
        <g id="Battery">
          <path id="Rectangle_3" data-name="Rectangle 3" d="M0,2.5A2.5,2.5,0,0,1,2.5,0h17A2.5,2.5,0,0,1,22,2.5V8.734A1.766,1.766,0,0,1,20.234,10.5H2.5A2.5,2.5,0,0,1,0,8Z"/>
          <path id="Combined_Shape" data-name="Combined Shape" d="M0,3.874H0V0A2,2,0,0,1,1.5,1.937,2,2,0,0,1,0,3.873Z" transform="translate(23 3.5)"/>
          <rect id="Rectangle_Copy_4" data-name="Rectangle Copy 4" width="18" height="6.5" rx="1" transform="translate(2 2)"/>
        </g>
      </g>
      <text id="Time" transform="translate(26 20)" font-size="12" font-family="SegoeUI, Segoe UI"><tspan x="-11.004" y="0">9:41</tspan></text>
      <g id="Left_Detail" data-name="Left Detail" transform="translate(312 10.81)">
        <path id="Wifi" d="M4.361,6.906a2.884,2.884,0,0,1,4.284.032L6.522,9ZM6.487,4.477A4.419,4.419,0,0,0,3.27,5.848L2.179,4.793a6.037,6.037,0,0,1,8.645.029L9.734,5.88A4.416,4.416,0,0,0,6.487,4.477Zm0-2.984a7.54,7.54,0,0,0-5.4,2.245L0,2.682A9.1,9.1,0,0,1,6.487,0,9.1,9.1,0,0,1,13,2.707L11.911,3.764A7.537,7.537,0,0,0,6.487,1.492Z" transform="translate(19.5 0.5)"/>
        <path id="Mobile_Signal" data-name="Mobile Signal" d="M12.5,9.5A.5.5,0,0,1,12,9V.5a.5.5,0,0,1,.5-.5H14a.5.5,0,0,1,.5.5V9a.5.5,0,0,1-.5.5Zm-4,0A.5.5,0,0,1,8,9V3a.5.5,0,0,1,.5-.5H10a.5.5,0,0,1,.5.5V9a.5.5,0,0,1-.5.5Zm-4,0A.5.5,0,0,1,4,9V5a.5.5,0,0,1,.5-.5H6a.5.5,0,0,1,.5.5V9a.5.5,0,0,1-.5.5Zm-4,0A.5.5,0,0,1,0,9V7a.5.5,0,0,1,.5-.5H2a.5.5,0,0,1,.5.5V9a.5.5,0,0,1-.5.5Z"/>
      </g>
    </g>
  </g>
</svg>
