<svg xmlns="http://www.w3.org/2000/svg" xmlns:xlink="http://www.w3.org/1999/xlink" width="390" height="844" viewBox="0 0 390 844">
  <defs>
    <clipPath id="clip-path">
      <rect id="矩形_128" data-name="矩形 128" width="34" height="34" fill="rgba(0,0,0,0)"/>
    </clipPath>
    <clipPath id="clip-path-2">
      <path id="路径_107" data-name="路径 107" d="M23.259,105.264a1.523,1.523,0,0,0-.067.686l21.549,0a1.362,1.362,0,0,0-.09-.684c-1.028-2.638-4.963-4.87-10.686-4.87s-9.832,2.225-10.7,4.864" transform="translate(-23.179 -100.4)" fill="rgba(0,0,0,0)"/>
    </clipPath>
    <clipPath id="clip-path-6">
      <rect id="矩形_40" data-name="矩形 40" width="19.947" height="20" fill="#007bff"/>
    </clipPath>
    <clipPath id="clip-path-7">
      <rect id="矩形_41" data-name="矩形 41" width="20" height="20" fill="#007bff"/>
    </clipPath>
    <clipPath id="clip-path-8">
      <rect id="矩形_43" data-name="矩形 43" width="20" height="20" fill="#515151"/>
    </clipPath>
    <clipPath id="clip-消息列表页">
      <rect width="390" height="844"/>
    </clipPath>
  </defs>
  <g id="消息列表页" clip-path="url(#clip-消息列表页)">
    <rect width="390" height="844" fill="#f5f5f5"/>
    <rect id="矩形_1" data-name="矩形 1" width="390" height="46" transform="translate(0 30)" fill="#fff"/>
    <text id="消息" transform="translate(35 60)" font-size="18" font-family="MicrosoftYaHei-Bold, Microsoft YaHei" font-weight="700" letter-spacing="0.2em"><tspan x="-19.8" y="0">消息</tspan></text>
    <line id="直线_9" data-name="直线 9" x2="390" transform="translate(0 76)" fill="none" stroke="#cdcdcd" stroke-width="1"/>
    <g id="add" transform="translate(291 -23.018)">
      <path id="路径_128" data-name="路径 128" d="M74,86.018A10,10,0,1,1,81.07,83.09,9.936,9.936,0,0,1,74,86.018Zm0-18.566a8.568,8.568,0,1,0,6.062,2.51A8.517,8.517,0,0,0,74,67.452Z" transform="translate(0)" fill="#515151"/>
      <path id="路径_129" data-name="路径 129" d="M266.868,261.11h-4.347v-4.38a.725.725,0,1,0-1.449,0v4.38h-4.347a.73.73,0,0,0,0,1.46h4.347v4.38a.725.725,0,1,0,1.449,0v-4.38h4.347a.73.73,0,0,0,0-1.46Z" transform="translate(-187.796 -185.822)" fill="#515151"/>
    </g>
    <rect id="矩形_142" data-name="矩形 142" width="390" height="52" transform="translate(0 76)" fill="#fff"/>
    <g id="矩形_143" data-name="矩形 143" transform="translate(15 87)" fill="#fff" stroke="#dbdbdb" stroke-width="1">
      <rect width="35" height="35" rx="6" stroke="none"/>
      <rect x="0.5" y="0.5" width="34" height="34" rx="5.5" fill="none"/>
    </g>
    <g id="nan" transform="translate(15 87)">
      <g id="组_193" data-name="组 193">
        <g id="组_192" data-name="组 192" clip-path="url(#clip-path)">
          <path id="路径_106" data-name="路径 106" d="M44.741,105.953h0a1.365,1.365,0,0,0-.09-.684c-1.028-2.638-4.963-4.87-10.686-4.87s-9.832,2.225-10.7,4.864a1.523,1.523,0,0,0-.067.686Z" transform="translate(-16.612 -71.953)" fill="#98375e"/>
        </g>
      </g>
      <g id="组_195" data-name="组 195" transform="translate(6.567 28.447)">
        <g id="组_194" data-name="组 194" clip-path="url(#clip-path-2)">
          <rect id="矩形_129" data-name="矩形 129" width="2.259" height="14.874" transform="translate(2.861 -2.939)" fill="#c05371"/>
          <rect id="矩形_130" data-name="矩形 130" width="1.128" height="14.874" transform="translate(5.475 -2.939)" fill="#c05371"/>
          <rect id="矩形_131" data-name="矩形 131" width="2.259" height="14.874" transform="translate(16.291 -2.941)" fill="#c05371"/>
          <rect id="矩形_132" data-name="矩形 132" width="1.128" height="14.874" transform="translate(14.808 -2.941)" fill="#c05371"/>
        </g>
      </g>
      <g id="组_197" data-name="组 197">
        <g id="组_196" data-name="组 196" clip-path="url(#clip-path)">
          <path id="路径_108" data-name="路径 108" d="M51.858,75.112h4.771v7.032A2.131,2.131,0,0,1,54.5,84.275h-.509a2.131,2.131,0,0,1-2.131-2.131Z" transform="translate(-37.165 -53.83)" fill="#fdcc9b"/>
          <path id="路径_109" data-name="路径 109" d="M51.295,90.094l4.93-.085v1.1a8.222,8.222,0,0,1-4.93-1.015Z" transform="translate(-36.761 -64.506)" fill="#fcbc85"/>
          <path id="路径_110" data-name="路径 110" d="M23.769,50.41h16.1a3.09,3.09,0,0,1,3.09,3.09h0a3.09,3.09,0,0,1-3.09,3.09h-16.1a3.09,3.09,0,0,1-3.09-3.09h0a3.09,3.09,0,0,1,3.09-3.09" transform="translate(-14.82 -36.127)" fill="#fcbc85"/>
          <path id="路径_111" data-name="路径 111" d="M46.649,32.125c0,5.355-1.128,9.906-8.922,9.906s-8.905-4.551-8.905-9.906,3.985-9.7,8.913-9.7,8.915,4.342,8.915,9.7" transform="translate(-20.656 -16.074)" fill="#fdcc9b"/>
          <path id="路径_112" data-name="路径 112" d="M41.1,46.891c.575,0,1.4.419,1.4.241a1.421,1.421,0,0,0-2.8,0c0,.168.826-.241,1.4-.241" transform="translate(-28.454 -32.929)" fill="#401900"/>
          <path id="路径_113" data-name="路径 113" d="M41.837,54.659a1.11,1.11,0,1,1-1.135,1.11,1.122,1.122,0,0,1,1.135-1.11" transform="translate(-29.17 -39.172)" fill="#3b2519"/>
          <path id="路径_114" data-name="路径 114" d="M41.949,55.54a.389.389,0,1,1-.455.384.424.424,0,0,1,.455-.384" transform="translate(-29.737 -39.804)" fill="#fff"/>
          <path id="路径_115" data-name="路径 115" d="M71.835,46.891c.577,0,1.4.419,1.4.241a1.421,1.421,0,0,0-2.8,0c0,.168.825-.241,1.4-.241" transform="translate(-50.478 -32.929)" fill="#401900"/>
          <path id="路径_116" data-name="路径 116" d="M72.565,54.659a1.11,1.11,0,1,1-1.135,1.11,1.122,1.122,0,0,1,1.135-1.11" transform="translate(-51.192 -39.172)" fill="#3b2519"/>
          <path id="路径_117" data-name="路径 117" d="M72.684,55.54a.389.389,0,1,1-.455.384.424.424,0,0,1,.455-.384" transform="translate(-51.764 -39.804)" fill="#fff"/>
          <path id="路径_118" data-name="路径 118" d="M56.663,70.924c-.629,0-1.319-.459-1.319-.375,0,.589.591.856,1.319.856s1.317-.266,1.317-.856c0-.084-.692.375-1.317.375" transform="translate(-39.663 -50.553)" fill="#fcbc85"/>
          <path id="路径_119" data-name="路径 119" d="M56.86,83.058a6.208,6.208,0,0,1-1.242-.233c0,.233.556.419,1.242.419s1.24-.191,1.24-.419a5.694,5.694,0,0,1-1.24.233" transform="translate(-39.86 -59.358)" fill="#fcbc85"/>
          <path id="路径_120" data-name="路径 120" d="M53.364,79.2a13.419,13.419,0,0,1-2.624-.474c0,.476,1.174.864,2.624.864s2.622-.388,2.622-.864a13.481,13.481,0,0,1-2.622.474" transform="translate(-36.364 -56.415)" fill="#f7945e"/>
        </g>
      </g>
      <g id="组_199" data-name="组 199" transform="translate(6.567 28.447)">
        <g id="组_198" data-name="组 198" clip-path="url(#clip-path-2)">
          <path id="路径_121" data-name="路径 121" d="M52.086,88.3A2.83,2.83,0,1,0,55.3,91.1a3.03,3.03,0,0,0-3.209-2.8m0,5.034a2.243,2.243,0,1,1,2.542-2.222,2.4,2.4,0,0,1-2.542,2.222Z" transform="translate(-41.595 -91.728)" fill="#c05371"/>
        </g>
      </g>
      <g id="组_201" data-name="组 201">
        <g id="组_200" data-name="组 200" clip-path="url(#clip-path)">
          <path id="路径_123" data-name="路径 123" d="M21.975,9.042C22.517,2.727,27.647,0,32.751,0S42.985,2.727,43.528,9.042s-1.084,11.309-1.963,10.7.466-8.832-2.269-8.32c-4.314.814-11.575-2.775-11.575-2.775a4.033,4.033,0,0,1-1.678,3.223c-3.312,2.081-1.225,7.271-2.1,7.877s-2.514-4.4-1.971-10.7" transform="translate(-15.672)" fill="#342620" fill-rule="evenodd"/>
          <path id="路径_124" data-name="路径 124" d="M50.759,86.839a6.048,6.048,0,0,0-2.412-.646h-.054a5.963,5.963,0,0,0-2.412.646c-.7.248-2.565-.449-2.4,0s2.108,1.441,4.811,1.455h.046c2.7-.015,4.647-1.011,4.811-1.455s-1.665.252-2.391,0" transform="translate(-31.154 -61.772)" fill="#342620" fill-rule="evenodd"/>
        </g>
      </g>
    </g>
    <text id="Mg" transform="translate(72 102)" font-size="14" font-family="MicrosoftYaHei, Microsoft YaHei" letter-spacing="0.1em"><tspan x="-12.017" y="0">Mg</tspan></text>
    <text id="_1111111111111" data-name="1111111111111" transform="translate(113 119)" font-size="12" font-family="MicrosoftYaHei, Microsoft YaHei" letter-spacing="0.1em"><tspan x="-52.941" y="0">1111111111111</tspan></text>
    <line id="直线_21" data-name="直线 21" x2="390" transform="translate(0 128)" fill="none" stroke="#e6e6e6" stroke-width="1"/>
    <rect id="矩形-底边框" width="390" height="49" transform="translate(0 795)" fill="#efefef" opacity="0.9"/>
    <g id="news-unchecked" transform="translate(41 800)">
      <rect id="矩形-消息" width="60" height="39" fill="none"/>
      <g id="组-消息" transform="translate(20)">
        <g id="组_16" data-name="组 16">
          <g id="组_15" data-name="组 15" clip-path="url(#clip-path-6)">
            <path id="路径_14" data-name="路径 14" d="M9.974.858C4.491.858,0,4.675,0,9.451L0,9.6a8.565,8.565,0,0,0,5.426,7.5l.107.046v2.89l0,.059a.767.767,0,0,0,1.226.554l3.471-2.611.067,0c5.334-.148,9.646-3.908,9.646-8.588,0-4.776-4.491-8.593-9.974-8.593m0,1.534c4.686,0,8.44,3.19,8.44,7.058s-3.753,7.058-8.44,7.058l-.071,0a.768.768,0,0,0-.39.151L7.07,18.5V16.629a.767.767,0,0,0-.5-.72c-3.047-1.128-5.034-3.655-5.034-6.459,0-3.868,3.753-7.058,8.44-7.058" transform="translate(0 -0.834)" fill="#007bff"/>
          </g>
        </g>
        <g id="组_18" data-name="组 18">
          <g id="组_17" data-name="组 17" clip-path="url(#clip-path-7)">
            <path id="路径_15" data-name="路径 15" d="M150.938,328.538a.77.77,0,0,1,.684.416l-.037-.054a4.479,4.479,0,0,0,3.73,2.129l.139,0v1.534a6.009,6.009,0,0,1-5.079-2.709l-.08-.121,0,0a.767.767,0,0,1,.64-1.194" transform="translate(-145.938 -319.307)" fill="#007bff"/>
          </g>
        </g>
      </g>
      <text id="消息-2" data-name="消息" transform="translate(30 36)" fill="#007bff" font-size="12" font-family="MicrosoftYaHei, Microsoft YaHei" letter-spacing="0.2em"><tspan x="-13.2" y="0">消息</tspan></text>
    </g>
    <g id="personal-checked" transform="translate(291 798.944)">
      <rect id="矩形-我的" width="60" height="39" transform="translate(0 1.056)" fill="none"/>
      <text id="我的" transform="translate(30 37.056)" fill="#515151" font-size="12" font-family="MicrosoftYaHei, Microsoft YaHei" letter-spacing="0.2em"><tspan x="-13.2" y="0">我的</tspan></text>
      <path id="my" d="M17.087,0A6.939,6.939,0,0,1,20.62,12.91a9.135,9.135,0,0,1,5.443,6.632.832.832,0,0,1-1.622.369.059.059,0,0,0-.016-.048,7.523,7.523,0,0,0-7.162-6.005h-.193a7.51,7.51,0,0,0-7.322,6.005.827.827,0,0,1-1.622-.321A9.135,9.135,0,0,1,13.57,12.91,6.939,6.939,0,0,1,17.087,0Zm0,1.67a5.267,5.267,0,1,0,0,10.534H17.1A5.267,5.267,0,0,0,17.087,1.67Z" transform="translate(11.856)" fill="#515151"/>
    </g>
    <g id="contacts-checked" transform="translate(166 800)">
      <rect id="矩形-联系人" width="60" height="39" fill="none"/>
      <g id="组-联系人" transform="translate(20)">
        <g id="组_22" data-name="组 22" clip-path="url(#clip-path-8)">
          <path id="路径_18" data-name="路径 18" d="M7.587,1.141a6.138,6.138,0,0,1,5.854,6.388,6.517,6.517,0,0,1-2.88,5.5,8.3,8.3,0,0,1,4.6,6.114.811.811,0,0,1-.215.744.659.659,0,0,1-.7.153.752.752,0,0,1-.461-.6,6.508,6.508,0,0,0-6.048-5.529l-.139,0H7.568A6.491,6.491,0,0,0,1.39,19.446a.706.706,0,0,1-.825.592.766.766,0,0,1-.552-.894,8.3,8.3,0,0,1,4.6-6.112,6.517,6.517,0,0,1-2.881-5.5A6.138,6.138,0,0,1,7.587,1.141M13.207.119A5.648,5.648,0,0,1,18.592,6a6.068,6.068,0,0,1-2.183,4.727l-.052.041A7.364,7.364,0,0,1,20,17.239a.705.705,0,1,1-1.4,0,5.7,5.7,0,0,0-4.144-5.623.786.786,0,0,1-.015-1.487l-.027.01A4.323,4.323,0,0,0,17.187,6a4.509,4.509,0,0,0-1.456-3.36,3.738,3.738,0,0,0-3.3-.9.707.707,0,0,1-.826-.6.767.767,0,0,1,.553-.9A4.962,4.962,0,0,1,13.207.119M7.587,2.674A4.665,4.665,0,0,0,3.139,7.529a4.665,4.665,0,0,0,4.449,4.855H7.6a4.667,4.667,0,0,0,4.44-4.865A4.663,4.663,0,0,0,7.587,2.674" transform="translate(0 -0.115)" fill="#515151"/>
        </g>
      </g>
      <text id="联系人" transform="translate(30 36)" fill="#515151" font-size="12" font-family="MicrosoftYaHei, Microsoft YaHei" letter-spacing="0.2em"><tspan x="-20.4" y="0">联系人</tspan></text>
    </g>
    <g id="notice" transform="translate(297.176 43.001)">
      <path id="路径_168" data-name="路径 168" d="M105.59,14.4l-1.3-1.009a.906.906,0,0,1-.352-.72V8.015a6.036,6.036,0,0,0-3.684-5.557,6.059,6.059,0,0,0-.78-.269V1.566a1.568,1.568,0,0,0-3.136,0v.623a6.109,6.109,0,0,0-.781.269,6.028,6.028,0,0,0-3.684,5.557v4.651a.907.907,0,0,1-.352.72l-1.3,1.009a1.468,1.468,0,0,0,.9,2.628h13.56a1.467,1.467,0,0,0,.9-2.627Zm-2-.1,1.3,1.009a.318.318,0,0,1-.195.568H91.128a.318.318,0,0,1-.195-.568l1.3-1.009a2.05,2.05,0,0,0,.8-1.629V8.014a4.881,4.881,0,1,1,9.761,0v4.652A2.052,2.052,0,0,0,103.586,14.295ZM97.909,1.15a.417.417,0,0,1,.416.416v.354h-.833V1.566A.417.417,0,0,1,97.909,1.15Z" transform="translate(-60.271)" fill="#515151"/>
      <path id="路径_169" data-name="路径 169" d="M406.366,914.347a2.064,2.064,0,0,0,4.127,0v-.08h-4.127Z" transform="translate(-370.793 -896.412)" fill="#515151"/>
      <path id="路径_170" data-name="路径 170" d="M32.387,77.227a.575.575,0,0,0-.724-.895,9.488,9.488,0,0,0-3.472,6.336.576.576,0,0,0,.508.635.551.551,0,0,0,.064,0,.574.574,0,0,0,.571-.512A8.3,8.3,0,0,1,32.387,77.227Z" transform="translate(0 -74.717)" fill="#515151"/>
      <path id="路径_171" data-name="路径 171" d="M774.3,82.64a9.4,9.4,0,0,0-1.131-3.551,9.5,9.5,0,0,0-2.341-2.785.576.576,0,0,0-.935.508.57.57,0,0,0,.21.387,8.3,8.3,0,0,1,3.052,5.568.575.575,0,0,0,.571.512.548.548,0,0,0,.064,0,.576.576,0,0,0,.509-.635Z" transform="translate(-727.215 -74.689)" fill="#515151"/>
    </g>
    <text id="上午9:41" transform="translate(345 102)" font-size="14" font-family="MicrosoftYaHei, Microsoft YaHei" letter-spacing="0.1em"><tspan x="-31.5" y="0">上午9:41</tspan></text>
    <circle id="椭圆_10" data-name="椭圆 10" cx="4" cy="4" r="4" transform="translate(78 801)" fill="#dc3545"/>
    <circle id="椭圆_11" data-name="椭圆 11" cx="4" cy="4" r="4" transform="translate(201 801)" fill="#dc3545"/>
    <circle id="椭圆_12" data-name="椭圆 12" cx="4" cy="4" r="4" transform="translate(338 43)" fill="#dc3545"/>
    <g id="状态栏_白" data-name="状态栏/白">
      <rect id="状态栏_白_background" data-name="状态栏/白 background" width="390" height="30"/>
      <path id="矩形" d="M0,0H390V30H0Z" fill="#fff"/>
      <g id="Right_Detail" data-name="Right Detail" transform="translate(350 11.211)">
        <g id="Battery">
          <path id="Rectangle_3" data-name="Rectangle 3" d="M0,2.5A2.5,2.5,0,0,1,2.5,0h17A2.5,2.5,0,0,1,22,2.5V8.734A1.766,1.766,0,0,1,20.234,10.5H2.5A2.5,2.5,0,0,1,0,8Z"/>
          <path id="Combined_Shape" data-name="Combined Shape" d="M0,3.874H0V0A2,2,0,0,1,1.5,1.937,2,2,0,0,1,0,3.873Z" transform="translate(23 3.5)"/>
          <rect id="Rectangle_Copy_4" data-name="Rectangle Copy 4" width="18" height="6.5" rx="1" transform="translate(2 2)"/>
        </g>
      </g>
      <text id="Time" transform="translate(26 20)" font-size="12" font-family="SegoeUI, Segoe UI"><tspan x="-11.004" y="0">9:41</tspan></text>
      <g id="Left_Detail" data-name="Left Detail" transform="translate(312 10.81)">
        <path id="Wifi" d="M4.361,6.906a2.884,2.884,0,0,1,4.284.032L6.522,9ZM6.487,4.477A4.419,4.419,0,0,0,3.27,5.848L2.179,4.793a6.037,6.037,0,0,1,8.645.029L9.734,5.88A4.416,4.416,0,0,0,6.487,4.477Zm0-2.984a7.54,7.54,0,0,0-5.4,2.245L0,2.682A9.1,9.1,0,0,1,6.487,0,9.1,9.1,0,0,1,13,2.707L11.911,3.764A7.537,7.537,0,0,0,6.487,1.492Z" transform="translate(19.5 0.5)"/>
        <path id="Mobile_Signal" data-name="Mobile Signal" d="M12.5,9.5A.5.5,0,0,1,12,9V.5a.5.5,0,0,1,.5-.5H14a.5.5,0,0,1,.5.5V9a.5.5,0,0,1-.5.5Zm-4,0A.5.5,0,0,1,8,9V3a.5.5,0,0,1,.5-.5H10a.5.5,0,0,1,.5.5V9a.5.5,0,0,1-.5.5Zm-4,0A.5.5,0,0,1,4,9V5a.5.5,0,0,1,.5-.5H6a.5.5,0,0,1,.5.5V9a.5.5,0,0,1-.5.5Zm-4,0A.5.5,0,0,1,0,9V7a.5.5,0,0,1,.5-.5H2a.5.5,0,0,1,.5.5V9a.5.5,0,0,1-.5.5Z"/>
      </g>
    </g>
  </g>
</svg>
