<svg xmlns="http://www.w3.org/2000/svg" xmlns:xlink="http://www.w3.org/1999/xlink" width="390" height="844" viewBox="0 0 390 844">
  <defs>
    <clipPath id="clip-path">
      <rect id="矩形_10" data-name="矩形 10" width="50" height="50" fill="#fff" stroke="#707070" stroke-width="1"/>
    </clipPath>
    <clipPath id="clip-path-2">
      <path id="路径_78" data-name="路径 78" d="M34.694,108.166h0a2.1,2.1,0,0,0-.134-1.042c-1.563-4.017-7.551-7.411-16.254-7.411s-14.965,3.394-16.286,7.4a2.333,2.333,0,0,0-.1,1.046H34.694Z" transform="translate(-1.898 -99.714)" fill="none"/>
    </clipPath>
    <clipPath id="clip-添加联系人_1">
      <rect width="390" height="844"/>
    </clipPath>
  </defs>
  <g id="添加联系人_1" data-name="添加联系人 – 1" clip-path="url(#clip-添加联系人_1)">
    <rect width="390" height="844" fill="#f5f5f5"/>
    <rect id="矩形_21" data-name="矩形 21" width="390" height="45" transform="translate(0 30)" fill="#fff"/>
    <text id="搜索用户" transform="translate(195 60)" font-size="18" font-family="MicrosoftYaHei-Bold, Microsoft YaHei" font-weight="700" letter-spacing="0.1em"><tspan x="-38.7" y="0">搜索用户</tspan></text>
    <line id="直线_20" data-name="直线 20" x2="375" transform="translate(0 75)" fill="none" stroke="#d8d8d8" stroke-width="1"/>
    <path id="路径" d="M-8.817,7.16a.913.913,0,0,0-.322.679.9.9,0,0,0,.2.569l.108.115,7.984,7.212a1.061,1.061,0,0,0,1.425-.02A.891.891,0,0,0,.663,14.5l-.108-.115L-6.668,7.862.543,1.613A.892.892,0,0,0,.68.417L.579.3A1.062,1.062,0,0,0-.7.149l-.13.092Z" transform="translate(24.639 45)" fill="#707070"/>
    <g id="more" transform="translate(190.333 -375.667)">
      <path id="路径_151" data-name="路径 151" d="M170.667,428.167a1.706,1.706,0,1,0,1.693-1.5A1.606,1.606,0,0,0,170.667,428.167Z" fill="#515151"/>
      <path id="路径_152" data-name="路径 152" d="M426.667,428.167a1.706,1.706,0,1,0,1.693-1.5A1.606,1.606,0,0,0,426.667,428.167Z" transform="translate(-250.693)" fill="#515151"/>
      <path id="路径_153" data-name="路径 153" d="M682.667,428.167a1.706,1.706,0,1,0,1.693-1.5A1.606,1.606,0,0,0,682.667,428.167Z" transform="translate(-501.387)" fill="#515151"/>
    </g>
    <rect id="矩形_184" data-name="矩形 184" width="390" height="74" transform="translate(0 121)" fill="#fff"/>
    <line id="直线_9" data-name="直线 9" x2="390" transform="translate(0.5 195)" fill="none" stroke="#c5c5c5" stroke-width="1"/>
    <g id="矩形_185" data-name="矩形 185" transform="translate(15 133)" fill="#fff" stroke="#dbdbdb" stroke-width="1">
      <rect width="50" height="50" rx="6" stroke="none"/>
      <rect x="0.5" y="0.5" width="49" height="49" rx="5.5" fill="none"/>
    </g>
    <g id="男_18" data-name="男 18" transform="translate(-737 58)">
      <g id="蒙版组_6" data-name="蒙版组 6" transform="translate(752 75)" clip-path="url(#clip-path)">
        <g id="图层_2" data-name="图层 2" transform="translate(8.199 0)">
          <g id="图层_1" data-name="图层 1" transform="translate(0)">
            <path id="路径_68" data-name="路径 68" d="M34.694,108.166h0a2.1,2.1,0,0,0-.134-1.042c-1.563-4.017-7.551-7.411-16.254-7.411s-14.965,3.394-16.286,7.4a2.333,2.333,0,0,0-.1,1.046H34.694Z" transform="translate(-1.109 -58.167)" fill="#2177f4"/>
            <path id="路径_69" data-name="路径 69" d="M31.556,73.572h7.266v10.7a3.241,3.241,0,0,1-3.241,3.241h-.787a3.241,3.241,0,0,1-3.241-3.241v-10.7Z" transform="translate(-18.407 -42.918)" fill="#fdcc9b"/>
            <path id="路径_70" data-name="路径 70" d="M30.971,89.128l7.5-.128v1.672a12.509,12.509,0,0,1-7.5-1.544Z" transform="translate(-18.068 -51.917)" fill="#fcbc85"/>
            <rect id="矩形_33" data-name="矩形 33" width="31.756" height="9.402" rx="4.701" transform="translate(0.78 20.012)" fill="#fcbc85"/>
            <path id="路径_71" data-name="路径 71" d="M34.841,33.827c0,8.148-1.716,15.067-13.575,15.067S7.695,41.975,7.695,33.827s6.077-14.75,13.571-14.75S34.841,25.682,34.841,33.827Z" transform="translate(-4.49 -11.129)" fill="#fdcc9b"/>
            <path id="路径_72" data-name="路径 72" d="M21.121,44.846c.877,0,2.131.638,2.131.367a1.988,1.988,0,0,0-2.131-1.8,1.985,1.985,0,0,0-2.128,1.8C18.991,45.468,20.246,44.846,21.121,44.846Z" transform="translate(-11.081 -25.325)" fill="#401900"/>
            <ellipse id="椭圆_26" data-name="椭圆 26" cx="1.726" cy="1.688" rx="1.726" ry="1.688" transform="translate(8.338 21.843)" fill="#3b2519"/>
            <ellipse id="椭圆_27" data-name="椭圆 27" cx="0.692" cy="0.584" rx="0.692" ry="0.584" transform="translate(8.682 22.223)" fill="#fff"/>
            <path id="路径_73" data-name="路径 73" d="M52.909,44.846c.875,0,2.131.638,2.131.367a2.162,2.162,0,0,0-4.262,0C50.775,45.468,52.029,44.846,52.909,44.846Z" transform="translate(-29.622 -25.325)" fill="#401900"/>
            <ellipse id="椭圆_28" data-name="椭圆 28" cx="1.726" cy="1.688" rx="1.726" ry="1.688" transform="translate(21.584 21.843)" fill="#3b2519"/>
            <ellipse id="椭圆_29" data-name="椭圆 29" cx="0.692" cy="0.584" rx="0.692" ry="0.584" transform="translate(21.925 22.223)" fill="#fff"/>
            <path id="路径_74" data-name="路径 74" d="M37.17,69.428c-.958,0-2-.7-2-.571,0,.9.9,1.305,2,1.305s2-.408,2-1.305C39.174,68.733,38.121,69.428,37.17,69.428Z" transform="translate(-20.516 -40.159)" fill="#fcbc85"/>
            <path id="路径_75" data-name="路径 75" d="M37.335,81.935a9.375,9.375,0,0,1-1.885-.354c0,.357.845.638,1.885.638s1.885-.287,1.885-.638a9.492,9.492,0,0,1-1.885.354Z" transform="translate(-20.681 -47.589)" fill="#fcbc85"/>
            <path id="路径_76" data-name="路径 76" d="M34.388,78.033a20.436,20.436,0,0,1-3.991-.721c0,.728,1.787,1.315,3.991,1.315s3.991-.587,3.991-1.315A20.429,20.429,0,0,1,34.388,78.033Z" transform="translate(-17.733 -45.094)" fill="#f7945e"/>
            <g id="组_3" data-name="组 3" transform="translate(0.789 41.547)" clip-path="url(#clip-path-2)">
              <path id="路径_77" data-name="路径 77" d="M33.355,87.216c-2.7,0-4.881,1.914-4.881,4.269s2.185,4.269,4.881,4.269,4.884-1.914,4.884-4.269S36.051,87.216,33.355,87.216Zm0,7.657a3.414,3.414,0,1,1,0-6.767,3.412,3.412,0,1,1,0,6.763Z" transform="translate(-17.401 -92.424)" fill="#25d8ef"/>
            </g>
            <path id="路径_79" data-name="路径 79" d="M28.419,4.86S23.017-2,11.806.584-.279,9.926.06,16.495s2.195,10.423,3.26,9.947.191-4.816.3-5.816.488-5.525,7.315-4.849a28.275,28.275,0,0,0,12.583-1.8s2.322,2.935,3.841,3.49c3.042,1.12,1.726,8.595,2.919,8.595S37.647,8.8,28.419,4.86Z" transform="translate(-0.004 -0.001)" fill="#d96e27" fill-rule="evenodd"/>
          </g>
        </g>
      </g>
    </g>
    <text id="_1" data-name="1" transform="translate(75 150)" fill="#515151" font-size="14" font-family="MicrosoftYaHei, Microsoft YaHei" letter-spacing="0.1em"><tspan x="0" y="0">1</tspan></text>
    <text id="UID:0" transform="translate(75 179)" fill="#515151" font-size="14" font-family="MicrosoftYaHei, Microsoft YaHei" letter-spacing="0.1em"><tspan x="0" y="0">UID:0</tspan></text>
    <rect id="矩形_12" data-name="矩形 12" width="55" height="36" rx="6" transform="translate(320 140)" fill="#007bff"/>
    <text id="添加" transform="translate(348 165)" fill="#fff" font-size="16" font-family="MicrosoftYaHei, Microsoft YaHei" letter-spacing="0.2em"><tspan x="-17.6" y="0">添加</tspan></text>
    <g id="状态栏_白" data-name="状态栏/白">
      <rect id="状态栏_白_background" data-name="状态栏/白 background" width="390" height="30"/>
      <path id="矩形" d="M0,0H390V30H0Z" fill="#fff"/>
      <g id="Right_Detail" data-name="Right Detail" transform="translate(350 11.211)">
        <g id="Battery">
          <path id="Rectangle_3" data-name="Rectangle 3" d="M0,2.5A2.5,2.5,0,0,1,2.5,0h17A2.5,2.5,0,0,1,22,2.5V8.734A1.766,1.766,0,0,1,20.234,10.5H2.5A2.5,2.5,0,0,1,0,8Z"/>
          <path id="Combined_Shape" data-name="Combined Shape" d="M0,3.874H0V0A2,2,0,0,1,1.5,1.937,2,2,0,0,1,0,3.873Z" transform="translate(23 3.5)"/>
          <rect id="Rectangle_Copy_4" data-name="Rectangle Copy 4" width="18" height="6.5" rx="1" transform="translate(2 2)"/>
        </g>
      </g>
      <text id="Time" transform="translate(26 20)" font-size="12" font-family="SegoeUI, Segoe UI"><tspan x="-11.004" y="0">9:41</tspan></text>
      <g id="Left_Detail" data-name="Left Detail" transform="translate(312 10.81)">
        <path id="Wifi" d="M4.361,6.906a2.884,2.884,0,0,1,4.284.032L6.522,9ZM6.487,4.477A4.419,4.419,0,0,0,3.27,5.848L2.179,4.793a6.037,6.037,0,0,1,8.645.029L9.734,5.88A4.416,4.416,0,0,0,6.487,4.477Zm0-2.984a7.54,7.54,0,0,0-5.4,2.245L0,2.682A9.1,9.1,0,0,1,6.487,0,9.1,9.1,0,0,1,13,2.707L11.911,3.764A7.537,7.537,0,0,0,6.487,1.492Z" transform="translate(19.5 0.5)"/>
        <path id="Mobile_Signal" data-name="Mobile Signal" d="M12.5,9.5A.5.5,0,0,1,12,9V.5a.5.5,0,0,1,.5-.5H14a.5.5,0,0,1,.5.5V9a.5.5,0,0,1-.5.5Zm-4,0A.5.5,0,0,1,8,9V3a.5.5,0,0,1,.5-.5H10a.5.5,0,0,1,.5.5V9a.5.5,0,0,1-.5.5Zm-4,0A.5.5,0,0,1,4,9V5a.5.5,0,0,1,.5-.5H6a.5.5,0,0,1,.5.5V9a.5.5,0,0,1-.5.5Zm-4,0A.5.5,0,0,1,0,9V7a.5.5,0,0,1,.5-.5H2a.5.5,0,0,1,.5.5V9a.5.5,0,0,1-.5.5Z"/>
      </g>
    </g>
    <rect id="矩形_174" data-name="矩形 174" width="390" height="46" transform="translate(0 75)" fill="#ccc"/>
    <rect id="矩形_33-2" data-name="矩形 33" width="316" height="36" rx="6" transform="translate(10 80)" fill="#fff"/>
    <text id="搜索联系人" transform="translate(81 103)" fill="#707070" font-size="16" font-family="MicrosoftYaHei, Microsoft YaHei" letter-spacing="0.2em"><tspan x="-46.4" y="0">搜索联系人</tspan></text>
    <path id="搜索" d="M37.145,41.736a.559.559,0,0,1,1.118,0,3.546,3.546,0,0,0,3.54,3.506.554.554,0,1,1,0,1.107,4.637,4.637,0,0,1-4.658-4.613Zm4.658,5.72a5.72,5.72,0,1,0-5.776-5.72A5.73,5.73,0,0,0,41.8,47.455Zm5.18-1.218,2.758,2.731a.531.531,0,0,1,0,.775.544.544,0,0,1-.783,0l-2.8-2.768a6.97,6.97,0,0,1-4.36,1.55,6.809,6.809,0,1,1,6.894-6.79,6.632,6.632,0,0,1-1.714,4.5Z" transform="translate(-19.909 55.091)" fill="#515151"/>
    <rect id="矩形_175" data-name="矩形 175" width="44" height="36" rx="6" transform="translate(336 80)" fill="#fff"/>
    <text id="搜索-2" data-name="搜索" transform="translate(358 104)" fill="#515151" font-size="14" font-family="MicrosoftYaHei, Microsoft YaHei"><tspan x="-14" y="0">搜索</tspan></text>
  </g>
</svg>
