<svg xmlns="http://www.w3.org/2000/svg" xmlns:xlink="http://www.w3.org/1999/xlink" width="390" height="844" viewBox="0 0 390 844">
  <defs>
    <clipPath id="clip-系统通知_-_暂无通知">
      <rect width="390" height="844"/>
    </clipPath>
  </defs>
  <g id="系统通知_-_暂无通知" data-name="系统通知 - 暂无通知" clip-path="url(#clip-系统通知_-_暂无通知)">
    <rect width="390" height="844" fill="#f5f5f5"/>
    <g id="noNotice" transform="translate(-828.7 -170.9)" opacity="0.8">
      <path id="路径_2296" d="M1060.394,557.472l44.95,35.328V406.173A10.106,10.106,0,0,0,1095.356,396H913.889a9.947,9.947,0,0,0-9.989,9.988V547.114a9.947,9.947,0,0,0,9.989,9.988l146.505.37Z" transform="translate(17.162 20.401)" fill="#e2e5f1"/>
      <path id="路径_1871" d="M971.629,489.962l8.138-4.809,4.809,8.138-82.308,47.535-4.809-8.138,8.138-4.809-16.647-28.854a38.038,38.038,0,0,1,65.847-38.1h0l16.831,29.039Zm-35.7,42.726,24.6-14.242,4.809,8.138-24.785,14.242Z" transform="translate(0.113 59.426)" fill="#417aff"/>
      <g id="组_9185" transform="translate(1142.244 535.95)">
        <g id="组_9175" transform="translate(0 0)">
          <path id="路径_2292" d="M9.328,18.656A10.728,10.728,0,1,1,20.056,7.928,10.981,10.981,0,0,1,9.328,18.656Zm0-17.571A6.989,6.989,0,0,0,2.3,7.928a7.147,7.147,0,0,0,7.029,7.029,7.025,7.025,0,0,0,7.029-7.029h0A7.244,7.244,0,0,0,9.328,1.084Z" transform="translate(1.4 2.8)" fill="#a4bfff"/>
        </g>
      </g>
      <path id="路径_2297" d="M936.891,380.4,970,432.559a2.453,2.453,0,0,0,1.85,1.11,3.148,3.148,0,0,0,1.295-.185,2.553,2.553,0,0,0,.74-.555l12.577-12.577a1.989,1.989,0,0,1,2.59-.37l12.022,6.289a2.358,2.358,0,0,0,2.22,0,2.554,2.554,0,0,0,.74-.555,2.288,2.288,0,0,0,.555-2.774l-4.809-11.283a4.707,4.707,0,0,0-2.035-2.22l-46.611-24.6,52.714,17.017a1.135,1.135,0,0,0,1.11-.185l11.468-11.468a2.29,2.29,0,0,0,.555-2.589,2.355,2.355,0,0,0-2.035-1.665L939.3,376.7a3.147,3.147,0,0,0-1.295.185,1.894,1.894,0,0,0-1.11.925A2.2,2.2,0,0,0,936.891,380.4Z" transform="translate(44.849 4.928)" fill="#697391"/>
      <path id="路径_2298" d="M992.829,402s56.414,26.08,51.235,41.432-23.305,1.85-14.427-7.029c8.878-9.063,33.478-.555,33.293,30.7s-17.756,73.43-98.03,95.441" transform="translate(69.01 25.499)" fill="none" stroke="#c2c8d8" stroke-width="1" stroke-dasharray="2"/>
      <g id="组_9180" transform="translate(904.887 438.418)">
        <g id="组_9179" transform="translate(0 0)">
          <path id="路径_2294" d="M7.677,26.753-8.6,10.477,7.677-5.8,23.953,10.477ZM-2.866,10.662,7.862,21.389,18.4,10.662,7.677-.066Z" transform="translate(8.6 5.8)" fill="#c2c8d8"/>
        </g>
      </g>
      <path id="联合_11" d="M997.208,388.286a2.053,2.053,0,0,1-2.035-2.035v-4.439h-4.439a2.053,2.053,0,0,1-2.035-2.035v-.37a2.053,2.053,0,0,1,2.035-2.035h4.439v-4.439a2.053,2.053,0,0,1,2.035-2.035h.37a2.053,2.053,0,0,1,2.035,2.035v4.439h4.439a2.053,2.053,0,0,1,2.035,2.035h0v.37a2.053,2.053,0,0,1-2.035,2.035h-4.439v4.439a2.053,2.053,0,0,1-2.035,2.035h-.37Z" transform="translate(89.226)" fill="#417aff"/>
      <path id="联合_12" d="M948,515.53a2.053,2.053,0,0,1-2.034-2.035v-7.029h-7.029a2.053,2.053,0,0,1-2.035-2.035V502.4a2.053,2.053,0,0,1,2.035-2.035h7.029v-7.029A2.053,2.053,0,0,1,948,491.3h2.034a2.053,2.053,0,0,1,2.035,2.035v7.029H959.1a2.053,2.053,0,0,1,2.035,2.035v2.035a2.053,2.053,0,0,1-2.035,2.035h-7.029V513.5a2.053,2.053,0,0,1-2.035,2.035Z" transform="translate(45.208 101.37)" fill="#c2c8d8"/>
      <path id="联合_13" d="M892.763,403.466a2.053,2.053,0,0,1-2.035-2.035v-4.994h-4.994A2.053,2.053,0,0,1,883.7,394.4v-.74a2.053,2.053,0,0,1,2.034-2.035h4.994v-4.994a2.053,2.053,0,0,1,2.035-2.035h.74a2.053,2.053,0,0,1,2.035,2.035v4.994h4.994a2.053,2.053,0,0,1,2.035,2.035h0v.74a2.053,2.053,0,0,1-2.035,2.035h-5.179v4.994a2.053,2.053,0,0,1-2.035,2.035h-.555Z" transform="translate(0 11.64)" fill="#f1f3f8"/>
      <path id="联合_20" d="M992.374,457.3l16.647-16.647,8.323,8.323L1000.7,465.622ZM936.7,448.051l8.323-8.323,16.647,16.647-8.323,8.323Zm34.4,4.439V429h11.838v23.49Z" transform="translate(45.04 48.891)" fill="#fff"/>
    </g>
    <text id="暂无通知_" data-name="暂无通知~" transform="translate(188 479)" font-size="16" font-family="MicrosoftYaHei, Microsoft YaHei"><tspan x="-37.934" y="0">暂无通知~</tspan></text>
    <rect id="矩形_21" data-name="矩形 21" width="390" height="45" transform="translate(0 30)" fill="#fff"/>
    <text id="通知" transform="translate(195 60)" font-size="18" font-family="MicrosoftYaHei, Microsoft YaHei" letter-spacing="0.2em"><tspan x="-19.8" y="0">通知</tspan></text>
    <line id="直线_9" data-name="直线 9" x2="390" transform="translate(0 75)" fill="none" stroke="#c5c5c5" stroke-width="1"/>
    <path id="路径" d="M-8.817,7.16a.913.913,0,0,0-.322.679.9.9,0,0,0,.2.569l.108.115,7.984,7.212a1.061,1.061,0,0,0,1.425-.02A.891.891,0,0,0,.663,14.5l-.108-.115L-6.668,7.862.543,1.613A.892.892,0,0,0,.68.417L.579.3A1.062,1.062,0,0,0-.7.149l-.13.092Z" transform="translate(24.639 45)" fill="#707070"/>
    <g id="状态栏_白" data-name="状态栏/白">
      <rect id="状态栏_白_background" data-name="状态栏/白 background" width="390" height="30"/>
      <path id="矩形" d="M0,0H390V30H0Z" fill="#fff"/>
      <g id="Right_Detail" data-name="Right Detail" transform="translate(350 11.211)">
        <g id="Battery">
          <path id="Rectangle_3" data-name="Rectangle 3" d="M0,2.5A2.5,2.5,0,0,1,2.5,0h17A2.5,2.5,0,0,1,22,2.5V8.734A1.766,1.766,0,0,1,20.234,10.5H2.5A2.5,2.5,0,0,1,0,8Z"/>
          <path id="Combined_Shape" data-name="Combined Shape" d="M0,3.874H0V0A2,2,0,0,1,1.5,1.937,2,2,0,0,1,0,3.873Z" transform="translate(23 3.5)"/>
          <rect id="Rectangle_Copy_4" data-name="Rectangle Copy 4" width="18" height="6.5" rx="1" transform="translate(2 2)"/>
        </g>
      </g>
      <text id="Time" transform="translate(26 20)" font-size="12" font-family="SegoeUI, Segoe UI"><tspan x="-11.004" y="0">9:41</tspan></text>
      <g id="Left_Detail" data-name="Left Detail" transform="translate(312 10.81)">
        <path id="Wifi" d="M4.361,6.906a2.884,2.884,0,0,1,4.284.032L6.522,9ZM6.487,4.477A4.419,4.419,0,0,0,3.27,5.848L2.179,4.793a6.037,6.037,0,0,1,8.645.029L9.734,5.88A4.416,4.416,0,0,0,6.487,4.477Zm0-2.984a7.54,7.54,0,0,0-5.4,2.245L0,2.682A9.1,9.1,0,0,1,6.487,0,9.1,9.1,0,0,1,13,2.707L11.911,3.764A7.537,7.537,0,0,0,6.487,1.492Z" transform="translate(19.5 0.5)"/>
        <path id="Mobile_Signal" data-name="Mobile Signal" d="M12.5,9.5A.5.5,0,0,1,12,9V.5a.5.5,0,0,1,.5-.5H14a.5.5,0,0,1,.5.5V9a.5.5,0,0,1-.5.5Zm-4,0A.5.5,0,0,1,8,9V3a.5.5,0,0,1,.5-.5H10a.5.5,0,0,1,.5.5V9a.5.5,0,0,1-.5.5Zm-4,0A.5.5,0,0,1,4,9V5a.5.5,0,0,1,.5-.5H6a.5.5,0,0,1,.5.5V9a.5.5,0,0,1-.5.5Zm-4,0A.5.5,0,0,1,0,9V7a.5.5,0,0,1,.5-.5H2a.5.5,0,0,1,.5.5V9a.5.5,0,0,1-.5.5Z"/>
      </g>
    </g>
  </g>
</svg>
