<svg xmlns="http://www.w3.org/2000/svg" xmlns:xlink="http://www.w3.org/1999/xlink" width="390" height="844" viewBox="0 0 390 844">
  <defs>
    <clipPath id="clip-path">
      <rect id="矩形_138" data-name="矩形 138" width="157" height="56" fill="#fff"/>
    </clipPath>
    <clipPath id="clip-path-2">
      <rect id="矩形_138-2" data-name="矩形 138" width="186" height="56" fill="#fff"/>
    </clipPath>
    <clipPath id="clip-path-3">
      <rect id="矩形_138-3" data-name="矩形 138" width="221" height="56" fill="#fff"/>
    </clipPath>
    <clipPath id="clip-系统通知页">
      <rect width="390" height="844"/>
    </clipPath>
  </defs>
  <g id="系统通知页" clip-path="url(#clip-系统通知页)">
    <rect width="390" height="844" fill="#f5f5f5"/>
    <rect id="矩形_21" data-name="矩形 21" width="390" height="45" transform="translate(0 30)" fill="#fff"/>
    <text id="通知" transform="translate(195 60)" font-size="18" font-family="MicrosoftYaHei, Microsoft YaHei" letter-spacing="0.2em"><tspan x="-19.8" y="0">通知</tspan></text>
    <line id="直线_9" data-name="直线 9" x2="390" transform="translate(0 75)" fill="none" stroke="#c5c5c5" stroke-width="1"/>
    <path id="路径" d="M-8.817,7.16a.913.913,0,0,0-.322.679.9.9,0,0,0,.2.569l.108.115,7.984,7.212a1.061,1.061,0,0,0,1.425-.02A.891.891,0,0,0,.663,14.5l-.108-.115L-6.668,7.862.543,1.613A.892.892,0,0,0,.68.417L.579.3A1.062,1.062,0,0,0-.7.149l-.13.092Z" transform="translate(24.639 45)" fill="#707070"/>
    <g id="矩形_158" data-name="矩形 158" transform="translate(14 80)" fill="#fff" stroke="#f5f5f5" stroke-width="1">
      <rect width="35" height="35" rx="5" stroke="none"/>
      <rect x="0.5" y="0.5" width="34" height="34" rx="4.5" fill="none"/>
    </g>
    <g id="Delivery_递送_发送_纸飞机_1_" data-name="Delivery，递送，发送，纸飞机 (1)" transform="translate(-19.965 66.287)">
      <path id="路径_158" data-name="路径 158" d="M417.016,95.3h9.741l10.479-33.972Z" transform="translate(-369.895 -45.547)" fill="#6e6e96" opacity="0.2"/>
      <path id="路径_159" data-name="路径 159" d="M318.168,58.075l3.9,11.242,20.447-34.343Z" transform="translate(-274.656 -20.156)" fill="#e5c0a8"/>
      <path id="路径_160" data-name="路径 160" d="M304.551,52.447a.664.664,0,0,1-.628-.446l-3.9-11.242a.664.664,0,0,1,.17-.7l24.35-23.1a.664.664,0,0,1,1.028.821L305.121,52.122a.664.664,0,0,1-.571.324Zm-3.135-11.719,3.294,9.489,17.259-28.988-20.553,19.5Z" transform="translate(-257.136 -2.622)" fill="#6e6e96"/>
      <path id="路径_161" data-name="路径 161" d="M51.287,53.743,85.382,34.974l-24.349,23.1Z" transform="translate(-17.521 -20.156)" fill="#ffdac1"/>
      <path id="路径_162" data-name="路径 162" d="M43.511,38.583a.663.663,0,0,1-.27-.057L33.5,34.194A.664.664,0,0,1,33.446,33L67.541,14.236a.664.664,0,1,1,.777,1.064L43.969,38.4a.664.664,0,0,1-.457.182Zm-8.252-5.059,8.117,3.608L63.658,17.89l-28.4,15.634Z" transform="translate(0)" fill="#6e6e96"/>
      <path id="路径_163" data-name="路径 163" d="M445.72,34.974,425.282,59.683l15.683,6.089Z" transform="translate(-377.859 -20.156)" fill="#ffdac1"/>
      <path id="路径_164" data-name="路径 164" d="M423.431,48.924a.664.664,0,0,1-.24-.045l-15.683-6.089a.664.664,0,0,1-.271-1.043l20.438-24.709a.664.664,0,0,1,1.168.525l-4.756,30.8a.663.663,0,0,1-.656.563Zm-14.584-7.039L422.9,47.341l4.262-27.6Z" transform="translate(-360.326 -2.644)" fill="#6e6e96"/>
      <path id="路径_165" data-name="路径 165" d="M407.758,704.43a.664.664,0,0,1-.664-.664v-9.634a.664.664,0,1,1,1.328,0v9.634A.664.664,0,0,1,407.758,704.43Z" transform="translate(-360.335 -654.606)" fill="#6e6e96"/>
      <path id="路径_166" data-name="路径 166" d="M437.756,34.974,420.709,60.287l-2.293-.89Zm-20.74,24.709L419.9,63.67l1.187-1.993Z" transform="translate(-369.895 -20.156)" fill="#6e6e96" opacity="0.2"/>
    </g>
    <g id="组_215" data-name="组 215" transform="translate(51 79.736)">
      <g id="组_205" data-name="组 205" transform="translate(0 0.264)" clip-path="url(#clip-path)">
        <path id="路径_125" data-name="路径 125" d="M152.917.5H8.184C6.193.5,4.577,3.815,4.577,7.9V47.759c0,4.089,1.616,7.4,3.607,7.4H152.917c1.992,0,3.607-3.315,3.607-7.4V7.9c0-4.089-1.615-7.4-3.607-7.4" transform="translate(-0.209 0.2)" fill="#fff"/>
        <path id="矩形_137" data-name="矩形 137" d="M3.781,0H148.166a3.78,3.78,0,0,1,3.78,3.78v47.1a3.78,3.78,0,0,1-3.78,3.78H3.781A3.781,3.781,0,0,1,0,50.882V3.781A3.781,3.781,0,0,1,3.781,0Z" transform="translate(4.368 0.7)" fill="#fff"/>
        <path id="路径_126" data-name="路径 126" d="M8.92.5H.809c.954,3.916,2.863,5.875,3.817,17.624.111,1.363-.287,2.491,0,3.916" transform="translate(-0.037 0.2)" fill="#fff"/>
        <path id="路径_127" data-name="路径 127" d="M8.92.5H.809c.954,3.916,2.863,5.875,3.817,17.624.111,1.363-.287,2.491,0,3.916" transform="translate(-0.037 0.2)" fill="#fff"/>
      </g>
    </g>
    <text id="Mg1添加你为好友" transform="translate(133 102)" font-size="16" font-family="MicrosoftYaHei, Microsoft YaHei"><tspan x="-65.625" y="0">Mg1添加你为好友</tspan></text>
    <rect id="矩形_160" data-name="矩形 160" width="38" height="20" rx="3" transform="translate(67 111)" fill="#0d6efd"/>
    <text id="同意" transform="translate(86 126)" fill="#fff" font-size="14" font-family="MicrosoftYaHei, Microsoft YaHei"><tspan x="-14" y="0">同意</tspan></text>
    <rect id="矩形_161" data-name="矩形 161" width="38" height="20" rx="3" transform="translate(121 111)" fill="#6c757d"/>
    <text id="拒绝" transform="translate(140 126)" fill="#fff" font-size="14" font-family="MicrosoftYaHei, Microsoft YaHei"><tspan x="-14" y="0">拒绝</tspan></text>
    <g id="矩形_162" data-name="矩形 162" transform="translate(14 141)" fill="#fff" stroke="#f5f5f5" stroke-width="1">
      <rect width="35" height="35" rx="5" stroke="none"/>
      <rect x="0.5" y="0.5" width="34" height="34" rx="4.5" fill="none"/>
    </g>
    <g id="Delivery_递送_发送_纸飞机_1_2" data-name="Delivery，递送，发送，纸飞机 (1)" transform="translate(-19.965 127.287)">
      <path id="路径_158-2" data-name="路径 158" d="M417.016,95.3h9.741l10.479-33.972Z" transform="translate(-369.895 -45.547)" fill="#6e6e96" opacity="0.2"/>
      <path id="路径_159-2" data-name="路径 159" d="M318.168,58.075l3.9,11.242,20.447-34.343Z" transform="translate(-274.656 -20.156)" fill="#e5c0a8"/>
      <path id="路径_160-2" data-name="路径 160" d="M304.551,52.447a.664.664,0,0,1-.628-.446l-3.9-11.242a.664.664,0,0,1,.17-.7l24.35-23.1a.664.664,0,0,1,1.028.821L305.121,52.122a.664.664,0,0,1-.571.324Zm-3.135-11.719,3.294,9.489,17.259-28.988-20.553,19.5Z" transform="translate(-257.136 -2.622)" fill="#6e6e96"/>
      <path id="路径_161-2" data-name="路径 161" d="M51.287,53.743,85.382,34.974l-24.349,23.1Z" transform="translate(-17.521 -20.156)" fill="#ffdac1"/>
      <path id="路径_162-2" data-name="路径 162" d="M43.511,38.583a.663.663,0,0,1-.27-.057L33.5,34.194A.664.664,0,0,1,33.446,33L67.541,14.236a.664.664,0,1,1,.777,1.064L43.969,38.4a.664.664,0,0,1-.457.182Zm-8.252-5.059,8.117,3.608L63.658,17.89l-28.4,15.634Z" transform="translate(0)" fill="#6e6e96"/>
      <path id="路径_163-2" data-name="路径 163" d="M445.72,34.974,425.282,59.683l15.683,6.089Z" transform="translate(-377.859 -20.156)" fill="#ffdac1"/>
      <path id="路径_164-2" data-name="路径 164" d="M423.431,48.924a.664.664,0,0,1-.24-.045l-15.683-6.089a.664.664,0,0,1-.271-1.043l20.438-24.709a.664.664,0,0,1,1.168.525l-4.756,30.8a.663.663,0,0,1-.656.563Zm-14.584-7.039L422.9,47.341l4.262-27.6Z" transform="translate(-360.326 -2.644)" fill="#6e6e96"/>
      <path id="路径_165-2" data-name="路径 165" d="M407.758,704.43a.664.664,0,0,1-.664-.664v-9.634a.664.664,0,1,1,1.328,0v9.634A.664.664,0,0,1,407.758,704.43Z" transform="translate(-360.335 -654.606)" fill="#6e6e96"/>
      <path id="路径_166-2" data-name="路径 166" d="M437.756,34.974,420.709,60.287l-2.293-.89Zm-20.74,24.709L419.9,63.67l1.187-1.993Z" transform="translate(-369.895 -20.156)" fill="#6e6e96" opacity="0.2"/>
    </g>
    <g id="组_216" data-name="组 216" transform="translate(51 140.736)">
      <g id="组_205-2" data-name="组 205" transform="translate(0 0.264)" clip-path="url(#clip-path-2)">
        <path id="路径_125-2" data-name="路径 125" d="M180.035.5H8.843C6.488.5,4.577,3.815,4.577,7.9V47.759c0,4.089,1.911,7.4,4.266,7.4H180.035c2.357,0,4.266-3.315,4.266-7.4V7.9c0-4.089-1.91-7.4-4.266-7.4" transform="translate(0.589 0.2)" fill="#fff"/>
        <path id="矩形_137-2" data-name="矩形 137" d="M3.781,0H175.943a3.78,3.78,0,0,1,3.78,3.78v47.1a3.78,3.78,0,0,1-3.78,3.78H3.781A3.781,3.781,0,0,1,0,50.882V3.781A3.781,3.781,0,0,1,3.781,0Z" transform="translate(5.167 0.7)" fill="#fff"/>
        <path id="路径_126-2" data-name="路径 126" d="M10.4.5H.809C1.938,4.416,4.2,6.375,5.324,18.124c.131,1.363-.34,2.491,0,3.916" transform="translate(0.104 0.2)" fill="#fff"/>
        <path id="路径_127-2" data-name="路径 127" d="M10.4.5H.809C1.938,4.416,4.2,6.375,5.324,18.124c.131,1.363-.34,2.491,0,3.916" transform="translate(0.104 0.2)" fill="#fff"/>
      </g>
    </g>
    <text id="Mg1025添加你为好友" transform="translate(147 163)" font-size="16" font-family="MicrosoftYaHei, Microsoft YaHei"><tspan x="-79.699" y="0">Mg1025添加你为好友</tspan></text>
    <rect id="矩形_163" data-name="矩形 163" width="38" height="20" rx="3" transform="translate(67 172)" fill="#0d6efd"/>
    <text id="同意-2" data-name="同意" transform="translate(86 187)" fill="#fff" font-size="14" font-family="MicrosoftYaHei, Microsoft YaHei"><tspan x="-14" y="0">同意</tspan></text>
    <rect id="矩形_164" data-name="矩形 164" width="38" height="20" rx="3" transform="translate(121 172)" fill="#6c757d"/>
    <text id="拒绝-2" data-name="拒绝" transform="translate(140 187)" fill="#fff" font-size="14" font-family="MicrosoftYaHei, Microsoft YaHei"><tspan x="-14" y="0">拒绝</tspan></text>
    <g id="矩形_165" data-name="矩形 165" transform="translate(14 202)" fill="#fff" stroke="#f5f5f5" stroke-width="1">
      <rect width="35" height="35" rx="5" stroke="none"/>
      <rect x="0.5" y="0.5" width="34" height="34" rx="4.5" fill="none"/>
    </g>
    <g id="Delivery_递送_发送_纸飞机_1_3" data-name="Delivery，递送，发送，纸飞机 (1)" transform="translate(-19.965 188.287)">
      <path id="路径_158-3" data-name="路径 158" d="M417.016,95.3h9.741l10.479-33.972Z" transform="translate(-369.895 -45.547)" fill="#6e6e96" opacity="0.2"/>
      <path id="路径_159-3" data-name="路径 159" d="M318.168,58.075l3.9,11.242,20.447-34.343Z" transform="translate(-274.656 -20.156)" fill="#e5c0a8"/>
      <path id="路径_160-3" data-name="路径 160" d="M304.551,52.447a.664.664,0,0,1-.628-.446l-3.9-11.242a.664.664,0,0,1,.17-.7l24.35-23.1a.664.664,0,0,1,1.028.821L305.121,52.122a.664.664,0,0,1-.571.324Zm-3.135-11.719,3.294,9.489,17.259-28.988-20.553,19.5Z" transform="translate(-257.136 -2.622)" fill="#6e6e96"/>
      <path id="路径_161-3" data-name="路径 161" d="M51.287,53.743,85.382,34.974l-24.349,23.1Z" transform="translate(-17.521 -20.156)" fill="#ffdac1"/>
      <path id="路径_162-3" data-name="路径 162" d="M43.511,38.583a.663.663,0,0,1-.27-.057L33.5,34.194A.664.664,0,0,1,33.446,33L67.541,14.236a.664.664,0,1,1,.777,1.064L43.969,38.4a.664.664,0,0,1-.457.182Zm-8.252-5.059,8.117,3.608L63.658,17.89l-28.4,15.634Z" transform="translate(0)" fill="#6e6e96"/>
      <path id="路径_163-3" data-name="路径 163" d="M445.72,34.974,425.282,59.683l15.683,6.089Z" transform="translate(-377.859 -20.156)" fill="#ffdac1"/>
      <path id="路径_164-3" data-name="路径 164" d="M423.431,48.924a.664.664,0,0,1-.24-.045l-15.683-6.089a.664.664,0,0,1-.271-1.043l20.438-24.709a.664.664,0,0,1,1.168.525l-4.756,30.8a.663.663,0,0,1-.656.563Zm-14.584-7.039L422.9,47.341l4.262-27.6Z" transform="translate(-360.326 -2.644)" fill="#6e6e96"/>
      <path id="路径_165-3" data-name="路径 165" d="M407.758,704.43a.664.664,0,0,1-.664-.664v-9.634a.664.664,0,1,1,1.328,0v9.634A.664.664,0,0,1,407.758,704.43Z" transform="translate(-360.335 -654.606)" fill="#6e6e96"/>
      <path id="路径_166-3" data-name="路径 166" d="M437.756,34.974,420.709,60.287l-2.293-.89Zm-20.74,24.709L419.9,63.67l1.187-1.993Z" transform="translate(-369.895 -20.156)" fill="#6e6e96" opacity="0.2"/>
    </g>
    <g id="组_230" data-name="组 230" transform="translate(51 201.736)">
      <g id="组_205-3" data-name="组 205" transform="translate(0 0.264)" clip-path="url(#clip-path-3)">
        <path id="路径_125-3" data-name="路径 125" d="M213.026.5H9.646c-2.8,0-5.069,3.315-5.069,7.4V47.759c0,4.089,2.27,7.4,5.069,7.4H213.026c2.8,0,5.069-3.315,5.069-7.4V7.9c0-4.089-2.269-7.4-5.069-7.4" transform="translate(1.56 0.2)" fill="#fff"/>
        <path id="矩形_137-3" data-name="矩形 137" d="M3.781,0H209.737a3.78,3.78,0,0,1,3.78,3.78v47.1a3.78,3.78,0,0,1-3.78,3.78H3.781A3.781,3.781,0,0,1,0,50.882V3.781A3.781,3.781,0,0,1,3.781,0Z" transform="translate(6.138 0.7)" fill="#fff"/>
        <path id="路径_126-3" data-name="路径 126" d="M12.207.5H.809C2.15,4.416,4.832,6.375,6.173,18.124c.156,1.363-.4,2.491,0,3.916" transform="translate(0.276 0.2)" fill="#fff"/>
        <path id="路径_127-3" data-name="路径 127" d="M12.207.5H.809C2.15,4.416,4.832,6.375,6.173,18.124c.156,1.363-.4,2.491,0,3.916" transform="translate(0.276 0.2)" fill="#fff"/>
      </g>
    </g>
    <text id="Mg10251025添加你为好友" transform="translate(165 224)" font-size="16" font-family="MicrosoftYaHei, Microsoft YaHei"><tspan x="-98.465" y="0">Mg10251025添加你为好友</tspan></text>
    <rect id="矩形_166" data-name="矩形 166" width="38" height="20" rx="3" transform="translate(67 233)" fill="#0d6efd"/>
    <text id="同意-3" data-name="同意" transform="translate(86 248)" fill="#fff" font-size="14" font-family="MicrosoftYaHei, Microsoft YaHei"><tspan x="-14" y="0">同意</tspan></text>
    <rect id="矩形_167" data-name="矩形 167" width="38" height="20" rx="3" transform="translate(121 233)" fill="#6c757d"/>
    <text id="拒绝-3" data-name="拒绝" transform="translate(140 248)" fill="#fff" font-size="14" font-family="MicrosoftYaHei, Microsoft YaHei"><tspan x="-14" y="0">拒绝</tspan></text>
    <g id="状态栏_白" data-name="状态栏/白">
      <rect id="状态栏_白_background" data-name="状态栏/白 background" width="390" height="30"/>
      <path id="矩形" d="M0,0H390V30H0Z" fill="#fff"/>
      <g id="Right_Detail" data-name="Right Detail" transform="translate(350 11.211)">
        <g id="Battery">
          <path id="Rectangle_3" data-name="Rectangle 3" d="M0,2.5A2.5,2.5,0,0,1,2.5,0h17A2.5,2.5,0,0,1,22,2.5V8.734A1.766,1.766,0,0,1,20.234,10.5H2.5A2.5,2.5,0,0,1,0,8Z"/>
          <path id="Combined_Shape" data-name="Combined Shape" d="M0,3.874H0V0A2,2,0,0,1,1.5,1.937,2,2,0,0,1,0,3.873Z" transform="translate(23 3.5)"/>
          <rect id="Rectangle_Copy_4" data-name="Rectangle Copy 4" width="18" height="6.5" rx="1" transform="translate(2 2)"/>
        </g>
      </g>
      <text id="Time" transform="translate(26 20)" font-size="12" font-family="SegoeUI, Segoe UI"><tspan x="-11.004" y="0">9:41</tspan></text>
      <g id="Left_Detail" data-name="Left Detail" transform="translate(312 10.81)">
        <path id="Wifi" d="M4.361,6.906a2.884,2.884,0,0,1,4.284.032L6.522,9ZM6.487,4.477A4.419,4.419,0,0,0,3.27,5.848L2.179,4.793a6.037,6.037,0,0,1,8.645.029L9.734,5.88A4.416,4.416,0,0,0,6.487,4.477Zm0-2.984a7.54,7.54,0,0,0-5.4,2.245L0,2.682A9.1,9.1,0,0,1,6.487,0,9.1,9.1,0,0,1,13,2.707L11.911,3.764A7.537,7.537,0,0,0,6.487,1.492Z" transform="translate(19.5 0.5)"/>
        <path id="Mobile_Signal" data-name="Mobile Signal" d="M12.5,9.5A.5.5,0,0,1,12,9V.5a.5.5,0,0,1,.5-.5H14a.5.5,0,0,1,.5.5V9a.5.5,0,0,1-.5.5Zm-4,0A.5.5,0,0,1,8,9V3a.5.5,0,0,1,.5-.5H10a.5.5,0,0,1,.5.5V9a.5.5,0,0,1-.5.5Zm-4,0A.5.5,0,0,1,4,9V5a.5.5,0,0,1,.5-.5H6a.5.5,0,0,1,.5.5V9a.5.5,0,0,1-.5.5Zm-4,0A.5.5,0,0,1,0,9V7a.5.5,0,0,1,.5-.5H2a.5.5,0,0,1,.5.5V9a.5.5,0,0,1-.5.5Z"/>
      </g>
    </g>
  </g>
</svg>
