<svg xmlns="http://www.w3.org/2000/svg" xmlns:xlink="http://www.w3.org/1999/xlink" width="390" height="844" viewBox="0 0 390 844">
  <defs>
    <clipPath id="clip-联系人_-_群">
      <rect width="390" height="844"/>
    </clipPath>
  </defs>
  <g id="联系人_-_群" data-name="联系人 - 群" clip-path="url(#clip-联系人_-_群)">
    <rect width="390" height="844" fill="#f5f5f5"/>
    <rect id="矩形_21" data-name="矩形 21" width="390" height="45" transform="translate(0 30)" fill="#fff"/>
    <text id="群聊" transform="translate(195 60)" font-size="18" font-family="MicrosoftYaHei-Bold, Microsoft YaHei" font-weight="700" letter-spacing="0.1em"><tspan x="-18.9" y="0">群聊</tspan></text>
    <line id="直线_20" data-name="直线 20" x2="390" transform="translate(0 75)" fill="none" stroke="#c5c5c5" stroke-width="1"/>
    <path id="路径" d="M-8.817,7.16a.913.913,0,0,0-.322.679.9.9,0,0,0,.2.569l.108.115,7.984,7.212a1.061,1.061,0,0,0,1.425-.02A.891.891,0,0,0,.663,14.5l-.108-.115L-6.668,7.862.543,1.613A.892.892,0,0,0,.68.417L.579.3A1.062,1.062,0,0,0-.7.149l-.13.092Z" transform="translate(24.639 45)" fill="#707070"/>
    <g id="组件_14_5" data-name="组件 14 – 5" transform="translate(-1 76)">
      <rect id="矩形_17" data-name="矩形 17" width="389" height="52" transform="translate(1)" fill="#fff"/>
      <g id="矩形_18" data-name="矩形 18" transform="translate(16 8)" fill="#fff" stroke="#f5f5f5" stroke-width="1">
        <rect width="35" height="35" rx="6" stroke="none"/>
        <rect x="0.5" y="0.5" width="34" height="34" rx="5.5" fill="none"/>
      </g>
      <text id="群1" transform="translate(74 31.229)" font-size="16" font-family="MicrosoftYaHei, Microsoft YaHei" letter-spacing="0.2em"><tspan x="-14.291" y="0">群1</tspan></text>
      <line id="直线_14" data-name="直线 14" x2="389" transform="translate(0 52)" fill="none" stroke="#e6e6e6" stroke-width="1"/>
    </g>
    <path id="group-head" d="M24.437,141.387l-.85,1.488a8.386,8.386,0,0,1,4.25,7.437h1.7A10.431,10.431,0,0,0,24.437,141.387ZM16.787,128a6.894,6.894,0,0,0-6.8,7.012,7.064,7.064,0,0,0,3.187,5.95,10.171,10.171,0,0,0-6.8,9.563h1.7A8.938,8.938,0,0,1,17,141.812,6.91,6.91,0,1,0,16.787,128Zm0,12.112a5.1,5.1,0,1,1,5.1-5.1A4.908,4.908,0,0,1,16.787,140.112Zm12.537-4.25a5.487,5.487,0,0,0-5.525-5.525c.212.425.637,1.063.85,1.488a4.1,4.1,0,0,1,3.187,4.037,4.262,4.262,0,0,1-4.25,4.25,9.242,9.242,0,0,1-1.275,1.487c.425,0,.85-.212,1.275-.212A5.672,5.672,0,0,0,29.325,135.862Zm.637,5.1-.637,1.275a7.043,7.043,0,0,1,3.4,5.95H34A8.289,8.289,0,0,0,29.962,140.962ZM0,148.187H1.487a6.541,6.541,0,0,1,3.4-5.95l-.85-1.275A8.289,8.289,0,0,0,0,148.187Zm11.475-6.8A9.243,9.243,0,0,1,10.2,139.9a4.262,4.262,0,0,1-4.25-4.25,4.332,4.332,0,0,1,3.187-4.037,3.425,3.425,0,0,0,.85-1.488,5.525,5.525,0,1,0,0,11.05A4.148,4.148,0,0,0,11.475,141.387Z" transform="translate(15 -37)"/>
    <g id="状态栏_白" data-name="状态栏/白">
      <rect id="状态栏_白_background" data-name="状态栏/白 background" width="390" height="30"/>
      <path id="矩形" d="M0,0H390V30H0Z" fill="#fff"/>
      <g id="Right_Detail" data-name="Right Detail" transform="translate(350 11.211)">
        <g id="Battery">
          <path id="Rectangle_3" data-name="Rectangle 3" d="M0,2.5A2.5,2.5,0,0,1,2.5,0h17A2.5,2.5,0,0,1,22,2.5V8.734A1.766,1.766,0,0,1,20.234,10.5H2.5A2.5,2.5,0,0,1,0,8Z"/>
          <path id="Combined_Shape" data-name="Combined Shape" d="M0,3.874H0V0A2,2,0,0,1,1.5,1.937,2,2,0,0,1,0,3.873Z" transform="translate(23 3.5)"/>
          <rect id="Rectangle_Copy_4" data-name="Rectangle Copy 4" width="18" height="6.5" rx="1" transform="translate(2 2)"/>
        </g>
      </g>
      <text id="Time" transform="translate(26 20)" font-size="12" font-family="SegoeUI, Segoe UI"><tspan x="-11.004" y="0">9:41</tspan></text>
      <g id="Left_Detail" data-name="Left Detail" transform="translate(312 10.81)">
        <path id="Wifi" d="M4.361,6.906a2.884,2.884,0,0,1,4.284.032L6.522,9ZM6.487,4.477A4.419,4.419,0,0,0,3.27,5.848L2.179,4.793a6.037,6.037,0,0,1,8.645.029L9.734,5.88A4.416,4.416,0,0,0,6.487,4.477Zm0-2.984a7.54,7.54,0,0,0-5.4,2.245L0,2.682A9.1,9.1,0,0,1,6.487,0,9.1,9.1,0,0,1,13,2.707L11.911,3.764A7.537,7.537,0,0,0,6.487,1.492Z" transform="translate(19.5 0.5)"/>
        <path id="Mobile_Signal" data-name="Mobile Signal" d="M12.5,9.5A.5.5,0,0,1,12,9V.5a.5.5,0,0,1,.5-.5H14a.5.5,0,0,1,.5.5V9a.5.5,0,0,1-.5.5Zm-4,0A.5.5,0,0,1,8,9V3a.5.5,0,0,1,.5-.5H10a.5.5,0,0,1,.5.5V9a.5.5,0,0,1-.5.5Zm-4,0A.5.5,0,0,1,4,9V5a.5.5,0,0,1,.5-.5H6a.5.5,0,0,1,.5.5V9a.5.5,0,0,1-.5.5Zm-4,0A.5.5,0,0,1,0,9V7a.5.5,0,0,1,.5-.5H2a.5.5,0,0,1,.5.5V9a.5.5,0,0,1-.5.5Z"/>
      </g>
    </g>
  </g>
</svg>
